<svg xmlns="http://www.w3.org/2000/svg" xmlns:xlink="http://www.w3.org/1999/xlink" width="1920" zoomAndPan="magnify" viewBox="0 0 1440 809.999993" height="1080" preserveAspectRatio="xMidYMid meet" version="1.0"><defs><clipPath id="c4a5066db0"><path d="M 439.871094 125.117188 L 999.371094 125.117188 L 999.371094 683 L 439.871094 683 Z M 439.871094 125.117188 " clip-rule="nonzero"/></clipPath><clipPath id="c7bf0f2395"><path d="M 594 228 L 850 228 L 850 684.617188 L 594 684.617188 Z M 594 228 " clip-rule="nonzero"/></clipPath></defs><rect x="-144" width="1728" fill="#ffffff" y="-80.999999" height="971.999992" fill-opacity="1"/><g clip-path="url(#c4a5066db0)"><path fill="#000000" d="M 999.269531 404.832031 C 999.269531 250.339844 874.046875 125.117188 719.582031 125.117188 C 565.113281 125.117188 439.871094 250.339844 439.871094 404.832031 C 439.871094 536 530.167969 646.082031 652 676.308594 L 652 490.3125 L 594.3125 490.3125 L 594.3125 404.832031 L 652 404.832031 L 652 368.003906 C 652 272.808594 695.078125 228.675781 788.542969 228.675781 C 806.265625 228.675781 836.84375 232.136719 849.347656 235.628906 L 849.347656 313.101562 C 842.742188 312.398438 831.269531 312.046875 817.035156 312.046875 C 771.171875 312.046875 753.449219 329.417969 753.449219 374.582031 L 753.449219 404.804688 L 844.800781 404.804688 L 829.113281 490.285156 L 753.449219 490.285156 L 753.449219 682.460938 C 891.949219 665.738281 999.269531 547.800781 999.269531 404.804688 Z M 999.269531 404.832031 " fill-opacity="1" fill-rule="nonzero"/></g><g clip-path="url(#c7bf0f2395)"><path fill="#ffffff" d="M 829.136719 490.285156 L 844.828125 404.804688 L 753.472656 404.804688 L 753.472656 374.582031 C 753.472656 329.417969 771.195312 312.046875 817.0625 312.046875 C 831.296875 312.046875 842.769531 312.398438 849.371094 313.101562 L 849.371094 235.628906 C 836.867188 232.164062 806.292969 228.675781 788.570312 228.675781 C 695.105469 228.675781 652.027344 272.808594 652.027344 368.003906 L 652.027344 404.832031 L 594.335938 404.832031 L 594.335938 490.3125 L 652.027344 490.3125 L 652.027344 676.308594 C 673.664062 681.679688 696.285156 684.542969 719.605469 684.542969 C 731.078125 684.542969 742.375 683.839844 753.496094 682.484375 L 753.496094 490.3125 L 829.160156 490.3125 Z M 829.136719 490.285156 " fill-opacity="1" fill-rule="nonzero"/></g></svg>