<svg xmlns="http://www.w3.org/2000/svg" xmlns:xlink="http://www.w3.org/1999/xlink" width="1920" zoomAndPan="magnify" viewBox="0 0 1440 809.999993" height="1080" preserveAspectRatio="xMidYMid meet" version="1.0"><defs><clipPath id="03290af471"><path d="M 414.832031 99.816406 L 1024.582031 99.816406 L 1024.582031 709.566406 L 414.832031 709.566406 Z M 414.832031 99.816406 " clip-rule="nonzero"/></clipPath></defs><g clip-path="url(#03290af471)"><path fill="#000000" d="M 593.363281 101.914062 C 560.9375 103.433594 538.792969 108.632812 519.433594 116.214844 C 499.386719 124.027344 482.414062 134.484375 465.523438 151.457031 C 448.609375 168.429688 438.210938 185.433594 430.484375 205.511719 C 422.988281 224.925781 417.90625 247.070312 416.46875 279.523438 C 415.03125 312.007812 414.714844 322.375 414.859375 405.152344 C 415.003906 487.894531 415.378906 498.292969 416.929688 530.804688 C 418.480469 563.230469 423.648438 585.347656 431.230469 604.734375 C 439.042969 624.78125 449.496094 641.726562 466.472656 658.644531 C 483.445312 675.558594 500.449219 685.929688 520.523438 693.683594 C 539.910156 701.179688 562.085938 706.292969 594.511719 707.699219 C 627.023438 709.136719 637.390625 709.453125 720.136719 709.277344 C 802.910156 709.136719 813.28125 708.761719 845.792969 707.210938 C 878.21875 705.660156 900.332031 700.460938 919.71875 692.90625 C 939.769531 685.066406 956.742188 674.640625 973.628906 657.667969 C 990.519531 640.691406 1000.914062 623.691406 1008.671875 603.613281 C 1016.167969 584.226562 1021.277344 562.054688 1022.6875 529.65625 C 1024.09375 497.144531 1024.4375 486.746094 1024.292969 404 C 1024.152344 321.257812 1023.75 310.886719 1022.226562 278.375 C 1020.675781 245.921875 1015.503906 223.804688 1007.921875 204.417969 C 1000.082031 184.371094 989.65625 167.425781 972.683594 150.507812 C 955.707031 133.621094 938.707031 123.195312 918.628906 115.46875 C 899.242188 107.972656 877.070312 102.859375 844.644531 101.453125 C 812.132812 100.015625 801.734375 99.703125 718.988281 99.84375 C 636.242188 99.988281 625.875 100.363281 593.363281 101.914062 M 596.921875 652.8125 C 567.226562 651.519531 551.085938 646.582031 540.3125 642.445312 C 526.070312 636.929688 515.929688 630.324219 505.21875 619.726562 C 494.53125 609.070312 487.925781 598.933594 482.355469 584.742188 C 478.191406 574.003906 473.164062 557.890625 471.757812 528.164062 C 470.234375 496.054688 469.890625 486.402344 469.746094 405.035156 C 469.601562 323.699219 469.890625 314.046875 471.296875 281.90625 C 472.5625 252.210938 477.53125 236.070312 481.664062 225.328125 C 487.179688 211.082031 493.757812 200.941406 504.382812 190.230469 C 515.039062 179.546875 525.179688 172.941406 539.394531 167.367188 C 550.136719 163.175781 566.25 158.175781 595.945312 156.769531 C 628.085938 155.246094 637.707031 154.933594 719.074219 154.757812 C 800.441406 154.585938 810.09375 154.875 842.230469 156.3125 C 871.929688 157.601562 888.070312 162.515625 898.8125 166.679688 C 913.058594 172.195312 923.222656 178.742188 933.910156 189.398438 C 944.59375 200.054688 951.226562 210.164062 956.769531 224.410156 C 960.964844 235.121094 965.960938 251.261719 967.367188 280.933594 C 968.890625 313.070312 969.234375 322.722656 969.378906 404.058594 C 969.523438 485.425781 969.234375 495.078125 967.828125 527.1875 C 966.535156 556.882812 961.597656 573.054688 957.460938 583.796875 C 951.945312 598.011719 945.367188 608.179688 934.714844 618.863281 C 924.058594 629.519531 913.949219 636.15625 899.703125 641.726562 C 888.988281 645.921875 872.847656 650.917969 843.179688 652.324219 C 811.039062 653.847656 801.417969 654.191406 720.023438 654.335938 C 638.683594 654.480469 629.035156 654.191406 596.894531 652.785156 M 845.363281 241.667969 C 845.390625 261.859375 861.820312 278.203125 881.980469 278.144531 C 902.171875 278.117188 918.515625 261.71875 918.484375 241.527344 C 918.457031 221.335938 902.027344 204.992188 881.835938 205.023438 C 861.644531 205.050781 845.304688 221.480469 845.332031 241.640625 M 563.089844 404.863281 C 563.261719 491.285156 633.457031 561.191406 719.851562 561.019531 C 806.273438 560.847656 876.207031 490.683594 876.035156 404.261719 C 875.863281 317.867188 805.667969 247.929688 719.246094 248.074219 C 632.855469 248.246094 562.917969 318.441406 563.089844 404.863281 M 617.976562 404.75 C 617.890625 348.65625 663.269531 303.074219 719.363281 302.988281 C 775.453125 302.875 821.035156 348.253906 821.148438 404.375 C 821.265625 460.46875 775.855469 506.046875 719.765625 506.132812 C 663.671875 506.25 618.089844 460.839844 618.003906 404.75 " fill-opacity="1" fill-rule="nonzero"/></g></svg>