<svg xmlns="http://www.w3.org/2000/svg" xmlns:xlink="http://www.w3.org/1999/xlink" width="1920" zoomAndPan="magnify" viewBox="0 0 1440 809.999993" height="1080" preserveAspectRatio="xMidYMid meet" version="1.0"><defs><clipPath id="3ce53ab4ae"><path d="M 391.832031 125.238281 L 946 125.238281 L 946 680 L 391.832031 680 Z M 391.832031 125.238281 " clip-rule="nonzero"/></clipPath><clipPath id="b78bf6991e"><path d="M 971 608 L 1047.332031 608 L 1047.332031 683.988281 L 971 683.988281 Z M 971 608 " clip-rule="nonzero"/></clipPath></defs><rect x="-144" width="1728" fill="#ffffff" y="-80.999999" height="971.999992" fill-opacity="1"/><path fill="#000000" d="M 1014.949219 648.203125 C 1020.617188 648.253906 1025.265625 643.710938 1025.316406 638.046875 C 1025.316406 637.8125 1025.316406 637.578125 1025.316406 637.339844 C 1025.316406 629.640625 1020.667969 625.960938 1011.136719 625.960938 L 995.753906 625.960938 L 995.753906 666.242188 L 1001.554688 666.242188 L 1001.554688 648.671875 L 1008.65625 648.671875 L 1008.8125 648.878906 L 1019.859375 666.214844 L 1026.050781 666.214844 L 1014.167969 648.253906 L 1014.949219 648.148438 Z M 1008.265625 644.15625 L 1001.550781 644.15625 L 1001.550781 630.527344 L 1010.066406 630.527344 C 1014.453125 630.527344 1019.46875 631.257812 1019.46875 637.003906 C 1019.46875 643.605469 1014.402344 644.15625 1008.238281 644.15625 " fill-opacity="1" fill-rule="nonzero"/><g clip-path="url(#3ce53ab4ae)"><path fill="#000000" d="M 863.925781 597.714844 L 781.816406 597.714844 L 781.816406 469.195312 C 781.816406 438.550781 781.269531 399.105469 739.117188 399.105469 C 696.96875 399.105469 689.8125 432.492188 689.8125 466.976562 L 689.8125 597.714844 L 607.703125 597.714844 L 607.703125 333.421875 L 686.519531 333.421875 L 686.519531 369.554688 L 687.617188 369.554688 C 703.679688 342.089844 733.582031 325.667969 765.390625 326.871094 C 848.59375 326.871094 863.949219 381.585938 863.949219 452.75 L 863.949219 597.738281 Z M 515.097656 297.292969 C 488.773438 297.292969 467.464844 275.992188 467.4375 249.675781 C 467.410156 223.363281 488.75 202.0625 515.074219 202.035156 C 541.398438 202.035156 562.707031 223.335938 562.734375 249.652344 C 562.757812 275.964844 541.421875 297.265625 515.097656 297.292969 M 556.152344 597.714844 L 473.964844 597.714844 L 473.964844 333.421875 L 556.152344 333.421875 Z M 904.847656 125.832031 L 432.730469 125.832031 C 410.402344 125.597656 392.09375 143.453125 391.832031 165.773438 L 391.832031 639.691406 C 392.09375 662.011719 410.402344 679.894531 432.730469 679.660156 L 904.871094 679.660156 C 927.253906 679.945312 945.613281 662.0625 945.925781 639.691406 L 945.925781 165.722656 C 945.585938 143.375 927.226562 125.519531 904.847656 125.808594 " fill-opacity="1" fill-rule="nonzero"/></g><g clip-path="url(#b78bf6991e)"><path fill="#000000" d="M 1008.96875 608.023438 C 988.101562 608.234375 971.363281 625.308594 971.546875 646.164062 C 971.753906 667.023438 988.835938 683.757812 1009.699219 683.574219 C 1030.566406 683.367188 1047.308594 666.292969 1047.125 645.433594 C 1046.914062 624.863281 1030.28125 608.234375 1009.699219 608.023438 L 1008.96875 608.023438 M 1008.96875 679.242188 C 990.664062 679.554688 975.59375 664.960938 975.28125 646.6875 C 974.96875 628.414062 989.566406 613.324219 1007.847656 613.011719 C 1026.152344 612.699219 1041.222656 627.292969 1041.535156 645.566406 L 1041.535156 646.113281 C 1041.925781 663.996094 1027.71875 678.824219 1009.832031 679.214844 L 1008.96875 679.214844 " fill-opacity="1" fill-rule="nonzero"/></g></svg>