<?xml version="1.0" encoding="UTF-8"?>
<svg version="1.1" xmlns="http://www.w3.org/2000/svg" width="300" height="300">
<path d="M0 0 C3.24425286 1.1789962 6.41325071 1.74280325 9.8203125 2.3046875 C11.1768289 3.61442748 12.50588888 4.95270892 13.8203125 6.3046875 C15.0531301 7.00261672 16.30656947 7.66445474 17.5703125 8.3046875 C45.3399151 23.26458874 65.03105865 49.32797481 74.7734375 79.00390625 C84.52725443 112.07185782 79.07925018 145.59312942 64.8203125 176.3046875 C64.1603125 176.3046875 63.5003125 176.3046875 62.8203125 176.3046875 C62.1603125 178.6146875 61.5003125 180.9246875 60.8203125 183.3046875 C60.1603125 183.3046875 59.5003125 183.3046875 58.8203125 183.3046875 C58.55347656 183.88089844 58.28664062 184.45710937 58.01171875 185.05078125 C56.39306321 188.11295911 54.29354956 190.68474494 52.16015625 193.40234375 C50.63945973 195.3676833 50.63945973 195.3676833 49.8203125 198.3046875 C48.1484375 199.91796875 48.1484375 199.91796875 46.0703125 201.6171875 C43.4679929 203.81057116 41.17087182 205.93897437 39.0703125 208.6171875 C36.8827969 211.23005336 35.80144549 211.94962705 32.8203125 213.3046875 C31.76256499 214.16017838 30.72204014 215.03720512 29.6953125 215.9296875 C26.8203125 218.3046875 26.8203125 218.3046875 24.8203125 218.3046875 C24.4903125 218.9646875 24.1603125 219.6246875 23.8203125 220.3046875 C10.91370323 229.44686907 -3.9027798 234.73816847 -19.1796875 238.3046875 C-20.64341797 238.67400391 -20.64341797 238.67400391 -22.13671875 239.05078125 C-38.24286819 242.47009555 -56.27163461 241.22669229 -72.1796875 237.3046875 C-72.87078613 237.13839844 -73.56188477 236.97210938 -74.27392578 236.80078125 C-85.58346891 233.99869211 -95.79788059 229.54106821 -106.1796875 224.3046875 C-106.1796875 223.6446875 -106.1796875 222.9846875 -106.1796875 222.3046875 C-107.00984375 222.0984375 -107.84 221.8921875 -108.6953125 221.6796875 C-113.14835137 219.92243449 -116.28489625 217.35742923 -119.9296875 214.3046875 C-120.62980957 213.7274292 -121.32993164 213.1501709 -122.05126953 212.55541992 C-127.76894403 207.78235317 -133.06182694 202.71907646 -138.1796875 197.3046875 C-138.8396875 196.6446875 -139.4996875 195.9846875 -140.1796875 195.3046875 C-163.03045743 167.84535893 -170.76990465 134.85692009 -167.97314453 99.70898438 C-165.78763504 80.29141426 -158.02866273 61.96740307 -147.01171875 45.99609375 C-145.164234 43.36240878 -145.164234 43.36240878 -143.69921875 40.68359375 C-142.07165408 38.13555549 -140.39766674 36.57309138 -138.0546875 34.6796875 C-134.81631508 32.09148493 -134.81631508 32.09148493 -133.1796875 28.3046875 C-131.47265625 26.83984375 -131.47265625 26.83984375 -129.3671875 25.3671875 C-127.12779603 23.79163065 -125.15846598 22.28321082 -123.23046875 20.33203125 C-120.32331126 17.45809842 -117.00249977 15.35657378 -113.6171875 13.0859375 C-111.11944347 11.35921319 -111.11944347 11.35921319 -109.01171875 9.1171875 C-106.73046207 6.86025125 -105.29714264 6.88467915 -102.1796875 6.3046875 C-100.97269123 5.67400477 -99.78583372 5.00387754 -98.6171875 4.3046875 C-95.7677603 2.64683895 -94.24066136 1.98850273 -91.1796875 1.3046875 C-88.10159274 0.37331491 -85.04822484 -0.63173821 -81.9921875 -1.6328125 C-81.16009766 -1.89771484 -80.32800781 -2.16261719 -79.47070312 -2.43554688 C-78.67986328 -2.69529297 -77.88902344 -2.95503906 -77.07421875 -3.22265625 C-75.98911011 -3.57444946 -75.98911011 -3.57444946 -74.88208008 -3.93334961 C-72.97854645 -4.56952463 -72.97854645 -4.56952463 -72.1796875 -6.6953125 C-71.57382813 -6.68371094 -70.96796875 -6.67210938 -70.34375 -6.66015625 C-66.07558389 -6.61419138 -61.91827406 -6.6710274 -57.6796875 -7.1953125 C-37.81803645 -9.29903878 -18.70915626 -6.84982426 0 0 Z " fill="#D9E2F6" transform="translate(193.1796875,30.6953125)"/>
<path d="M0 0 C3.24425286 1.1789962 6.41325071 1.74280325 9.8203125 2.3046875 C11.1768289 3.61442748 12.50588888 4.95270892 13.8203125 6.3046875 C15.0531301 7.00261672 16.30656947 7.66445474 17.5703125 8.3046875 C45.3399151 23.26458874 65.03105865 49.32797481 74.7734375 79.00390625 C84.52725443 112.07185782 79.07925018 145.59312942 64.8203125 176.3046875 C64.1603125 176.3046875 63.5003125 176.3046875 62.8203125 176.3046875 C62.1603125 178.6146875 61.5003125 180.9246875 60.8203125 183.3046875 C60.1603125 183.3046875 59.5003125 183.3046875 58.8203125 183.3046875 C58.55347656 183.88089844 58.28664062 184.45710937 58.01171875 185.05078125 C56.39306321 188.11295911 54.29354956 190.68474494 52.16015625 193.40234375 C50.63945973 195.3676833 50.63945973 195.3676833 49.8203125 198.3046875 C48.1484375 199.91796875 48.1484375 199.91796875 46.0703125 201.6171875 C43.4679929 203.81057116 41.17087182 205.93897437 39.0703125 208.6171875 C36.8827969 211.23005336 35.80144549 211.94962705 32.8203125 213.3046875 C31.76256499 214.16017838 30.72204014 215.03720512 29.6953125 215.9296875 C26.8203125 218.3046875 26.8203125 218.3046875 24.8203125 218.3046875 C24.4903125 218.9646875 24.1603125 219.6246875 23.8203125 220.3046875 C10.91370323 229.44686907 -3.9027798 234.73816847 -19.1796875 238.3046875 C-20.64341797 238.67400391 -20.64341797 238.67400391 -22.13671875 239.05078125 C-38.24286819 242.47009555 -56.27163461 241.22669229 -72.1796875 237.3046875 C-72.87078613 237.13839844 -73.56188477 236.97210938 -74.27392578 236.80078125 C-85.58346891 233.99869211 -95.79788059 229.54106821 -106.1796875 224.3046875 C-106.1796875 223.6446875 -106.1796875 222.9846875 -106.1796875 222.3046875 C-107.00984375 222.0984375 -107.84 221.8921875 -108.6953125 221.6796875 C-113.14835137 219.92243449 -116.28489625 217.35742923 -119.9296875 214.3046875 C-120.62980957 213.7274292 -121.32993164 213.1501709 -122.05126953 212.55541992 C-127.76894403 207.78235317 -133.06182694 202.71907646 -138.1796875 197.3046875 C-138.8396875 196.6446875 -139.4996875 195.9846875 -140.1796875 195.3046875 C-163.03045743 167.84535893 -170.76990465 134.85692009 -167.97314453 99.70898438 C-165.78763504 80.29141426 -158.02866273 61.96740307 -147.01171875 45.99609375 C-145.164234 43.36240878 -145.164234 43.36240878 -143.69921875 40.68359375 C-142.07165408 38.13555549 -140.39766674 36.57309138 -138.0546875 34.6796875 C-134.81631508 32.09148493 -134.81631508 32.09148493 -133.1796875 28.3046875 C-131.47265625 26.83984375 -131.47265625 26.83984375 -129.3671875 25.3671875 C-127.12779603 23.79163065 -125.15846598 22.28321082 -123.23046875 20.33203125 C-120.32331126 17.45809842 -117.00249977 15.35657378 -113.6171875 13.0859375 C-111.11944347 11.35921319 -111.11944347 11.35921319 -109.01171875 9.1171875 C-106.73046207 6.86025125 -105.29714264 6.88467915 -102.1796875 6.3046875 C-100.97269123 5.67400477 -99.78583372 5.00387754 -98.6171875 4.3046875 C-95.7677603 2.64683895 -94.24066136 1.98850273 -91.1796875 1.3046875 C-88.10159274 0.37331491 -85.04822484 -0.63173821 -81.9921875 -1.6328125 C-81.16009766 -1.89771484 -80.32800781 -2.16261719 -79.47070312 -2.43554688 C-78.67986328 -2.69529297 -77.88902344 -2.95503906 -77.07421875 -3.22265625 C-75.98911011 -3.57444946 -75.98911011 -3.57444946 -74.88208008 -3.93334961 C-72.97854645 -4.56952463 -72.97854645 -4.56952463 -72.1796875 -6.6953125 C-71.57382813 -6.68371094 -70.96796875 -6.67210938 -70.34375 -6.66015625 C-66.07558389 -6.61419138 -61.91827406 -6.6710274 -57.6796875 -7.1953125 C-37.81803645 -9.29903878 -18.70915626 -6.84982426 0 0 Z M-55.1796875 23.3046875 C-55.1796875 24.2946875 -55.1796875 25.2846875 -55.1796875 26.3046875 C-60.1296875 26.3046875 -65.0796875 26.3046875 -70.1796875 26.3046875 C-70.1796875 27.2946875 -70.1796875 28.2846875 -70.1796875 29.3046875 C-73.1496875 29.3046875 -76.1196875 29.3046875 -79.1796875 29.3046875 C-79.1796875 30.2946875 -79.1796875 31.2846875 -79.1796875 32.3046875 C-81.1596875 32.3046875 -83.1396875 32.3046875 -85.1796875 32.3046875 C-85.1796875 33.2946875 -85.1796875 34.2846875 -85.1796875 35.3046875 C-87.1596875 35.3046875 -89.1396875 35.3046875 -91.1796875 35.3046875 C-91.1796875 36.2946875 -91.1796875 37.2846875 -91.1796875 38.3046875 C-92.1696875 38.3046875 -93.1596875 38.3046875 -94.1796875 38.3046875 C-94.1796875 39.2946875 -94.1796875 40.2846875 -94.1796875 41.3046875 C-96.1596875 41.3046875 -98.1396875 41.3046875 -100.1796875 41.3046875 C-100.1796875 42.2946875 -100.1796875 43.2846875 -100.1796875 44.3046875 C-101.1696875 44.3046875 -102.1596875 44.3046875 -103.1796875 44.3046875 C-103.1796875 45.2946875 -103.1796875 46.2846875 -103.1796875 47.3046875 C-104.1696875 47.3046875 -105.1596875 47.3046875 -106.1796875 47.3046875 C-106.1796875 48.2946875 -106.1796875 49.2846875 -106.1796875 50.3046875 C-107.1696875 50.3046875 -108.1596875 50.3046875 -109.1796875 50.3046875 C-109.1796875 51.2946875 -109.1796875 52.2846875 -109.1796875 53.3046875 C-110.1696875 53.3046875 -111.1596875 53.3046875 -112.1796875 53.3046875 C-112.1796875 54.2946875 -112.1796875 55.2846875 -112.1796875 56.3046875 C-113.1696875 56.3046875 -114.1596875 56.3046875 -115.1796875 56.3046875 C-115.1796875 57.2946875 -115.1796875 58.2846875 -115.1796875 59.3046875 C-116.1696875 59.3046875 -117.1596875 59.3046875 -118.1796875 59.3046875 C-118.1796875 61.2846875 -118.1796875 63.2646875 -118.1796875 65.3046875 C-119.1696875 65.3046875 -120.1596875 65.3046875 -121.1796875 65.3046875 C-121.1796875 66.2946875 -121.1796875 67.2846875 -121.1796875 68.3046875 C-122.1696875 68.3046875 -123.1596875 68.3046875 -124.1796875 68.3046875 C-124.1796875 70.2846875 -124.1796875 72.2646875 -124.1796875 74.3046875 C-125.1696875 74.3046875 -126.1596875 74.3046875 -127.1796875 74.3046875 C-127.1796875 76.2846875 -127.1796875 78.2646875 -127.1796875 80.3046875 C-128.1696875 80.3046875 -129.1596875 80.3046875 -130.1796875 80.3046875 C-130.1796875 83.2746875 -130.1796875 86.2446875 -130.1796875 89.3046875 C-131.1696875 89.3046875 -132.1596875 89.3046875 -133.1796875 89.3046875 C-133.1796875 92.2746875 -133.1796875 95.2446875 -133.1796875 98.3046875 C-134.1696875 98.3046875 -135.1596875 98.3046875 -136.1796875 98.3046875 C-136.1796875 110.1846875 -136.1796875 122.0646875 -136.1796875 134.3046875 C-135.1896875 134.3046875 -134.1996875 134.3046875 -133.1796875 134.3046875 C-133.1796875 138.2646875 -133.1796875 142.2246875 -133.1796875 146.3046875 C-132.1896875 146.3046875 -131.1996875 146.3046875 -130.1796875 146.3046875 C-130.1796875 149.2746875 -130.1796875 152.2446875 -130.1796875 155.3046875 C-129.1896875 155.3046875 -128.1996875 155.3046875 -127.1796875 155.3046875 C-127.1796875 157.2846875 -127.1796875 159.2646875 -127.1796875 161.3046875 C-126.1896875 161.3046875 -125.1996875 161.3046875 -124.1796875 161.3046875 C-124.1796875 162.2946875 -124.1796875 163.2846875 -124.1796875 164.3046875 C-123.1896875 164.3046875 -122.1996875 164.3046875 -121.1796875 164.3046875 C-121.1796875 166.2846875 -121.1796875 168.2646875 -121.1796875 170.3046875 C-120.1896875 170.3046875 -119.1996875 170.3046875 -118.1796875 170.3046875 C-118.1796875 171.2946875 -118.1796875 172.2846875 -118.1796875 173.3046875 C-117.1896875 173.3046875 -116.1996875 173.3046875 -115.1796875 173.3046875 C-115.1796875 175.2846875 -115.1796875 177.2646875 -115.1796875 179.3046875 C-114.1896875 179.3046875 -113.1996875 179.3046875 -112.1796875 179.3046875 C-112.1796875 180.2946875 -112.1796875 181.2846875 -112.1796875 182.3046875 C-111.1896875 182.3046875 -110.1996875 182.3046875 -109.1796875 182.3046875 C-109.1796875 183.2946875 -109.1796875 184.2846875 -109.1796875 185.3046875 C-108.1896875 185.3046875 -107.1996875 185.3046875 -106.1796875 185.3046875 C-106.1796875 186.2946875 -106.1796875 187.2846875 -106.1796875 188.3046875 C-104.1996875 188.3046875 -102.2196875 188.3046875 -100.1796875 188.3046875 C-100.1796875 189.2946875 -100.1796875 190.2846875 -100.1796875 191.3046875 C-99.1896875 191.3046875 -98.1996875 191.3046875 -97.1796875 191.3046875 C-97.1796875 192.2946875 -97.1796875 193.2846875 -97.1796875 194.3046875 C-96.1896875 194.3046875 -95.1996875 194.3046875 -94.1796875 194.3046875 C-94.1796875 195.2946875 -94.1796875 196.2846875 -94.1796875 197.3046875 C-92.1996875 197.3046875 -90.2196875 197.3046875 -88.1796875 197.3046875 C-88.1796875 198.2946875 -88.1796875 199.2846875 -88.1796875 200.3046875 C-86.1996875 200.3046875 -84.2196875 200.3046875 -82.1796875 200.3046875 C-82.1796875 201.2946875 -82.1796875 202.2846875 -82.1796875 203.3046875 C-79.2096875 203.3046875 -76.2396875 203.3046875 -73.1796875 203.3046875 C-73.1796875 204.2946875 -73.1796875 205.2846875 -73.1796875 206.3046875 C-70.2096875 206.3046875 -67.2396875 206.3046875 -64.1796875 206.3046875 C-64.1796875 207.2946875 -64.1796875 208.2846875 -64.1796875 209.3046875 C-50.3196875 209.3046875 -36.4596875 209.3046875 -22.1796875 209.3046875 C-22.1796875 208.3146875 -22.1796875 207.3246875 -22.1796875 206.3046875 C-19.2096875 206.3046875 -16.2396875 206.3046875 -13.1796875 206.3046875 C-13.1796875 205.3146875 -13.1796875 204.3246875 -13.1796875 203.3046875 C-10.2096875 203.3046875 -7.2396875 203.3046875 -4.1796875 203.3046875 C-4.1796875 202.3146875 -4.1796875 201.3246875 -4.1796875 200.3046875 C-2.1996875 200.3046875 -0.2196875 200.3046875 1.8203125 200.3046875 C1.8203125 199.3146875 1.8203125 198.3246875 1.8203125 197.3046875 C2.8103125 197.3046875 3.8003125 197.3046875 4.8203125 197.3046875 C4.8203125 196.3146875 4.8203125 195.3246875 4.8203125 194.3046875 C6.8003125 194.3046875 8.7803125 194.3046875 10.8203125 194.3046875 C10.8203125 193.3146875 10.8203125 192.3246875 10.8203125 191.3046875 C11.8103125 191.3046875 12.8003125 191.3046875 13.8203125 191.3046875 C13.8203125 190.3146875 13.8203125 189.3246875 13.8203125 188.3046875 C14.8103125 188.3046875 15.8003125 188.3046875 16.8203125 188.3046875 C16.8203125 187.3146875 16.8203125 186.3246875 16.8203125 185.3046875 C17.8103125 185.3046875 18.8003125 185.3046875 19.8203125 185.3046875 C19.8203125 184.3146875 19.8203125 183.3246875 19.8203125 182.3046875 C20.8103125 182.3046875 21.8003125 182.3046875 22.8203125 182.3046875 C22.8203125 181.3146875 22.8203125 180.3246875 22.8203125 179.3046875 C23.8103125 179.3046875 24.8003125 179.3046875 25.8203125 179.3046875 C25.8203125 178.3146875 25.8203125 177.3246875 25.8203125 176.3046875 C26.8103125 176.3046875 27.8003125 176.3046875 28.8203125 176.3046875 C28.8203125 175.3146875 28.8203125 174.3246875 28.8203125 173.3046875 C29.8103125 173.3046875 30.8003125 173.3046875 31.8203125 173.3046875 C31.8203125 172.3146875 31.8203125 171.3246875 31.8203125 170.3046875 C32.8103125 170.3046875 33.8003125 170.3046875 34.8203125 170.3046875 C34.8203125 168.3246875 34.8203125 166.3446875 34.8203125 164.3046875 C35.8103125 164.3046875 36.8003125 164.3046875 37.8203125 164.3046875 C37.8203125 162.3246875 37.8203125 160.3446875 37.8203125 158.3046875 C38.8103125 158.3046875 39.8003125 158.3046875 40.8203125 158.3046875 C40.8203125 156.3246875 40.8203125 154.3446875 40.8203125 152.3046875 C41.8103125 152.3046875 42.8003125 152.3046875 43.8203125 152.3046875 C43.8203125 149.3346875 43.8203125 146.3646875 43.8203125 143.3046875 C44.8103125 143.3046875 45.8003125 143.3046875 46.8203125 143.3046875 C46.8203125 140.3346875 46.8203125 137.3646875 46.8203125 134.3046875 C47.8103125 134.3046875 48.8003125 134.3046875 49.8203125 134.3046875 C49.8203125 123.4146875 49.8203125 112.5246875 49.8203125 101.3046875 C48.8303125 101.3046875 47.8403125 101.3046875 46.8203125 101.3046875 C46.8203125 97.3446875 46.8203125 93.3846875 46.8203125 89.3046875 C45.8303125 89.3046875 44.8403125 89.3046875 43.8203125 89.3046875 C43.8203125 86.3346875 43.8203125 83.3646875 43.8203125 80.3046875 C42.8303125 80.3046875 41.8403125 80.3046875 40.8203125 80.3046875 C40.8203125 78.3246875 40.8203125 76.3446875 40.8203125 74.3046875 C39.8303125 74.3046875 38.8403125 74.3046875 37.8203125 74.3046875 C37.8203125 72.3246875 37.8203125 70.3446875 37.8203125 68.3046875 C36.8303125 68.3046875 35.8403125 68.3046875 34.8203125 68.3046875 C34.8203125 67.3146875 34.8203125 66.3246875 34.8203125 65.3046875 C33.8303125 65.3046875 32.8403125 65.3046875 31.8203125 65.3046875 C31.8203125 63.3246875 31.8203125 61.3446875 31.8203125 59.3046875 C30.8303125 59.3046875 29.8403125 59.3046875 28.8203125 59.3046875 C28.8203125 58.3146875 28.8203125 57.3246875 28.8203125 56.3046875 C27.8303125 56.3046875 26.8403125 56.3046875 25.8203125 56.3046875 C25.8203125 55.3146875 25.8203125 54.3246875 25.8203125 53.3046875 C24.8303125 53.3046875 23.8403125 53.3046875 22.8203125 53.3046875 C22.8203125 52.3146875 22.8203125 51.3246875 22.8203125 50.3046875 C21.8303125 50.3046875 20.8403125 50.3046875 19.8203125 50.3046875 C19.8203125 49.3146875 19.8203125 48.3246875 19.8203125 47.3046875 C18.8303125 47.3046875 17.8403125 47.3046875 16.8203125 47.3046875 C16.8203125 46.3146875 16.8203125 45.3246875 16.8203125 44.3046875 C14.8403125 44.3046875 12.8603125 44.3046875 10.8203125 44.3046875 C10.8203125 43.3146875 10.8203125 42.3246875 10.8203125 41.3046875 C9.8303125 41.3046875 8.8403125 41.3046875 7.8203125 41.3046875 C7.8203125 40.3146875 7.8203125 39.3246875 7.8203125 38.3046875 C6.8303125 38.3046875 5.8403125 38.3046875 4.8203125 38.3046875 C4.8203125 37.3146875 4.8203125 36.3246875 4.8203125 35.3046875 C2.8403125 35.3046875 0.8603125 35.3046875 -1.1796875 35.3046875 C-1.1796875 34.3146875 -1.1796875 33.3246875 -1.1796875 32.3046875 C-3.1596875 32.3046875 -5.1396875 32.3046875 -7.1796875 32.3046875 C-7.1796875 31.3146875 -7.1796875 30.3246875 -7.1796875 29.3046875 C-10.1496875 29.3046875 -13.1196875 29.3046875 -16.1796875 29.3046875 C-16.1796875 28.3146875 -16.1796875 27.3246875 -16.1796875 26.3046875 C-22.1196875 26.3046875 -28.0596875 26.3046875 -34.1796875 26.3046875 C-34.1796875 25.3146875 -34.1796875 24.3246875 -34.1796875 23.3046875 C-41.1096875 23.3046875 -48.0396875 23.3046875 -55.1796875 23.3046875 Z " fill="#EF968F" transform="translate(193.1796875,30.6953125)"/>
<path d="M0 0 C6.48089272 0 12.13437258 0.19078423 18.4375 1.125 C19.29424316 1.25116699 20.15098633 1.37733398 21.03369141 1.50732422 C28.72811689 2.7527383 35.87617428 5.02414779 43.1796875 7.6953125 C46.42394036 8.8743087 49.59293821 9.43811575 53 10 C54.3565164 11.30973998 55.68557638 12.64802142 57 14 C58.2328176 14.69792922 59.48625697 15.35976724 60.75 16 C88.5196026 30.95990124 108.21074615 57.02328731 117.953125 86.69921875 C127.70694193 119.76717032 122.25893768 153.28844192 108 184 C107.34 184 106.68 184 106 184 C105.34 186.31 104.68 188.62 104 191 C103.34 191 102.68 191 102 191 C101.73316406 191.57621094 101.46632813 192.15242187 101.19140625 192.74609375 C99.57275071 195.80827161 97.47323706 198.38005744 95.33984375 201.09765625 C93.81914723 203.0629958 93.81914723 203.0629958 93 206 C91.328125 207.61328125 91.328125 207.61328125 89.25 209.3125 C86.6476804 211.50588366 84.35055932 213.63428687 82.25 216.3125 C80.0624844 218.92536586 78.98113299 219.64493955 76 221 C74.94225249 221.85549088 73.90172764 222.73251762 72.875 223.625 C70 226 70 226 68 226 C67.67 226.66 67.34 227.32 67 228 C50.26519168 239.85382256 29.13723309 247.2734851 8.625 247.0625 C4.355625 247.0315625 4.355625 247.0315625 0 247 C0 238.09 0 229.18 0 220 C5.94 220 11.88 220 18 220 C18 219.01 18 218.02 18 217 C18.99 217 19.98 217 21 217 C21 216.01 21 215.02 21 214 C23.97 214 26.94 214 30 214 C30 213.01 30 212.02 30 211 C32.97 211 35.94 211 39 211 C39 210.01 39 209.02 39 208 C40.98 208 42.96 208 45 208 C45 207.01 45 206.02 45 205 C45.99 205 46.98 205 48 205 C48 204.01 48 203.02 48 202 C49.98 202 51.96 202 54 202 C54 201.01 54 200.02 54 199 C54.99 199 55.98 199 57 199 C57 198.01 57 197.02 57 196 C57.99 196 58.98 196 60 196 C60 195.01 60 194.02 60 193 C60.99 193 61.98 193 63 193 C63 192.01 63 191.02 63 190 C63.99 190 64.98 190 66 190 C66 189.01 66 188.02 66 187 C66.99 187 67.98 187 69 187 C69 186.01 69 185.02 69 184 C69.99 184 70.98 184 72 184 C72 183.01 72 182.02 72 181 C72.99 181 73.98 181 75 181 C75 180.01 75 179.02 75 178 C75.99 178 76.98 178 78 178 C78 176.02 78 174.04 78 172 C78.99 172 79.98 172 81 172 C81 170.02 81 168.04 81 166 C81.99 166 82.98 166 84 166 C84 164.02 84 162.04 84 160 C84.99 160 85.98 160 87 160 C87 157.03 87 154.06 87 151 C87.99 151 88.98 151 90 151 C90 148.03 90 145.06 90 142 C90.99 142 91.98 142 93 142 C93 131.11 93 120.22 93 109 C92.01 109 91.02 109 90 109 C90 105.04 90 101.08 90 97 C89.01 97 88.02 97 87 97 C87 94.03 87 91.06 87 88 C86.01 88 85.02 88 84 88 C84 86.02 84 84.04 84 82 C83.01 82 82.02 82 81 82 C81 80.02 81 78.04 81 76 C80.01 76 79.02 76 78 76 C78 75.01 78 74.02 78 73 C77.01 73 76.02 73 75 73 C75 71.02 75 69.04 75 67 C74.01 67 73.02 67 72 67 C72 66.01 72 65.02 72 64 C71.01 64 70.02 64 69 64 C69 63.01 69 62.02 69 61 C68.01 61 67.02 61 66 61 C66 60.01 66 59.02 66 58 C65.01 58 64.02 58 63 58 C63 57.01 63 56.02 63 55 C62.01 55 61.02 55 60 55 C60 54.01 60 53.02 60 52 C58.02 52 56.04 52 54 52 C54 51.01 54 50.02 54 49 C53.01 49 52.02 49 51 49 C51 48.01 51 47.02 51 46 C50.01 46 49.02 46 48 46 C48 45.01 48 44.02 48 43 C46.02 43 44.04 43 42 43 C42 42.01 42 41.02 42 40 C40.02 40 38.04 40 36 40 C36 39.01 36 38.02 36 37 C33.03 37 30.06 37 27 37 C27 36.01 27 35.02 27 34 C21.06 34 15.12 34 9 34 C9 33.01 9 32.02 9 31 C6.03 31 3.06 31 0 31 C0 20.77 0 10.54 0 0 Z " fill="#6DCB71" transform="translate(150,23)"/>
<path d="M0 0 C0.99 0 1.98 0 3 0 C3 9.9 3 19.8 3 30 C3.99 30 4.98 30 6 30 C6 33.96 6 37.92 6 42 C6.99 42 7.98 42 9 42 C9 44.97 9 47.94 9 51 C9.99 51 10.98 51 12 51 C12 52.98 12 54.96 12 57 C12.99 57 13.98 57 15 57 C15 57.99 15 58.98 15 60 C15.99 60 16.98 60 18 60 C18 61.98 18 63.96 18 66 C18.99 66 19.98 66 21 66 C21 66.99 21 67.98 21 69 C21.99 69 22.98 69 24 69 C24 70.98 24 72.96 24 75 C24.99 75 25.98 75 27 75 C27 75.99 27 76.98 27 78 C27.99 78 28.98 78 30 78 C30 78.99 30 79.98 30 81 C30.99 81 31.98 81 33 81 C33 81.99 33 82.98 33 84 C34.98 84 36.96 84 39 84 C39 84.99 39 85.98 39 87 C39.99 87 40.98 87 42 87 C42 87.99 42 88.98 42 90 C42.99 90 43.98 90 45 90 C45 90.99 45 91.98 45 93 C46.98 93 48.96 93 51 93 C51 93.99 51 94.98 51 96 C52.98 96 54.96 96 57 96 C57 96.99 57 97.98 57 99 C59.97 99 62.94 99 66 99 C66 99.99 66 100.98 66 102 C68.97 102 71.94 102 75 102 C75 102.99 75 103.98 75 105 C87.87 105 100.74 105 114 105 C114 105.99 114 106.98 114 108 C108.06 108 102.12 108 96 108 C96 116.91 96 125.82 96 135 C99.96 135 103.92 135 108 135 C108 135.33 108 135.66 108 136 C94.0151976 136.34436627 80.63149662 136.36073782 67 133 C66.30890137 132.83371094 65.61780273 132.66742188 64.90576172 132.49609375 C53.59621859 129.69400461 43.38180691 125.23638071 33 120 C33 119.34 33 118.68 33 118 C32.16984375 117.79375 31.3396875 117.5875 30.484375 117.375 C26.03133613 115.61774699 22.89479125 113.05274173 19.25 110 C18.19981689 109.13411255 18.19981689 109.13411255 17.12841797 108.25073242 C11.41074347 103.47766567 6.11786056 98.41438896 1 93 C0.34 92.34 -0.32 91.68 -1 91 C-10.02205829 80.15836692 -16.57907986 67.95165273 -22 55 C-22.27392578 54.36400879 -22.54785156 53.72801758 -22.83007812 53.07275391 C-28.07517038 40.51542464 -27.38342646 28.4966114 -27 15 C-18.09 15 -9.18 15 0 15 C0 10.05 0 5.1 0 0 Z " fill="#2C4F99" transform="translate(54,135)"/>
<path d="M0 0 C8.58 0 17.16 0 26 0 C26 15.1890625 26 15.1890625 24.375 22.3125 C24.1996875 23.11155762 24.024375 23.91061523 23.84375 24.73388672 C21.2441826 35.97122901 16.84740875 46.55942731 12 57 C11.34 57 10.68 57 10 57 C9.34 59.31 8.68 61.62 8 64 C7.34 64 6.68 64 6 64 C5.73316406 64.57621094 5.46632813 65.15242188 5.19140625 65.74609375 C3.57275071 68.80827161 1.47323706 71.38005744 -0.66015625 74.09765625 C-2.18085277 76.0629958 -2.18085277 76.0629958 -3 79 C-4.671875 80.61328125 -4.671875 80.61328125 -6.75 82.3125 C-9.3523196 84.50588366 -11.64944068 86.63428687 -13.75 89.3125 C-15.9375156 91.92536586 -17.01886701 92.64493955 -20 94 C-21.05774751 94.85549088 -22.09827236 95.73251762 -23.125 96.625 C-26 99 -26 99 -28 99 C-28.33 99.66 -28.66 100.32 -29 101 C-45.73480832 112.85382256 -66.86276691 120.2734851 -87.375 120.0625 C-91.644375 120.0315625 -91.644375 120.0315625 -96 120 C-96 111.09 -96 102.18 -96 93 C-90.06 93 -84.12 93 -78 93 C-78 92.01 -78 91.02 -78 90 C-77.01 90 -76.02 90 -75 90 C-75 89.01 -75 88.02 -75 87 C-72.03 87 -69.06 87 -66 87 C-66 86.01 -66 85.02 -66 84 C-63.03 84 -60.06 84 -57 84 C-57 83.01 -57 82.02 -57 81 C-55.02 81 -53.04 81 -51 81 C-51 80.01 -51 79.02 -51 78 C-50.01 78 -49.02 78 -48 78 C-48 77.01 -48 76.02 -48 75 C-46.02 75 -44.04 75 -42 75 C-42 74.01 -42 73.02 -42 72 C-41.01 72 -40.02 72 -39 72 C-39 71.01 -39 70.02 -39 69 C-38.01 69 -37.02 69 -36 69 C-36 68.01 -36 67.02 -36 66 C-35.01 66 -34.02 66 -33 66 C-33 65.01 -33 64.02 -33 63 C-32.01 63 -31.02 63 -30 63 C-30 62.01 -30 61.02 -30 60 C-29.01 60 -28.02 60 -27 60 C-27 59.01 -27 58.02 -27 57 C-26.01 57 -25.02 57 -24 57 C-24 56.01 -24 55.02 -24 54 C-23.01 54 -22.02 54 -21 54 C-21 53.01 -21 52.02 -21 51 C-20.01 51 -19.02 51 -18 51 C-18 49.02 -18 47.04 -18 45 C-17.01 45 -16.02 45 -15 45 C-15 43.02 -15 41.04 -15 39 C-14.01 39 -13.02 39 -12 39 C-12 37.02 -12 35.04 -12 33 C-11.01 33 -10.02 33 -9 33 C-9 30.03 -9 27.06 -9 24 C-8.01 24 -7.02 24 -6 24 C-6 21.03 -6 18.06 -6 15 C-5.01 15 -4.02 15 -3 15 C-3 13.02 -3 11.04 -3 9 C-2.01 9 -1.02 9 0 9 C0 6.03 0 3.06 0 0 Z " fill="#E5C330" transform="translate(246,150)"/>
<path d="M0 0 C2.97 0 5.94 0 9 0 C9 0.99 9 1.98 9 3 C10.98 3 12.96 3 15 3 C15 3.99 15 4.98 15 6 C16.98 6 18.96 6 21 6 C21 6.99 21 7.98 21 9 C23.97 9 26.94 9 30 9 C30 9.99 30 10.98 30 12 C30.99 12 31.98 12 33 12 C33 12.99 33 13.98 33 15 C34.98 15 36.96 15 39 15 C39 15.99 39 16.98 39 18 C41.97 18 44.94 18 48 18 C48 18.99 48 19.98 48 21 C49.98 21 51.96 21 54 21 C54 21.99 54 22.98 54 24 C55.98 24 57.96 24 60 24 C60 24.99 60 25.98 60 27 C61.98 27 63.96 27 66 27 C66 27.99 66 28.98 66 30 C66.99 30 67.98 30 69 30 C69 30.99 69 31.98 69 33 C71.97 33 74.94 33 78 33 C78 33.99 78 34.98 78 36 C78.99 36 79.98 36 81 36 C81 39.96 81 43.92 81 48 C80.01 48 79.02 48 78 48 C78 48.99 78 49.98 78 51 C77.01 51 76.02 51 75 51 C75 51.99 75 52.98 75 54 C73.02 54 71.04 54 69 54 C69 54.99 69 55.98 69 57 C67.02 57 65.04 57 63 57 C63 57.99 63 58.98 63 60 C61.02 60 59.04 60 57 60 C57 60.99 57 61.98 57 63 C55.02 63 53.04 63 51 63 C51 63.99 51 64.98 51 66 C49.02 66 47.04 66 45 66 C45 66.99 45 67.98 45 69 C43.02 69 41.04 69 39 69 C39 69.99 39 70.98 39 72 C37.02 72 35.04 72 33 72 C33 72.99 33 73.98 33 75 C31.02 75 29.04 75 27 75 C27 75.99 27 76.98 27 78 C25.02 78 23.04 78 21 78 C21 78.99 21 79.98 21 81 C19.02 81 17.04 81 15 81 C15 81.99 15 82.98 15 84 C13.02 84 11.04 84 9 84 C9 84.99 9 85.98 9 87 C7.02 87 5.04 87 3 87 C3 86.01 3 85.02 3 84 C1.02 84 -0.96 84 -3 84 C-3 57.27 -3 30.54 -3 3 C-2.01 3 -1.02 3 0 3 C0 2.01 0 1.02 0 0 Z " fill="#0B2472" transform="translate(117,105)"/>
<path d="M0 0 C0.99 0 1.98 0 3 0 C3 3.96 3 7.92 3 12 C3.99 12 4.98 12 6 12 C6 14.97 6 17.94 6 21 C6.99 21 7.98 21 9 21 C9 22.98 9 24.96 9 27 C9.99 27 10.98 27 12 27 C12 27.99 12 28.98 12 30 C12.99 30 13.98 30 15 30 C15 31.98 15 33.96 15 36 C15.99 36 16.98 36 18 36 C18 36.99 18 37.98 18 39 C18.99 39 19.98 39 21 39 C21 40.98 21 42.96 21 45 C21.99 45 22.98 45 24 45 C24 45.99 24 46.98 24 48 C24.99 48 25.98 48 27 48 C27 48.99 27 49.98 27 51 C27.99 51 28.98 51 30 51 C30 51.99 30 52.98 30 54 C31.98 54 33.96 54 36 54 C36 54.99 36 55.98 36 57 C36.99 57 37.98 57 39 57 C39 57.99 39 58.98 39 60 C39.99 60 40.98 60 42 60 C42 60.99 42 61.98 42 63 C43.98 63 45.96 63 48 63 C48 64.98 48 66.96 48 69 C48.99 69 49.98 69 51 69 C51 69.99 51 70.98 51 72 C49.02 72 47.04 72 45 72 C45 72.99 45 73.98 45 75 C44.01 75 43.02 75 42 75 C42 75.99 42 76.98 42 78 C39.36 78.33 36.72 78.66 34 79 C33.67 80.65 33.34 82.3 33 84 C30.03 84 27.06 84 24 84 C24 83.01 24 82.02 24 81 C23.01 81 22.02 81 21 81 C21 80.01 21 79.02 21 78 C20.01 78 19.02 78 18 78 C18 77.01 18 76.02 18 75 C16.02 75 14.04 75 12 75 C12 74.01 12 73.02 12 72 C11.01 72 10.02 72 9 72 C9 71.01 9 70.02 9 69 C8.01 69 7.02 69 6 69 C6 68.01 6 67.02 6 66 C5.01 66 4.02 66 3 66 C3 65.01 3 64.02 3 63 C2.01 63 1.02 63 0 63 C0 61.02 0 59.04 0 57 C-0.99 57 -1.98 57 -3 57 C-3 56.01 -3 55.02 -3 54 C-3.99 54 -4.98 54 -6 54 C-6 53.01 -6 52.02 -6 51 C-6.99 51 -7.98 51 -9 51 C-9 49.02 -9 47.04 -9 45 C-9.99 45 -10.98 45 -12 45 C-12 43.02 -12 41.04 -12 39 C-11.01 39 -10.02 39 -9 39 C-9 37.02 -9 35.04 -9 33 C-7.02 33 -5.04 33 -3 33 C-3 32.01 -3 31.02 -3 30 C-1.02 30 0.96 30 3 30 C3 29.01 3 28.02 3 27 C2.01 27 1.02 27 0 27 C0 24.03 0 21.06 0 18 C0.99 18 1.98 18 3 18 C3 17.01 3 16.02 3 15 C2.01 15 1.02 15 0 15 C0 10.05 0 5.1 0 0 Z " fill="#558CE0" transform="translate(57,165)"/>
<path d="M0 0 C0.99 0 1.98 0 3 0 C3 14.85 3 29.7 3 45 C3.99 45 4.98 45 6 45 C6 45.99 6 46.98 6 48 C5.01 48 4.02 48 3 48 C3 50.97 3 53.94 3 57 C3.99 57 4.98 57 6 57 C6 57.99 6 58.98 6 60 C4.02 60 2.04 60 0 60 C0 60.99 0 61.98 0 63 C-1.98 63 -3.96 63 -6 63 C-6 64.98 -6 66.96 -6 69 C-6.99 69 -7.98 69 -9 69 C-9 69.99 -9 70.98 -9 72 C-10.65 72 -12.3 72 -14 72 C-23.96892647 52.01267347 -27.64162253 37.58511317 -27 15 C-18.09 15 -9.18 15 0 15 C0 10.05 0 5.1 0 0 Z " fill="#3258A3" transform="translate(54,135)"/>
<path d="M0 0 C2.65934851 0.36680669 3.74463471 0.69417056 5.49487305 2.7902832 C19.49838481 23.34921021 24.02309672 47.61619476 23 72 C14.42 72 5.84 72 -3 72 C-3 74.97 -3 77.94 -3 81 C-3.99 81 -4.98 81 -6 81 C-6 66.48 -6 51.96 -6 37 C-4.515 36.505 -4.515 36.505 -3 36 C-2.67 35.01 -2.34 34.02 -2 33 C-1.34 33 -0.68 33 0 33 C0 31.02 0 29.04 0 27 C-0.99 27 -1.98 27 -3 27 C-3 27.99 -3 28.98 -3 30 C-3.99 30 -4.98 30 -6 30 C-6 28.35 -6 26.7 -6 25 C-5.01 24.67 -4.02 24.34 -3 24 C-2.67 23.01 -2.34 22.02 -2 21 C-1.34 21 -0.68 21 0 21 C0 19.35 0 17.7 0 16 C0.99 15.67 1.98 15.34 3 15 C3.33 16.98 3.66 18.96 4 21 C4.66 21 5.32 21 6 21 C6 21.99 6 22.98 6 24 C6.99 24 7.98 24 9 24 C9 21.03 9 18.06 9 15 C8.01 15 7.02 15 6 15 C6 13.02 6 11.04 6 9 C5.01 9 4.02 9 3 9 C3 7.02 3 5.04 3 3 C2.01 3 1.02 3 0 3 C0 2.01 0 1.02 0 0 Z " fill="#3DAF44" transform="translate(249,78)"/>
<path d="M0 0 C2.97 0 5.94 0 9 0 C9 0.99 9 1.98 9 3 C10.98 3 12.96 3 15 3 C15 3.99 15 4.98 15 6 C16.98 6 18.96 6 21 6 C21 6.99 21 7.98 21 9 C23.97 9 26.94 9 30 9 C30 9.99 30 10.98 30 12 C30.99 12 31.98 12 33 12 C33 12.99 33 13.98 33 15 C34.98 15 36.96 15 39 15 C39 15.99 39 16.98 39 18 C41.97 18 44.94 18 48 18 C48 18.99 48 19.98 48 21 C49.98 21 51.96 21 54 21 C54 21.99 54 22.98 54 24 C55.98 24 57.96 24 60 24 C60 24.99 60 25.98 60 27 C61.98 27 63.96 27 66 27 C66 28.98 66 30.96 66 33 C48.18 33 30.36 33 12 33 C12 32.01 12 31.02 12 30 C7.05 30 2.1 30 -3 30 C-3 21.09 -3 12.18 -3 3 C-2.01 3 -1.02 3 0 3 C0 2.01 0 1.02 0 0 Z " fill="#738EC0" transform="translate(117,105)"/>
<path d="M0 0 C17.82 0 35.64 0 54 0 C54 1.98 54 3.96 54 6 C54.99 6 55.98 6 57 6 C57 6.99 57 7.98 57 9 C55.02 9 53.04 9 51 9 C51 9.99 51 10.98 51 12 C49.02 12 47.04 12 45 12 C45 12.99 45 13.98 45 15 C43.02 15 41.04 15 39 15 C39 15.99 39 16.98 39 18 C37.02 18 35.04 18 33 18 C33 18.99 33 19.98 33 21 C31.02 21 29.04 21 27 21 C27 21.99 27 22.98 27 24 C25.02 24 23.04 24 21 24 C21 24.99 21 25.98 21 27 C19.02 27 17.04 27 15 27 C15 27.99 15 28.98 15 30 C13.02 30 11.04 30 9 30 C9 30.99 9 31.98 9 33 C7.02 33 5.04 33 3 33 C3 32.01 3 31.02 3 30 C1.02 30 -0.96 30 -3 30 C-3 21.09 -3 12.18 -3 3 C-2.01 3 -1.02 3 0 3 C0 2.01 0 1.02 0 0 Z " fill="#1B3B89" transform="translate(117,159)"/>
<path d="M0 0 C0.33 0 0.66 0 1 0 C1 3.96 1 7.92 1 12 C0.01 12 -0.98 12 -2 12 C-2 12.99 -2 13.98 -2 15 C-2.99 15 -3.98 15 -5 15 C-5 16.98 -5 18.96 -5 21 C-5.99 21 -6.98 21 -8 21 C-8 26.94 -8 32.88 -8 39 C-6.02 39 -4.04 39 -2 39 C-2 39.99 -2 40.98 -2 42 C-0.02 42 1.96 42 4 42 C4 42.99 4 43.98 4 45 C5.98 45 7.96 45 10 45 C10 49.95 10 54.9 10 60 C9.01 60 8.02 60 7 60 C7 64.95 7 69.9 7 75 C-1.91 75 -10.82 75 -20 75 C-20 81.27 -20 87.54 -20 94 C-20.33 94 -20.66 94 -21 94 C-25.39026929 60.57730477 -19.8396913 27.76463686 0 0 Z " fill="#E03D2C" transform="translate(47,75)"/>
<path d="M0 0 C0.99 0 1.98 0 3 0 C3 6.93 3 13.86 3 21 C17.85 21 32.7 21 48 21 C48 20.01 48 19.02 48 18 C50.97 18 53.94 18 57 18 C57 18.99 57 19.98 57 21 C58.98 21 60.96 21 63 21 C63 21.99 63 22.98 63 24 C64.98 24 66.96 24 69 24 C69 25.98 69 27.96 69 30 C51.18 30 33.36 30 15 30 C15 29.01 15 28.02 15 27 C10.05 27 5.1 27 0 27 C0 18.09 0 9.18 0 0 Z " fill="#647DB2" transform="translate(114,108)"/>
<path d="M0 0 C1.47583955 0.0001591 2.95168467 0.00585225 4.42749023 0.01586914 C5.20293686 0.01728409 5.97838348 0.01869904 6.77732849 0.02015686 C9.26361893 0.02577194 11.74982059 0.03832693 14.23608398 0.05102539 C15.91772331 0.05603845 17.59936405 0.06060169 19.28100586 0.06469727 C23.41189965 0.07574626 27.54272674 0.09302094 31.67358398 0.11352539 C31.67358398 2.09352539 31.67358398 4.07352539 31.67358398 6.11352539 C32.66358398 6.11352539 33.65358398 6.11352539 34.67358398 6.11352539 C34.67358398 7.10352539 34.67358398 8.09352539 34.67358398 9.11352539 C32.69358398 9.11352539 30.71358398 9.11352539 28.67358398 9.11352539 C28.67358398 10.10352539 28.67358398 11.09352539 28.67358398 12.11352539 C26.69358398 12.11352539 24.71358398 12.11352539 22.67358398 12.11352539 C22.67358398 13.10352539 22.67358398 14.09352539 22.67358398 15.11352539 C20.69358398 15.11352539 18.71358398 15.11352539 16.67358398 15.11352539 C16.67358398 16.10352539 16.67358398 17.09352539 16.67358398 18.11352539 C14.69358398 18.11352539 12.71358398 18.11352539 10.67358398 18.11352539 C10.67358398 19.10352539 10.67358398 20.09352539 10.67358398 21.11352539 C8.69358398 21.11352539 6.71358398 21.11352539 4.67358398 21.11352539 C4.67358398 22.10352539 4.67358398 23.09352539 4.67358398 24.11352539 C2.69358398 24.11352539 0.71358398 24.11352539 -1.32641602 24.11352539 C-1.32641602 22.13352539 -1.32641602 20.15352539 -1.32641602 18.11352539 C-2.31641602 18.11352539 -3.30641602 18.11352539 -4.32641602 18.11352539 C-4.35325914 15.30096258 -4.37317789 12.48865298 -4.38891602 9.67602539 C-4.39729492 8.87358398 -4.40567383 8.07114258 -4.41430664 7.24438477 C-4.42293032 5.20057318 -4.37869751 3.15668637 -4.32641602 1.11352539 C-3.32641602 0.11352539 -3.32641602 0.11352539 0 0 Z " fill="#2D57A3" transform="translate(121.326416015625,167.886474609375)"/>
<path d="M0 0 C0.66 0 1.32 0 2 0 C5.57261698 11.46214615 5.23112749 22.05841316 5 34 C-3.58 34 -12.16 34 -21 34 C-21 28.06 -21 22.12 -21 16 C-15.06 16 -9.12 16 -3 16 C-3 15.01 -3 14.02 -3 13 C-2.01 13 -1.02 13 0 13 C0 8.71 0 4.42 0 0 Z " fill="#18A220" transform="translate(267,116)"/>
<path d="M0 0 C0.99 0 1.98 0 3 0 C3 3.96 3 7.92 3 12 C4.32 12.33 5.64 12.66 7 13 C5.68334336 14.67987227 4.34736973 16.34466005 3 18 C2.38125 18.81984375 2.38125 18.81984375 1.75 19.65625 C-0.85232644 21.65446494 -2.96315673 21.29151107 -6.1875 21.1875 C-7.27417969 21.16042969 -8.36085937 21.13335937 -9.48046875 21.10546875 C-10.72763672 21.05326172 -10.72763672 21.05326172 -12 21 C-12 21.99 -12 22.98 -12 24 C-13.98 24 -15.96 24 -18 24 C-18 24.99 -18 25.98 -18 27 C-19.98 27 -21.96 27 -24 27 C-24 27.99 -24 28.98 -24 30 C-25.98 30 -27.96 30 -30 30 C-30 30.99 -30 31.98 -30 33 C-31.98 33 -33.96 33 -36 33 C-36 33.99 -36 34.98 -36 36 C-39.96 36 -43.92 36 -48 36 C-48 35.01 -48 34.02 -48 33 C-46.02 33 -44.04 33 -42 33 C-42 32.01 -42 31.02 -42 30 C-40.02 30 -38.04 30 -36 30 C-36 29.01 -36 28.02 -36 27 C-34.02 27 -32.04 27 -30 27 C-30 26.01 -30 25.02 -30 24 C-28.02 24 -26.04 24 -24 24 C-24 23.01 -24 22.02 -24 21 C-22.02 21 -20.04 21 -18 21 C-18 20.01 -18 19.02 -18 18 C-16.02 18 -14.04 18 -12 18 C-12 17.01 -12 16.02 -12 15 C-10.02 15 -8.04 15 -6 15 C-6 14.01 -6 13.02 -6 12 C-5.01 12 -4.02 12 -3 12 C-3 11.01 -3 10.02 -3 9 C-2.01 9 -1.02 9 0 9 C0 6.03 0 3.06 0 0 Z " fill="#BCCAE8" transform="translate(198,144)"/>
<path d="M0 0 C0.495 1.485 0.495 1.485 1 3 C0.01 3 -0.98 3 -2 3 C-2 3.99 -2 4.98 -2 6 C-2.99 6 -3.98 6 -5 6 C-5 6.99 -5 7.98 -5 9 C-8.96 9 -12.92 9 -17 9 C-17 10.98 -17 12.96 -17 15 C-18.98 15 -20.96 15 -23 15 C-23 15.99 -23 16.98 -23 18 C-23.99 18 -24.98 18 -26 18 C-26 18.99 -26 19.98 -26 21 C-28.97 21 -31.94 21 -35 21 C-35 21.99 -35 22.98 -35 24 C-35.99 24 -36.98 24 -38 24 C-38 25.98 -38 27.96 -38 30 C-38.99 30 -39.98 30 -41 30 C-41 30.99 -41 31.98 -41 33 C-41.99 33 -42.98 33 -44 33 C-44 34.98 -44 36.96 -44 39 C-46.97 39 -49.94 39 -53 39 C-53 39.99 -53 40.98 -53 42 C-53.99 42 -54.98 42 -56 42 C-56 42.99 -56 43.98 -56 45 C-56.99 44.67 -57.98 44.34 -59 44 C-56.7849826 39.43152661 -53.61189303 36.78105626 -49.7421875 33.6484375 C-47.74357328 32.01699318 -47.74357328 32.01699318 -47 29 C-45.29296875 27.53515625 -45.29296875 27.53515625 -43.1875 26.0625 C-40.94810853 24.48694315 -38.97877848 22.97852332 -37.05078125 21.02734375 C-34.14362376 18.15341092 -30.82281227 16.05188628 -27.4375 13.78125 C-24.93975597 12.05452569 -24.93975597 12.05452569 -22.83203125 9.8125 C-20.55077457 7.55556375 -19.11745514 7.57999165 -16 7 C-14.79300373 6.36931727 -13.60614622 5.69919004 -12.4375 5 C-9.65787175 3.38276175 -8.02635148 2.6052703 -5 2 C-3.3255761 1.3530635 -1.65697379 0.69040574 0 0 Z " fill="#BB645F" transform="translate(107,30)"/>
<path d="M0 0 C21.78 0 43.56 0 66 0 C66 0.99 66 1.98 66 3 C66.99 3 67.98 3 69 3 C69 3.99 69 4.98 69 6 C67.02 6 65.04 6 63 6 C63 6.99 63 7.98 63 9 C60.03 9 57.06 9 54 9 C54 7.02 54 5.04 54 3 C36.18 3 18.36 3 0 3 C0 2.01 0 1.02 0 0 Z " fill="#17317B" transform="translate(117,156)"/>
<path d="M0 0 C0.99 0 1.98 0 3 0 C3 7.92 3 15.84 3 24 C7.95 24 12.9 24 18 24 C18 23.01 18 22.02 18 21 C23.94 21 29.88 21 36 21 C36 20.01 36 19.02 36 18 C38.97 18 41.94 18 45 18 C45 17.01 45 16.02 45 15 C46.98 15 48.96 15 51 15 C51 14.01 51 13.02 51 12 C52.98 12 54.96 12 57 12 C57 11.01 57 10.02 57 9 C58.98 9 60.96 9 63 9 C59.69497224 12.80501914 55.87684203 14.84745069 51.375 16.9375 C50.63660889 17.28304932 49.89821777 17.62859863 49.13745117 17.98461914 C36.28560248 23.77991475 22.72196485 27.20749882 8.625 27.0625 C4.355625 27.0315625 4.355625 27.0315625 0 27 C0 18.09 0 9.18 0 0 Z " fill="#C8A218" transform="translate(150,243)"/>
<path d="M0 0 C15.84 0 31.68 0 48 0 C48 0.99 48 1.98 48 3 C48.99 3 49.98 3 51 3 C51 3.99 51 4.98 51 6 C49.02 6 47.04 6 45 6 C45 6.99 45 7.98 45 9 C42.03 9 39.06 9 36 9 C36 7.02 36 5.04 36 3 C24.12 3.33 12.24 3.66 0 4 C0 2.68 0 1.36 0 0 Z " fill="#274790" transform="translate(117,165)"/>
<path d="M0 0 C3.96 0 7.92 0 12 0 C12 0.99 12 1.98 12 3 C10.02 3 8.04 3 6 3 C6 3.99 6 4.98 6 6 C4.02 6 2.04 6 0 6 C0 6.99 0 7.98 0 9 C-1.98 9 -3.96 9 -6 9 C-6 9.99 -6 10.98 -6 12 C-7.98 12 -9.96 12 -12 12 C-12 12.99 -12 13.98 -12 15 C-15.96 15 -19.92 15 -24 15 C-24 14.01 -24 13.02 -24 12 C-22.02 12 -20.04 12 -18 12 C-18 11.01 -18 10.02 -18 9 C-16.02 9 -14.04 9 -12 9 C-12 8.01 -12 7.02 -12 6 C-10.02 6 -8.04 6 -6 6 C-6 5.01 -6 4.02 -6 3 C-4.02 3 -2.04 3 0 3 C0 2.01 0 1.02 0 0 Z " fill="#C7CBD2" transform="translate(174,165)"/>
<path d="M0 0 C1.98 0 3.96 0 6 0 C6 1.98 6 3.96 6 6 C4.02 6 2.04 6 0 6 C0 6.99 0 7.98 0 9 C-1.98 9 -3.96 9 -6 9 C-6 9.99 -6 10.98 -6 12 C-8.97 12 -11.94 12 -15 12 C-15 12.99 -15 13.98 -15 15 C-18.96 15 -22.92 15 -27 15 C-27 13.02 -27 11.04 -27 9 C-26.01 9 -25.02 9 -24 9 C-24 9.99 -24 10.98 -24 12 C-22.02 12 -20.04 12 -18 12 C-18 11.01 -18 10.02 -18 9 C-16.02 9 -14.04 9 -12 9 C-12 8.01 -12 7.02 -12 6 C-10.02 6 -8.04 6 -6 6 C-6 5.01 -6 4.02 -6 3 C-4.02 3 -2.04 3 0 3 C0 2.01 0 1.02 0 0 Z " fill="#C0C5C8" transform="translate(144,180)"/>
<path d="M0 0 C1.98 0 3.96 0 6 0 C6 0.99 6 1.98 6 3 C6.99 3 7.98 3 9 3 C9 3.99 9 4.98 9 6 C9.99 6 10.98 6 12 6 C12 5.01 12 4.02 12 3 C12.99 3 13.98 3 15 3 C15 3.99 15 4.98 15 6 C15.99 6 16.98 6 18 6 C18 7.98 18 9.96 18 12 C19.98 12 21.96 12 24 12 C24 13.98 24 15.96 24 18 C24.99 18 25.98 18 27 18 C27 19.98 27 21.96 27 24 C26.01 24 25.02 24 24 24 C24 23.01 24 22.02 24 21 C23.01 21 22.02 21 21 21 C21 20.01 21 19.02 21 18 C20.01 18 19.02 18 18 18 C18 17.01 18 16.02 18 15 C17.01 15 16.02 15 15 15 C15 14.01 15 13.02 15 12 C14.01 12 13.02 12 12 12 C12 11.01 12 10.02 12 9 C10.02 9 8.04 9 6 9 C6 8.01 6 7.02 6 6 C5.01 6 4.02 6 3 6 C3 5.01 3 4.02 3 3 C2.01 3 1.02 3 0 3 C0 2.01 0 1.02 0 0 Z " fill="#8AC298" transform="translate(198,66)"/>
<path d="M0 0 C1.32 0 2.64 0 4 0 C4 0.99 4 1.98 4 3 C4.99 3 5.98 3 7 3 C7 4.98 7 6.96 7 9 C7.99 9 8.98 9 10 9 C10 9.99 10 10.98 10 12 C10.99 12 11.98 12 13 12 C13 12.99 13 13.98 13 15 C13.99 15 14.98 15 16 15 C16 16.98 16 18.96 16 21 C16.99 21 17.98 21 19 21 C19 21.99 19 22.98 19 24 C19.99 24 20.98 24 22 24 C22 24.99 22 25.98 22 27 C22.99 27 23.98 27 25 27 C25 27.99 25 28.98 25 30 C25.99 30 26.98 30 28 30 C28 30.99 28 31.98 28 33 C29.98 33 31.96 33 34 33 C34 33.99 34 34.98 34 36 C34.99 36 35.98 36 37 36 C37 36.99 37 37.98 37 39 C37.99 39 38.98 39 40 39 C40 39.99 40 40.98 40 42 C40.99 42 41.98 42 43 42 C42.67 42.99 42.34 43.98 42 45 C35.12801886 40.00541577 28.57793215 34.9122814 22.33203125 29.140625 C19.46144542 26.50564839 16.48967648 24.00146089 13.49609375 21.5078125 C12 20 12 20 11 17 C10.00299848 15.99701048 9.00230149 14.9976932 8 14 C6.56831736 12.00440413 5.17543709 9.98066435 3.8125 7.9375 C3.09707031 6.87402344 2.38164063 5.81054688 1.64453125 4.71484375 C0 2 0 2 0 0 Z " fill="#081E54" transform="translate(41,207)"/>
<path d="M0 0 C-0.99 0.33 -1.98 0.66 -3 1 C-3 1.99 -3 2.98 -3 4 C-5.92824652 4.97608217 -7.95613276 5.08226668 -11 5 C-11.33 5.66 -11.66 6.32 -12 7 C-20.415 7.495 -20.415 7.495 -29 8 C-29.33 8.66 -29.66 9.32 -30 10 C-31.98 10 -33.96 10 -36 10 C-36.33 8.68 -36.66 7.36 -37 6 C-36.28972656 5.80664062 -35.57945313 5.61328125 -34.84765625 5.4140625 C-33.92855469 5.15367188 -33.00945312 4.89328125 -32.0625 4.625 C-30.68771484 4.24214844 -30.68771484 4.24214844 -29.28515625 3.8515625 C-26.83254913 3.23339896 -26.83254913 3.23339896 -26 1 C-25.09121094 1.01740234 -25.09121094 1.01740234 -24.1640625 1.03515625 C-18.80178111 1.0929039 -13.60099614 0.81927559 -8.2734375 0.22265625 C-5.50765702 -0.04821916 -2.77672595 -0.07307174 0 0 Z " fill="#DD6153" transform="translate(147,23)"/>
<path d="M0 0 C0.99 0 1.98 0 3 0 C3 8.91 3 17.82 3 27 C2.01 27 1.02 27 0 27 C0 33.27 0 39.54 0 46 C-0.33 46 -0.66 46 -1 46 C-2.00041883 38.50086042 -2.1833251 31.12323651 -2.1875 23.5625 C-2.19974609 22.39912109 -2.21199219 21.23574219 -2.22460938 20.03710938 C-2.23630328 13.11041884 -1.69370147 6.72394684 0 0 Z " fill="#48110C" transform="translate(27,123)"/>
<path d="M0 0 C4.29 0 8.58 0 13 0 C12.67 0.99 12.34 1.98 12 3 C14.97 3 17.94 3 21 3 C21 3.99 21 4.98 21 6 C28.92 6 36.84 6 45 6 C45 6.99 45 7.98 45 9 C49.95 9 54.9 9 60 9 C60 9.33 60 9.66 60 10 C39.61306833 10.50201435 21.28960067 8.88427444 2 2 C1.34 1.34 0.68 0.68 0 0 Z " fill="#0F2866" transform="translate(102,261)"/>
<path d="M0 0 C0.99 0 1.98 0 3 0 C3 15.84 3 31.68 3 48 C2.01 48 1.02 48 0 48 C0 32.16 0 16.32 0 0 Z " fill="#919ED0" transform="translate(111,135)"/>
<path d="M0 0 C0.99 0 1.98 0 3 0 C3 1.98 3 3.96 3 6 C2.01 6 1.02 6 0 6 C0 6.99 0 7.98 0 9 C-0.99 9 -1.98 9 -3 9 C-3 9.99 -3 10.98 -3 12 C-3.99 12 -4.98 12 -6 12 C-6 12.99 -6 13.98 -6 15 C-6.99 15 -7.98 15 -9 15 C-9 15.99 -9 16.98 -9 18 C-9.99 18 -10.98 18 -12 18 C-12 18.99 -12 19.98 -12 21 C-12.99 21 -13.98 21 -15 21 C-15 21.99 -15 22.98 -15 24 C-16.98 24 -18.96 24 -21 24 C-21 23.01 -21 22.02 -21 21 C-20.01 21 -19.02 21 -18 21 C-18 20.01 -18 19.02 -18 18 C-17.01 18 -16.02 18 -15 18 C-15 17.01 -15 16.02 -15 15 C-14.01 15 -13.02 15 -12 15 C-12 14.01 -12 13.02 -12 12 C-11.01 12 -10.02 12 -9 12 C-9 11.01 -9 10.02 -9 9 C-8.01 9 -7.02 9 -6 9 C-6 8.01 -6 7.02 -6 6 C-5.01 6 -4.02 6 -3 6 C-3 5.01 -3 4.02 -3 3 C-2.01 3 -1.02 3 0 3 C0 2.01 0 1.02 0 0 Z " fill="#96978A" transform="translate(225,201)"/>
<path d="M0 0 C1.98 0 3.96 0 6 0 C6 0.99 6 1.98 6 3 C7.98 3 9.96 3 12 3 C12 4.98 12 6.96 12 9 C3.09 9 -5.82 9 -15 9 C-15 8.01 -15 7.02 -15 6 C-10.05 6 -5.1 6 0 6 C0 4.02 0 2.04 0 0 Z " fill="#6073A8" transform="translate(171,129)"/>
<path d="M0 0 C0.99 0 1.98 0 3 0 C3 3.96 3 7.92 3 12 C3.99 12 4.98 12 6 12 C6 14.97 6 17.94 6 21 C6.99 21 7.98 21 9 21 C9 22.98 9 24.96 9 27 C8.01 27 7.02 27 6 27 C6 26.01 6 25.02 6 24 C5.566875 24.495 5.13375 24.99 4.6875 25.5 C3 27 3 27 0 27 C0 24.03 0 21.06 0 18 C0.99 18 1.98 18 3 18 C3 17.01 3 16.02 3 15 C2.01 15 1.02 15 0 15 C0 10.05 0 5.1 0 0 Z " fill="#5272B0" transform="translate(57,165)"/>
<path d="M0 0 C6.83557877 3.41778938 13.15587773 7.70825039 19.375 12.125 C20.26687012 12.75426392 20.26687012 12.75426392 21.17675781 13.39624023 C24.39720857 15.70928378 27.29043241 18.10356568 30 21 C28.02 21 26.04 21 24 21 C24 20.01 24 19.02 24 18 C22.02 18 20.04 18 18 18 C18 17.01 18 16.02 18 15 C17.01 15 16.02 15 15 15 C15 14.01 15 13.02 15 12 C13.02 12 11.04 12 9 12 C9 11.01 9 10.02 9 9 C7.02 9 5.04 9 3 9 C3 8.01 3 7.02 3 6 C2.01 6 1.02 6 0 6 C0 4.02 0 2.04 0 0 Z " fill="#3A8540" transform="translate(201,33)"/>
<path d="M0 0 C1.65 0 3.3 0 5 0 C5 2.97 5 5.94 5 9 C5.99 9 6.98 9 8 9 C8 12.96 8 16.92 8 21 C8.99 21 9.98 21 11 21 C11 22.98 11 24.96 11 27 C11.99 27 12.98 27 14 27 C14 27.99 14 28.98 14 30 C12.1875 29.86328125 12.1875 29.86328125 10 29 C5.00666238 20.94824309 0 9.57524456 0 0 Z " fill="#374B53" transform="translate(28,174)"/>
<path d="M0 0 C1.98 0 3.96 0 6 0 C2.69492815 3.8050699 -1.12319554 5.84726651 -5.625 7.9375 C-6.36121582 8.28232422 -7.09743164 8.62714844 -7.85595703 8.98242188 C-16.29570145 12.79036053 -26.64334794 17 -36 17 C-36 16.34 -36 15.68 -36 15 C-34.02 15 -32.04 15 -30 15 C-30 14.01 -30 13.02 -30 12 C-27.03 12 -24.06 12 -21 12 C-21 11.01 -21 10.02 -21 9 C-18.03 9 -15.06 9 -12 9 C-12 8.01 -12 7.02 -12 6 C-10.02 6 -8.04 6 -6 6 C-6 5.01 -6 4.02 -6 3 C-4.02 3 -2.04 3 0 3 C0 2.01 0 1.02 0 0 Z " fill="#B3871C" transform="translate(207,252)"/>
<path d="M0 0 C0.99 0 1.98 0 3 0 C4.09999014 12.1168145 3.80765706 23.87271858 3 36 C2.01 36 1.02 36 0 36 C0 24.12 0 12.24 0 0 Z " fill="#BAC7F1" transform="translate(57,129)"/>
<path d="M0 0 C11.88 0 23.76 0 36 0 C36 0.99 36 1.98 36 3 C24.12 3 12.24 3 0 3 C0 2.01 0 1.02 0 0 Z " fill="#4E568F" transform="translate(132,240)"/>
<path d="M0 0 C0.99 0 1.98 0 3 0 C3 0.99 3 1.98 3 3 C4.98 3 6.96 3 9 3 C9 3.99 9 4.98 9 6 C7.02 6 5.04 6 3 6 C3 6.99 3 7.98 3 9 C1.02 9 -0.96 9 -3 9 C-3 9.99 -3 10.98 -3 12 C-3.99 12 -4.98 12 -6 12 C-6 12.99 -6 13.98 -6 15 C-7.98 15 -9.96 15 -12 15 C-12 14.01 -12 13.02 -12 12 C-11.01 12 -10.02 12 -9 12 C-9 10.02 -9 8.04 -9 6 C-6.03 6 -3.06 6 0 6 C0 4.02 0 2.04 0 0 Z " fill="#D8A5AA" transform="translate(105,57)"/>
<path d="M0 0 C0.66 0 1.32 0 2 0 C3.00058775 15.48131603 -0.50357982 31.90232628 -7 46 C-7.99 46.495 -7.99 46.495 -9 47 C-9 44.36 -9 41.72 -9 39 C-8.01 39 -7.02 39 -6 39 C-6 36.03 -6 33.06 -6 30 C-5.01 30 -4.02 30 -3 30 C-3 26.04 -3 22.08 -3 18 C-2.01 18 -1.02 18 0 18 C0 12.06 0 6.12 0 0 Z " fill="#B69B24" transform="translate(270,150)"/>
<path d="M0 0 C2.31 0 4.62 0 7 0 C6.625 2.9375 6.625 2.9375 6 6 C5.01 6.495 5.01 6.495 4 7 C3.34444881 9.52733235 3.34444881 9.52733235 3 12 C4.98 12 6.96 12 9 12 C9 12.99 9 13.98 9 15 C7.18755015 15.16721119 5.37503867 15.33375441 3.5625 15.5 C2.55316406 15.5928125 1.54382813 15.685625 0.50390625 15.78125 C-2 16 -2 16 -3 16 C-3 13.69 -3 11.38 -3 9 C-2.01 9 -1.02 9 0 9 C0 6.03 0 3.06 0 0 Z " fill="#CBD4F3" transform="translate(63,111)"/>
<path d="M0 0 C0 0.99 0 1.98 0 3 C-0.99 3 -1.98 3 -3 3 C-3 3.99 -3 4.98 -3 6 C-3.99 6 -4.98 6 -6 6 C-6 7.98 -6 9.96 -6 12 C-8.97 12 -11.94 12 -15 12 C-15 12.99 -15 13.98 -15 15 C-15.99 15 -16.98 15 -18 15 C-18 15.99 -18 16.98 -18 18 C-18.99 17.67 -19.98 17.34 -21 17 C-18.7849826 12.43152661 -15.61189303 9.78105626 -11.7421875 6.6484375 C-9.74357328 5.01699318 -9.74357328 5.01699318 -9 2 C-5.5647952 -0.29013653 -4.014669 -0.17842973 0 0 Z " fill="#E29793" transform="translate(69,57)"/>
<path d="M0 0 C0.99 0 1.98 0 3 0 C3.3125 2.75 3.3125 2.75 3 6 C2.1853125 6.5465625 1.370625 7.093125 0.53125 7.65625 C-2.66303521 10.61392149 -2.63373226 12.20360115 -2.79492188 16.39453125 C-2.80072266 17.17183594 -2.80652344 17.94914062 -2.8125 18.75 C-2.83763672 19.54277344 -2.86277344 20.33554688 -2.88867188 21.15234375 C-2.9473673 23.10103195 -2.9765898 25.05056859 -3 27 C-3.99 27 -4.98 27 -6 27 C-6 20.07 -6 13.14 -6 6 C-5.01 6 -4.02 6 -3 6 C-3 5.01 -3 4.02 -3 3 C-2.01 3 -1.02 3 0 3 C0 2.01 0 1.02 0 0 Z " fill="#4EBA53" transform="translate(246,105)"/>
<path d="M0 0 C0.99 0 1.98 0 3 0 C3 1.98 3 3.96 3 6 C3.99 6 4.98 6 6 6 C6 7.98 6 9.96 6 12 C6.99 12 7.98 12 9 12 C9 14.97 9 17.94 9 21 C8.01 21 7.02 21 6 21 C6 20.01 6 19.02 6 18 C5.01 18.33 4.02 18.66 3 19 C3 16.69 3 14.38 3 12 C2.01 12.33 1.02 12.66 0 13 C0 8.71 0 4.42 0 0 Z " fill="#60C762" transform="translate(249,81)"/>
<path d="M0 0 C0.33 0 0.66 0 1 0 C1 3.96 1 7.92 1 12 C0.01 12 -0.98 12 -2 12 C-2 12.99 -2 13.98 -2 15 C-2.99 15 -3.98 15 -5 15 C-5 16.98 -5 18.96 -5 21 C-6.98 21 -8.96 21 -11 21 C-10.32508713 16.85707328 -8.15299648 13.50059399 -6.0625 9.9375 C-5.70220703 9.31294922 -5.34191406 8.68839844 -4.97070312 8.04492188 C-3.38411509 5.30710791 -1.75576028 2.63364041 0 0 Z " fill="#CA6B62" transform="translate(47,75)"/>
<path d="M0 0 C0.99 0 1.98 0 3 0 C3 7.92 3 15.84 3 24 C3.99 24 4.98 24 6 24 C6 24.99 6 25.98 6 27 C4.02 27 2.04 27 0 27 C0 18.09 0 9.18 0 0 Z " fill="#1F3378" transform="translate(114,162)"/>
<path d="M0 0 C0.99 0 1.98 0 3 0 C3 9.9 3 19.8 3 30 C2.01 30 1.02 30 0 30 C0 20.1 0 10.2 0 0 Z " fill="#596695" transform="translate(54,135)"/>
<path d="M0 0 C0.99 0 1.98 0 3 0 C3 8.91 3 17.82 3 27 C2.01 27 1.02 27 0 27 C0 18.09 0 9.18 0 0 Z " fill="#3E495D" transform="translate(147,243)"/>
<path d="M0 0 C0.99 0 1.98 0 3 0 C3 8.91 3 17.82 3 27 C2.01 27 1.02 27 0 27 C0 18.09 0 9.18 0 0 Z " fill="#091A69" transform="translate(114,135)"/>
<path d="M0 0 C0.99 0 1.98 0 3 0 C3 8.91 3 17.82 3 27 C2.01 27 1.02 27 0 27 C0 18.09 0 9.18 0 0 Z " fill="#667AAB" transform="translate(114,108)"/>
<path d="M0 0 C0.99 0 1.98 0 3 0 C3 6.93 3 13.86 3 21 C0.03 21 -2.94 21 -6 21 C-6 20.01 -6 19.02 -6 18 C-4.02 18 -2.04 18 0 18 C0 12.06 0 6.12 0 0 Z " fill="#B7C1E4" transform="translate(111,114)"/>
<path d="M0 0 C0.99 0 1.98 0 3 0 C3 8.91 3 17.82 3 27 C2.01 27 1.02 27 0 27 C0 18.09 0 9.18 0 0 Z " fill="#BD8664" transform="translate(147,27)"/>
<path d="M0 0 C8.58 0 17.16 0 26 0 C26 0.99 26 1.98 26 3 C17.42 3 8.84 3 0 3 C0 2.01 0 1.02 0 0 Z " fill="#308F0D" transform="translate(246,147)"/>
<path d="M0 0 C0.66 0 1.32 0 2 0 C5.11367639 10.49012402 5.32878217 20.15018837 5 31 C4.34 31 3.68 31 3 31 C3 25.06 3 19.12 3 13 C2.01 13 1.02 13 0 13 C0 8.71 0 4.42 0 0 Z " fill="#1D831E" transform="translate(267,116)"/>
<path d="M0 0 C1.98 1.65 3.96 3.3 6 5 C5.01 5.33 4.02 5.66 3 6 C3.226875 6.598125 3.45375 7.19625 3.6875 7.8125 C4 10 4 10 2.8125 11.8125 C1 13 1 13 -1.1875 12.6875 C-1.785625 12.460625 -2.38375 12.23375 -3 12 C-3 11.01 -3 10.02 -3 9 C-3.99 9 -4.98 9 -6 9 C-6 8.01 -6 7.02 -6 6 C-5.01 6 -4.02 6 -3 6 C-3 5.01 -3 4.02 -3 3 C-2.01 3 -1.02 3 0 3 C0 2.01 0 1.02 0 0 Z " fill="#89EA8D" transform="translate(237,60)"/>
<path d="M0 0 C3.63 0 7.26 0 11 0 C11 0.99 11 1.98 11 3 C8.03 3 5.06 3 2 3 C2 3.99 2 4.98 2 6 C1.195625 6.12375 0.39125 6.2475 -0.4375 6.375 C-1.7059375 6.684375 -1.7059375 6.684375 -3 7 C-3.33 7.66 -3.66 8.32 -4 9 C-5.98 9 -7.96 9 -10 9 C-10.33 7.68 -10.66 6.36 -11 5 C-10.28972656 4.80664062 -9.57945313 4.61328125 -8.84765625 4.4140625 C-7.92855469 4.15367188 -7.00945312 3.89328125 -6.0625 3.625 C-4.68771484 3.24214844 -4.68771484 3.24214844 -3.28515625 2.8515625 C-0.83254913 2.23339896 -0.83254913 2.23339896 0 0 Z " fill="#903333" transform="translate(121,24)"/>
<path d="M0 0 C3.96 0 7.92 0 12 0 C12 0.99 12 1.98 12 3 C10.02 3 8.04 3 6 3 C6 3.99 6 4.98 6 6 C2.04 6 -1.92 6 -6 6 C-6 5.01 -6 4.02 -6 3 C-4.02 3 -2.04 3 0 3 C0 2.01 0 1.02 0 0 Z " fill="#BBC1CF" transform="translate(174,165)"/>
<path d="M0 0 C7.92 0 15.84 0 24 0 C24 0.99 24 1.98 24 3 C16.08 3 8.16 3 0 3 C0 2.01 0 1.02 0 0 Z " fill="#C0231E" transform="translate(30,147)"/>
<path d="M0 0 C0.99 0 1.98 0 3 0 C3 7.92 3 15.84 3 24 C2.01 24 1.02 24 0 24 C0 16.08 0 8.16 0 0 Z " fill="#42805D" transform="translate(243,135)"/>
<path d="M0 0 C4.95 0 9.9 0 15 0 C15 0.99 15 1.98 15 3 C19.95 3 24.9 3 30 3 C30 3.33 30 3.66 30 4 C26.12501596 4.02917234 22.25006042 4.04685673 18.375 4.0625 C16.73337891 4.07506836 16.73337891 4.07506836 15.05859375 4.08789062 C13.46337891 4.09272461 13.46337891 4.09272461 11.8359375 4.09765625 C10.37486572 4.10551147 10.37486572 4.10551147 8.88427734 4.11352539 C5.85124679 3.99414506 2.98084732 3.55866724 0 3 C0 2.01 0 1.02 0 0 Z " fill="#1C4473" transform="translate(132,267)"/>
<path d="M0 0 C2.53256479 0.34931928 3.71908118 0.6824396 5.4375 2.625 C7.35917883 5.54595181 8.75306686 8.56237081 10.1875 11.75 C10.71730469 12.92046875 11.24710937 14.0909375 11.79296875 15.296875 C12.19128906 16.18890625 12.58960938 17.0809375 13 18 C11.68 18 10.36 18 9 18 C9 17.01 9 16.02 9 15 C8.01 15 7.02 15 6 15 C6 13.02 6 11.04 6 9 C5.01 9 4.02 9 3 9 C3 7.02 3 5.04 3 3 C2.01 3 1.02 3 0 3 C0 2.01 0 1.02 0 0 Z " fill="#328A37" transform="translate(249,78)"/>
<path d="M0 0 C2.31 0 4.62 0 7 0 C6.67 0.99 6.34 1.98 6 3 C5.195625 3.12375 4.39125 3.2475 3.5625 3.375 C2.716875 3.58125 1.87125 3.7875 1 4 C0.67 4.66 0.34 5.32 0 6 C-1.66666667 6.33333333 -3.33333333 6.66666667 -5 7 C-5.33 7.66 -5.66 8.32 -6 9 C-7.66666667 9.33333333 -9.33333333 9.66666667 -11 10 C-11.33 10.66 -11.66 11.32 -12 12 C-12.99 12 -13.98 12 -15 12 C-15 11.01 -15 10.02 -15 9 C-14.01 9 -13.02 9 -12 9 C-12 8.01 -12 7.02 -12 6 C-10.02 6 -8.04 6 -6 6 C-6 5.01 -6 4.02 -6 3 C-4.02 3 -2.04 3 0 3 C0 2.01 0 1.02 0 0 Z " fill="#EAEEEF" transform="translate(150,183)"/>
<path d="M0 0 C0.99 0 1.98 0 3 0 C3 1.98 3 3.96 3 6 C3.99 6 4.98 6 6 6 C6 9 6 9 4.6875 10.6875 C3 12 3 12 0 12 C0 11.01 0 10.02 0 9 C-0.99 9 -1.98 9 -3 9 C-3 7.02 -3 5.04 -3 3 C-2.01 3 -1.02 3 0 3 C0 2.01 0 1.02 0 0 Z " fill="#E0E9F7" transform="translate(75,192)"/>
<path d="M0 0 C0.99 0 1.98 0 3 0 C3 3.96 3 7.92 3 12 C2.01 12 1.02 12 0 12 C0 13.98 0 15.96 0 18 C-0.99 18 -1.98 18 -3 18 C-3 15.03 -3 12.06 -3 9 C-2.01 9 -1.02 9 0 9 C0 6.03 0 3.06 0 0 Z " fill="#A79E80" transform="translate(240,165)"/>
<path d="M0 0 C0.99 0 1.98 0 3 0 C3 3.96 3 7.92 3 12 C3.99 12 4.98 12 6 12 C6 13.98 6 15.96 6 18 C5.01 18 4.02 18 3 18 C3 17.01 3 16.02 3 15 C2.01 15 1.02 15 0 15 C0 10.05 0 5.1 0 0 Z " fill="#4E69A7" transform="translate(57,165)"/>
<path d="M0 0 C0.99 0 1.98 0 3 0 C3 3.96 3 7.92 3 12 C2.01 12 1.02 12 0 12 C0 12.99 0 13.98 0 15 C-0.99 15 -1.98 15 -3 15 C-3 12.03 -3 9.06 -3 6 C-2.01 6 -1.02 6 0 6 C0 4.02 0 2.04 0 0 Z " fill="#07145D" transform="translate(195,141)"/>
<path d="M0 0 C0.99 0 1.98 0 3 0 C3 0.99 3 1.98 3 3 C5.97 3 8.94 3 12 3 C12 4.98 12 6.96 12 9 C10.02 9 8.04 9 6 9 C6 8.01 6 7.02 6 6 C4.02 6 2.04 6 0 6 C0 4.02 0 2.04 0 0 Z " fill="#213176" transform="translate(183,135)"/>
<path d="M0 0 C1.98 0 3.96 0 6 0 C6 1.98 6 3.96 6 6 C5.01 6 4.02 6 3 6 C3 8.97 3 11.94 3 15 C2.01 15 1.02 15 0 15 C0 10.05 0 5.1 0 0 Z " fill="#5BBF65" transform="translate(237,105)"/>
<path d="M0 0 C6.93 0 13.86 0 21 0 C21 0.99 21 1.98 21 3 C14.07 3 7.14 3 0 3 C0 2.01 0 1.02 0 0 Z " fill="#E1E2E8" transform="translate(138,54)"/>
<path d="M0 0 C4.83628305 0.99043705 9.47618873 1.95698846 14 4 C13.01 4.495 13.01 4.495 12 5 C12 5.99 12 6.98 12 8 C11.01 8 10.02 8 9 8 C9 7.01 9 6.02 9 5 C8.3503125 5.7425 8.3503125 5.7425 7.6875 6.5 C6 8 6 8 3 8 C3 7.01 3 6.02 3 5 C2.01 5 1.02 5 0 5 C0 3.35 0 1.7 0 0 Z " fill="#3F8E43" transform="translate(183,28)"/>
<path d="M0 0 C0.99 0 1.98 0 3 0 C3 2.97 3 5.94 3 9 C1.35 9.33 -0.3 9.66 -2 10 C-2.33 11.65 -2.66 13.3 -3 15 C-3.99 15 -4.98 15 -6 15 C-6 13.02 -6 11.04 -6 9 C-5.01 9 -4.02 9 -3 9 C-3 8.01 -3 7.02 -3 6 C-2.01 6 -1.02 6 0 6 C0 4.02 0 2.04 0 0 Z " fill="#FADC31" transform="translate(228,201)"/>
<path d="M0 0 C2.97 0 5.94 0 9 0 C9 1.98 9 3.96 9 6 C3.375 7.125 3.375 7.125 0 6 C0 4.02 0 2.04 0 0 Z " fill="#619AEC" transform="translate(72,210)"/>
<path d="M0 0 C1.98 0 3.96 0 6 0 C6 0.99 6 1.98 6 3 C8.97 3 11.94 3 15 3 C15 3.99 15 4.98 15 6 C11.04 6 7.08 6 3 6 C3 5.01 3 4.02 3 3 C2.01 3 1.02 3 0 3 C0 2.01 0 1.02 0 0 Z " fill="#5F71A4" transform="translate(105,231)"/>
<path d="M0 0 C1.98 0 3.96 0 6 0 C6 1.98 6 3.96 6 6 C2.04 6 -1.92 6 -6 6 C-6 5.01 -6 4.02 -6 3 C-4.02 3 -2.04 3 0 3 C0 2.01 0 1.02 0 0 Z " fill="#CBD0D0" transform="translate(144,180)"/>
<path d="M0 0 C0.99 0 1.98 0 3 0 C3 5.94 3 11.88 3 18 C2.01 18 1.02 18 0 18 C0 12.06 0 6.12 0 0 Z " fill="#0F2963" transform="translate(27,150)"/>
<path d="M0 0 C0.99 0 1.98 0 3 0 C3 2.97 3 5.94 3 9 C3.99 9 4.98 9 6 9 C6 9.99 6 10.98 6 12 C3.03 12 0.06 12 -3 12 C-3 11.01 -3 10.02 -3 9 C-2.01 9 -1.02 9 0 9 C0 6.03 0 3.06 0 0 Z " fill="#A3B2E3" transform="translate(234,111)"/>
<path d="M0 0 C0.99 0 1.98 0 3 0 C3 5.94 3 11.88 3 18 C2.01 18 1.02 18 0 18 C0 12.06 0 6.12 0 0 Z " fill="#E96F63" transform="translate(36,96)"/>
<path d="M0 0 C0.99 0 1.98 0 3 0 C3 0.99 3 1.98 3 3 C3.99 3 4.98 3 6 3 C6 4.98 6 6.96 6 9 C3.03 9 0.06 9 -3 9 C-3 8.01 -3 7.02 -3 6 C-2.01 6 -1.02 6 0 6 C0 4.02 0 2.04 0 0 Z " fill="#BBC8E9" transform="translate(219,87)"/>
<path d="M0 0 C1.98 0 3.96 0 6 0 C6 0.99 6 1.98 6 3 C6.99 3 7.98 3 9 3 C9 3.99 9 4.98 9 6 C9.99 6 10.98 6 12 6 C12 6.99 12 7.98 12 9 C10.02 9 8.04 9 6 9 C6 8.01 6 7.02 6 6 C5.01 6 4.02 6 3 6 C3 5.01 3 4.02 3 3 C2.01 3 1.02 3 0 3 C0 2.01 0 1.02 0 0 Z " fill="#91A7AD" transform="translate(198,66)"/>
<path d="M0 0 C0.99 0.33 1.98 0.66 3 1 C-1.39963222 7.09296145 -5.79164362 12.63115662 -12 17 C-12 15.35 -12 13.7 -12 12 C-11.01 12 -10.02 12 -9 12 C-9 11.01 -9 10.02 -9 9 C-8.01 9 -7.02 9 -6 9 C-6 8.01 -6 7.02 -6 6 C-5.01 6 -4.02 6 -3 6 C-3 5.01 -3 4.02 -3 3 C-2.01 3 -1.02 3 0 3 C0 2.01 0 1.02 0 0 Z " fill="#C8AA23" transform="translate(246,219)"/>
<path d="M0 0 C0.33 0.99 0.66 1.98 1 3 C0.01 3 -0.98 3 -2 3 C-2 3.99 -2 4.98 -2 6 C-2.99 6 -3.98 6 -5 6 C-5 6.99 -5 7.98 -5 9 C-6.98 9 -8.96 9 -11 9 C-11 8.01 -11 7.02 -11 6 C-10.01 6 -9.02 6 -8 6 C-8.33 4.68 -8.66 3.36 -9 2 C-8.071875 1.855625 -7.14375 1.71125 -6.1875 1.5625 C-2.99274889 1.07899889 -2.99274889 1.07899889 0 0 Z " fill="#B06760" transform="translate(107,30)"/>
<path d="M0 0 C1.98 0 3.96 0 6 0 C3.08811579 3.22165912 0.40237179 5.00221978 -3.5625 6.75 C-4.51253906 7.17796875 -5.46257812 7.6059375 -6.44140625 8.046875 C-9 9 -9 9 -12 9 C-12 8.01 -12 7.02 -12 6 C-10.02 6 -8.04 6 -6 6 C-6 5.01 -6 4.02 -6 3 C-4.02 3 -2.04 3 0 3 C0 2.01 0 1.02 0 0 Z " fill="#C9A718" transform="translate(207,252)"/>
<path d="M0 0 C0.99 0 1.98 0 3 0 C3 0.99 3 1.98 3 3 C5.31 3 7.62 3 10 3 C9.67 3.99 9.34 4.98 9 6 C7.56359829 6.19573608 6.12580496 6.38127816 4.6875 6.5625 C3.88699219 6.66691406 3.08648437 6.77132812 2.26171875 6.87890625 C0 7 0 7 -3 6 C-3 5.01 -3 4.02 -3 3 C-2.01 3 -1.02 3 0 3 C0 2.01 0 1.02 0 0 Z " fill="#DC7162" transform="translate(108,30)"/>
<path d="M0 0 C0.99 0 1.98 0 3 0 C3.50559908 1.43554025 4.0042749 2.8735202 4.5 4.3125 C4.7784375 5.11300781 5.056875 5.91351563 5.34375 6.73828125 C6 9 6 9 6 12 C5.01 12 4.02 12 3 12 C3 11.01 3 10.02 3 9 C2.01 9 1.02 9 0 9 C0 6.03 0 3.06 0 0 Z " fill="#2B9B31" transform="translate(261,99)"/>
<path d="M0 0 C1.98 0 3.96 0 6 0 C6 2.97 6 5.94 6 9 C5.01 9 4.02 9 3 9 C3 8.01 3 7.02 3 6 C2.01 6.33 1.02 6.66 0 7 C0 4.69 0 2.38 0 0 Z " fill="#4EBD53" transform="translate(252,93)"/>
<path d="M0 0 C3.96 0 7.92 0 12 0 C12 0.99 12 1.98 12 3 C10.02 3 8.04 3 6 3 C6 3.99 6 4.98 6 6 C5.01 6 4.02 6 3 6 C3 5.01 3 4.02 3 3 C2.01 3 1.02 3 0 3 C0 2.01 0 1.02 0 0 Z " fill="#ECC733" transform="translate(201,249)"/>
<path d="M0 0 C2.97 0 5.94 0 9 0 C9 0.99 9 1.98 9 3 C8.01 3 7.02 3 6 3 C6 3.99 6 4.98 6 6 C4.02 6 2.04 6 0 6 C0 4.02 0 2.04 0 0 Z " fill="#315EAC" transform="translate(138,174)"/>
<path d="M0 0 C0.99 0 1.98 0 3 0 C3 4.95 3 9.9 3 15 C2.01 15 1.02 15 0 15 C0 10.05 0 5.1 0 0 Z " fill="#A5AED6" transform="translate(111,168)"/>
<path d="M0 0 C1.98 0 3.96 0 6 0 C6 0.99 6 1.98 6 3 C5.01 3 4.02 3 3 3 C3 3.99 3 4.98 3 6 C0.03 6 -2.94 6 -6 6 C-6 5.01 -6 4.02 -6 3 C-4.02 3 -2.04 3 0 3 C0 2.01 0 1.02 0 0 Z " fill="#99A1B0" transform="translate(186,159)"/>
<path d="M0 0 C0.99 0 1.98 0 3 0 C3 4.95 3 9.9 3 15 C2.01 15 1.02 15 0 15 C0 10.05 0 5.1 0 0 Z " fill="#706081" transform="translate(54,135)"/>
<path d="M0 0 C0.99 0 1.98 0 3 0 C3 4.95 3 9.9 3 15 C2.01 15 1.02 15 0 15 C0 10.05 0 5.1 0 0 Z " fill="#B5C6F4" transform="translate(57,129)"/>
<path d="M0 0 C0.99 0 1.98 0 3 0 C3 4.95 3 9.9 3 15 C2.01 15 1.02 15 0 15 C0 10.05 0 5.1 0 0 Z " fill="#D14F47" transform="translate(54,120)"/>
<path d="M0 0 C0.33 0 0.66 0 1 0 C1 4.62 1 9.24 1 14 C0.01 14 -0.98 14 -2 14 C-2 14.99 -2 15.98 -2 17 C-2.66 17 -3.32 17 -4 17 C-3.45018084 10.95198929 -2.09570426 5.69398894 0 0 Z " fill="#3E1712" transform="translate(32,103)"/>
<path d="M0 0 C0.99 0 1.98 0 3 0 C3 2.97 3 5.94 3 9 C1.02 9 -0.96 9 -3 9 C-3 7.02 -3 5.04 -3 3 C-2.01 3 -1.02 3 0 3 C0 2.01 0 1.02 0 0 Z " fill="#85DB8A" transform="translate(228,87)"/>
<path d="M0 0 C1.98 0 3.96 0 6 0 C6 1.98 6 3.96 6 6 C5.01 6 4.02 6 3 6 C3 6.99 3 7.98 3 9 C2.01 9 1.02 9 0 9 C0 6.03 0 3.06 0 0 Z " fill="#C9AAB5" transform="translate(78,78)"/>
<path d="M0 0 C0.99 0 1.98 0 3 0 C3 0.99 3 1.98 3 3 C4.98 3 6.96 3 9 3 C9 3.99 9 4.98 9 6 C7.02 6 5.04 6 3 6 C3 6.99 3 7.98 3 9 C2.01 9 1.02 9 0 9 C0 6.03 0 3.06 0 0 Z " fill="#C49A9F" transform="translate(105,57)"/>
<path d="M0 0 C4.95 0 9.9 0 15 0 C15 0.99 15 1.98 15 3 C10.05 3 5.1 3 0 3 C0 2.01 0 1.02 0 0 Z " fill="#8498A1" transform="translate(159,54)"/>
<path d="M0 0 C3.63 0.33 7.26 0.66 11 1 C10.01 1.495 10.01 1.495 9 2 C9 2.99 9 3.98 9 5 C6.03 5 3.06 5 0 5 C0 3.35 0 1.7 0 0 Z " fill="#26672C" transform="translate(168,25)"/>
<path d="M0 0 C0.99 0 1.98 0 3 0 C3 0.99 3 1.98 3 3 C3.99 3 4.98 3 6 3 C6 3.99 6 4.98 6 6 C6.99 6 7.98 6 9 6 C9 6.99 9 7.98 9 9 C9.99 9 10.98 9 12 9 C11.67 9.99 11.34 10.98 11 12 C9.15559063 10.76640153 7.32471135 9.51255281 5.5 8.25 C4.4790625 7.55390625 3.458125 6.8578125 2.40625 6.140625 C1.6121875 5.43421875 0.818125 4.7278125 0 4 C0 2.68 0 1.36 0 0 Z " fill="#20468D" transform="translate(72,240)"/>
<path d="M0 0 C0.33 0 0.66 0 1 0 C1 3.63 1 7.26 1 11 C-0.98 11 -2.96 11 -5 11 C-4.32902328 6.80639551 -2.1441606 3.59665648 0 0 Z " fill="#892925" transform="translate(41,85)"/>
<path d="M0 0 C4.81033104 2.54664585 8.32442148 4.99027798 12 9 C10.02 9 8.04 9 6 9 C6 8.01 6 7.02 6 6 C4.02 6 2.04 6 0 6 C0 4.02 0 2.04 0 0 Z " fill="#5AA661" transform="translate(219,45)"/>
<path d="M0 0 C0.99 0 1.98 0 3 0 C3 0.99 3 1.98 3 3 C3.99 3 4.98 3 6 3 C6 3.99 6 4.98 6 6 C4.8553125 6.1546875 4.8553125 6.1546875 3.6875 6.3125 C0.82940576 7.04364039 -0.15742885 7.76951913 -2 10 C-2.33 8.68 -2.66 7.36 -3 6 C-2.01 6 -1.02 6 0 6 C0 4.02 0 2.04 0 0 Z " fill="#F2877D" transform="translate(42,90)"/>
<path d="M0 0 C3.96 0 7.92 0 12 0 C12 0.99 12 1.98 12 3 C8.37 3.33 4.74 3.66 1 4 C0.67 2.68 0.34 1.36 0 0 Z " fill="#B4C3EE" transform="translate(60,123)"/>
<path d="M0 0 C0.33 0 0.66 0 1 0 C1 4.95 1 9.9 1 15 C0.01 15 -0.98 15 -2 15 C-2.3690205 4.44191344 -2.3690205 4.44191344 0 0 Z " fill="#86443D" transform="translate(35,96)"/>
<path d="M0 0 C0.99 0 1.98 0 3 0 C3 0.99 3 1.98 3 3 C1.37064759 4.37868281 -0.29749607 5.71274093 -2 7 C-2.33 7.66 -2.66 8.32 -3 9 C-3.99 9 -4.98 9 -6 9 C-6 7.02 -6 5.04 -6 3 C-4.02 3 -2.04 3 0 3 C0 2.01 0 1.02 0 0 Z " fill="#5EC561" transform="translate(246,96)"/>
<path d="M0 0 C0.99 0 1.98 0 3 0 C3 0.99 3 1.98 3 3 C2.01 3.495 2.01 3.495 1 4 C0.855625 4.78375 0.71125 5.5675 0.5625 6.375 C-0.05940525 9.27722451 -0.62948262 10.26769883 -3 12 C-3.99 12 -4.98 12 -6 12 C-6 11.01 -6 10.02 -6 9 C-5.01 9 -4.02 9 -3 9 C-3 7.02 -3 5.04 -3 3 C-2.01 3 -1.02 3 0 3 C0 2.01 0 1.02 0 0 Z " fill="#EF9B95" transform="translate(51,78)"/>
<path d="M0 0 C1.98 0 3.96 0 6 0 C6 0.99 6 1.98 6 3 C3.75 5.25 3.75 5.25 1 7 C-1.3125 6.75 -1.3125 6.75 -3 6 C-3 5.01 -3 4.02 -3 3 C-2.01 3 -1.02 3 0 3 C0 2.01 0 1.02 0 0 Z " fill="#E58C88" transform="translate(72,51)"/>
<path d="M0 0 C0.99 0 1.98 0 3 0 C3.19477739 1.62414378 3.38059458 3.24936423 3.5625 4.875 C3.66691406 5.77992188 3.77132812 6.68484375 3.87890625 7.6171875 C4 10 4 10 3 12 C2.01 12 1.02 12 0 12 C0 8.04 0 4.08 0 0 Z " fill="#DCBB39" transform="translate(243,159)"/>
<path d="M0 0 C0 0.66 0 1.32 0 2 C-0.99 2 -1.98 2 -3 2 C-3 2.99 -3 3.98 -3 5 C-4.98 5 -6.96 5 -9 5 C-9 5.99 -9 6.98 -9 8 C-10.98 8 -12.96 8 -15 8 C-14.3125 6.0625 -14.3125 6.0625 -13 4 C-10.75 3.4375 -10.75 3.4375 -8 3 C-1.88 0 -1.88 0 0 0 Z " fill="#970000" transform="translate(99,34)"/>
<path d="M0 0 C1.98 0 3.96 0 6 0 C6 0.99 6 1.98 6 3 C5.01 3 4.02 3 3 3 C3 3.99 3 4.98 3 6 C1.02 6 -0.96 6 -3 6 C-3 5.01 -3 4.02 -3 3 C-2.01 3 -1.02 3 0 3 C0 2.01 0 1.02 0 0 Z " fill="#928A5F" transform="translate(198,225)"/>
<path d="M0 0 C1.98 0 3.96 0 6 0 C6 0.99 6 1.98 6 3 C5.01 3 4.02 3 3 3 C3 3.99 3 4.98 3 6 C1.02 6 -0.96 6 -3 6 C-3 5.01 -3 4.02 -3 3 C-2.01 3 -1.02 3 0 3 C0 2.01 0 1.02 0 0 Z " fill="#999669" transform="translate(207,219)"/>
<path d="M0 0 C0.99 0 1.98 0 3 0 C3 1.98 3 3.96 3 6 C2.01 6 1.02 6 0 6 C0 6.99 0 7.98 0 9 C-0.99 9 -1.98 9 -3 9 C-3 7.02 -3 5.04 -3 3 C-2.01 3 -1.02 3 0 3 C0 2.01 0 1.02 0 0 Z " fill="#9C9468" transform="translate(225,201)"/>
<path d="M0 0 C0.99 0 1.98 0 3 0 C3 0.99 3 1.98 3 3 C3.99 3 4.98 3 6 3 C6 4.98 6 6.96 6 9 C5.01 9 4.02 9 3 9 C3 8.01 3 7.02 3 6 C2.01 6 1.02 6 0 6 C0 4.02 0 2.04 0 0 Z " fill="#697DAB" transform="translate(66,192)"/>
<path d="M0 0 C1.98 0 3.96 0 6 0 C6 1.98 6 3.96 6 6 C4.02 6 2.04 6 0 6 C0 4.02 0 2.04 0 0 Z " fill="#203E87" transform="translate(27,168)"/>
<path d="M0 0 C1.98 0 3.96 0 6 0 C6 1.98 6 3.96 6 6 C4.02 6 2.04 6 0 6 C0 4.02 0 2.04 0 0 Z " fill="#1B3985" transform="translate(153,168)"/>
<path d="M0 0 C3.96 0 7.92 0 12 0 C12 0.99 12 1.98 12 3 C8.04 3 4.08 3 0 3 C0 2.01 0 1.02 0 0 Z " fill="#B6BCCA" transform="translate(174,165)"/>
<path d="M0 0 C1.98 0 3.96 0 6 0 C6 0.99 6 1.98 6 3 C5.01 3 4.02 3 3 3 C3 3.99 3 4.98 3 6 C1.02 6 -0.96 6 -3 6 C-3 5.01 -3 4.02 -3 3 C-2.01 3 -1.02 3 0 3 C0 2.01 0 1.02 0 0 Z " fill="#BBC4DC" transform="translate(192,159)"/>
<path d="M0 0 C1.98 0 3.96 0 6 0 C6 1.98 6 3.96 6 6 C4.02 6 2.04 6 0 6 C0 4.02 0 2.04 0 0 Z " fill="#112875" transform="translate(171,159)"/>
<path d="M0 0 C0.99 0 1.98 0 3 0 C3 3.96 3 7.92 3 12 C2.01 12 1.02 12 0 12 C0 8.04 0 4.08 0 0 Z " fill="#678F89" transform="translate(240,120)"/>
<path d="M0 0 C2.97 0 5.94 0 9 0 C9 1.98 9 3.96 9 6 C8.01 6 7.02 6 6 6 C6 5.01 6 4.02 6 3 C4.02 3 2.04 3 0 3 C0 2.01 0 1.02 0 0 Z " fill="#F0F4FB" transform="translate(159,120)"/>
<path d="M0 0 C0.99 0 1.98 0 3 0 C3 1.98 3 3.96 3 6 C2.01 6 1.02 6 0 6 C0 6.99 0 7.98 0 9 C-0.99 9 -1.98 9 -3 9 C-3 7.02 -3 5.04 -3 3 C-2.01 3 -1.02 3 0 3 C0 2.01 0 1.02 0 0 Z " fill="#AFA2B3" transform="translate(72,90)"/>
<path d="M0 0 C3.96 0 7.92 0 12 0 C12 0.99 12 1.98 12 3 C8.04 3 4.08 3 0 3 C0 2.01 0 1.02 0 0 Z " fill="#A09BB1" transform="translate(126,54)"/>
<path d="M0 0 C3.96 0 7.92 0 12 0 C12 0.99 12 1.98 12 3 C8.04 3 4.08 3 0 3 C0 2.01 0 1.02 0 0 Z " fill="#DA8283" transform="translate(135,51)"/>
<path d="M0 0 C0.33 1.32 0.66 2.64 1 4 C0.01 4 -0.98 4 -2 4 C-2 4.99 -2 5.98 -2 7 C-2.99 7 -3.98 7 -5 7 C-5 7.99 -5 8.98 -5 10 C-5.99 10 -6.98 10 -8 10 C-8 10.99 -8 11.98 -8 13 C-8.99 12.67 -9.98 12.34 -11 12 C-8.47295673 6.78797325 -4.38226641 3.6119868 0 0 Z " fill="#000000" transform="translate(59,62)"/>
<path d="M0 0 C2.97 0.495 2.97 0.495 6 1 C7.125 6.75 7.125 6.75 6 9 C5.01 9 4.02 9 3 9 C3 7.02 3 5.04 3 3 C2.01 3 1.02 3 0 3 C0 2.01 0 1.02 0 0 Z " fill="#58B24E" transform="translate(195,33)"/>
<path d="M0 0 C1.32 0 2.64 0 4 0 C5.703125 1.96875 5.703125 1.96875 7.25 4.5 C8.03117188 5.75296875 8.03117188 5.75296875 8.828125 7.03125 C9.21484375 7.6809375 9.6015625 8.330625 10 9 C8.68 9 7.36 9 6 9 C6 8.01 6 7.02 6 6 C5.01 6 4.02 6 3 6 C3 5.01 3 4.02 3 3 C2.01 3 1.02 3 0 3 C0 2.01 0 1.02 0 0 Z " fill="#47884A" transform="translate(240,66)"/>
<path d="M0 0 C-0.99 0.33 -1.98 0.66 -3 1 C-3 1.99 -3 2.98 -3 4 C-6.47823115 5.15941038 -8.45895578 4.70820884 -12 4 C-12 3.01 -12 2.02 -12 1 C-7.93631321 0.22596442 -4.13574827 -0.0984702 0 0 Z " fill="#D15250" transform="translate(147,23)"/>
<path d="M0 0 C1.65 0 3.3 0 5 0 C1.86077669 4.52048157 -1.21495828 6.51545911 -6 9 C-6 8.01 -6 7.02 -6 6 C-5.01 6 -4.02 6 -3 6 C-3 5.01 -3 4.02 -3 3 C-2.01 3 -1.02 3 0 3 C0 2.01 0 1.02 0 0 Z " fill="#C3A31B" transform="translate(228,237)"/>
<path d="M0 0 C0.99 0 1.98 0 3 0 C3 2.97 3 5.94 3 9 C2.01 9 1.02 9 0 9 C-1.125 2.25 -1.125 2.25 0 0 Z " fill="#922C23" transform="translate(27,123)"/>
<path d="M0 0 C0.99 0 1.98 0 3 0 C3 0.99 3 1.98 3 3 C0.6875 5 0.6875 5 -2 7 C-3.0173873 7.98230498 -4.02596117 8.97469597 -5 10 C-5.33 8.68 -5.66 7.36 -6 6 C-5.01 6 -4.02 6 -3 6 C-3 5.01 -3 4.02 -3 3 C-2.01 3 -1.02 3 0 3 C0 2.01 0 1.02 0 0 Z " fill="#FBBAB2" transform="translate(69,57)"/>
<path d="M0 0 C5.47826087 -0.36521739 5.47826087 -0.36521739 7.875 1.3125 C9 3 9 3 9 6 C8.01 6 7.02 6 6 6 C6 5.01 6 4.02 6 3 C4.02 3 2.04 3 0 3 C0 2.01 0 1.02 0 0 Z " fill="#398F3D" transform="translate(210,42)"/>
<path d="M0 0 C1.32 0 2.64 0 4 0 C4 1.98 4 3.96 4 6 C4.99 6 5.98 6 7 6 C7 6.99 7 7.98 7 9 C5.1875 8.875 5.1875 8.875 3 8 C0 2.96428571 0 2.96428571 0 0 Z " fill="#041040" transform="translate(35,195)"/>
<path d="M0 0 C1.65 0 3.3 0 5 0 C5 1.98 5 3.96 5 6 C3.68 6.33 2.36 6.66 1 7 C0.67 4.69 0.34 2.38 0 0 Z " fill="#0A193F" transform="translate(28,174)"/>
<path d="M0 0 C0.99 0 1.98 0 3 0 C2.88557539 1.60495567 2.75805306 3.20898119 2.625 4.8125 C2.55539062 5.70582031 2.48578125 6.59914062 2.4140625 7.51953125 C2 10 2 10 0 13 C0 8.71 0 4.42 0 0 Z " fill="#BD9D19" transform="translate(267,168)"/>
<path d="M0 0 C0.99 0 1.98 0 3 0 C3 0.99 3 1.98 3 3 C1.37064759 4.37868281 -0.29749607 5.71274093 -2 7 C-2.33 7.66 -2.66 8.32 -3 9 C-3.99 9 -4.98 9 -6 9 C-6 8.01 -6 7.02 -6 6 C-5.01 6 -4.02 6 -3 6 C-3 5.01 -3 4.02 -3 3 C-2.01 3 -1.02 3 0 3 C0 2.01 0 1.02 0 0 Z " fill="#F2F8FC" transform="translate(87,78)"/>
<path d="M0 0 C1.98 0 3.96 0 6 0 C6.6875 1.8125 6.6875 1.8125 7 4 C5.5625 5.75 5.5625 5.75 4 7 C3.67 5.68 3.34 4.36 3 3 C2.01 3 1.02 3 0 3 C0 2.01 0 1.02 0 0 Z " fill="#7ED980" transform="translate(222,54)"/>
<path d="M0 0 C1.98567708 0.09765625 3.97135417 0.1953125 5.95703125 0.29296875 C5.95703125 1.28296875 5.95703125 2.27296875 5.95703125 3.29296875 C2.32703125 3.29296875 -1.30296875 3.29296875 -5.04296875 3.29296875 C-2.04296875 0.29296875 -2.04296875 0.29296875 0 0 Z " fill="#83413C" transform="translate(84.04296875,41.70703125)"/>
<path d="M0 0 C2.31 0 4.62 0 7 0 C6.67 1.98 6.34 3.96 6 6 C5.01 6 4.02 6 3 6 C3 5.01 3 4.02 3 3 C2.01 3 1.02 3 0 3 C0 2.01 0 1.02 0 0 Z " fill="#609DF2" transform="translate(54,219)"/>
<path d="M0 0 C0.99 0 1.98 0 3 0 C3 2.97 3 5.94 3 9 C2.01 9.33 1.02 9.66 0 10 C0 6.7 0 3.4 0 0 Z " fill="#F6D73B" transform="translate(228,201)"/>
<path d="M0 0 C0.99 0 1.98 0 3 0 C3 0.99 3 1.98 3 3 C2.01 3.495 2.01 3.495 1 4 C0.34444881 6.52733235 0.34444881 6.52733235 0 9 C-0.99 9 -1.98 9 -3 9 C-3 7.02 -3 5.04 -3 3 C-2.01 3 -1.02 3 0 3 C0 2.01 0 1.02 0 0 Z " fill="#A7BDEA" transform="translate(240,141)"/>
<path d="M0 0 C0.99 0 1.98 0 3 0 C3 1.98 3 3.96 3 6 C1.02 6.33 -0.96 6.66 -3 7 C-3 5.68 -3 4.36 -3 3 C-2.01 3 -1.02 3 0 3 C0 2.01 0 1.02 0 0 Z " fill="#99A6D9" transform="translate(240,132)"/>
<path d="M0 0 C1.98 0 3.96 0 6 0 C7.125 3.75 7.125 3.75 6 6 C5.01 6 4.02 6 3 6 C3 5.01 3 4.02 3 3 C2.01 3 1.02 3 0 3 C0 2.01 0 1.02 0 0 Z " fill="#C4D0F4" transform="translate(192,135)"/>
<path d="M0 0 C0.99 0 1.98 0 3 0 C3 1.98 3 3.96 3 6 C0 7 0 7 -3 6 C-3 5.01 -3 4.02 -3 3 C-2.01 3 -1.02 3 0 3 C0 2.01 0 1.02 0 0 Z " fill="#DB776E" transform="translate(54,69)"/>
<path d="M0 0 C1.32 0.33 2.64 0.66 4 1 C3.67 2.65 3.34 4.3 3 6 C1.02 6 -0.96 6 -3 6 C-3 5.01 -3 4.02 -3 3 C-2.01 3 -1.02 3 0 3 C0 2.01 0 1.02 0 0 Z " fill="#F6A5A1" transform="translate(81,48)"/>
<path d="M0 0 C0.33 0.99 0.66 1.98 1 3 C0.01 3 -0.98 3 -2 3 C-2 3.99 -2 4.98 -2 6 C-2.99 6 -3.98 6 -5 6 C-5 6.99 -5 7.98 -5 9 C-6.65 9 -8.3 9 -10 9 C-6.93906776 5.06451569 -4.50884026 2.31883213 0 0 Z " fill="#000000" transform="translate(74,48)"/>
<path d="M0 0 C1.98 0 3.96 0 6 0 C6 1.98 6 3.96 6 6 C5.01 6 4.02 6 3 6 C3 5.01 3 4.02 3 3 C2.01 3.33 1.02 3.66 0 4 C0 2.68 0 1.36 0 0 Z " fill="#57AC60" transform="translate(177,27)"/>
<path d="M0 0 C2.97 0 5.94 0 9 0 C9 0.99 9 1.98 9 3 C6.03 3 3.06 3 0 3 C0 2.01 0 1.02 0 0 Z " fill="#D1AA27" transform="translate(168,264)"/>
<path d="M0 0 C1.98 0 3.96 0 6 0 C5.01 1.485 5.01 1.485 4 3 C3.34 3 2.68 3 2 3 C1.67 3.66 1.34 4.32 1 5 C0.01 5.66 -0.98 6.32 -2 7 C-2.33 5.68 -2.66 4.36 -3 3 C-2.01 3 -1.02 3 0 3 C0 2.01 0 1.02 0 0 Z " fill="#C7A81A" transform="translate(216,246)"/>
<path d="M0 0 C2.97 0 5.94 0 9 0 C9 0.99 9 1.98 9 3 C6.03 3 3.06 3 0 3 C0 2.01 0 1.02 0 0 Z " fill="#726E82" transform="translate(171,237)"/>
<path d="M0 0 C2.97 0 5.94 0 9 0 C9 0.99 9 1.98 9 3 C6.03 3 3.06 3 0 3 C0 2.01 0 1.02 0 0 Z " fill="#646D97" transform="translate(120,237)"/>
<path d="M0 0 C0.99 0 1.98 0 3 0 C3 0.99 3 1.98 3 3 C3.99 3 4.98 3 6 3 C6 3.99 6 4.98 6 6 C4.02 6 2.04 6 0 6 C0 4.02 0 2.04 0 0 Z " fill="#5870A4" transform="translate(93,222)"/>
<path d="M0 0 C0.99 0 1.98 0 3 0 C3 1.98 3 3.96 3 6 C1.02 6 -0.96 6 -3 6 C-3 5.01 -3 4.02 -3 3 C-2.01 3 -1.02 3 0 3 C0 2.01 0 1.02 0 0 Z " fill="#9B9A9B" transform="translate(213,213)"/>
<path d="M0 0 C2.97 0 5.94 0 9 0 C9 0.99 9 1.98 9 3 C6.03 3 3.06 3 0 3 C0 2.01 0 1.02 0 0 Z " fill="#EBCE3B" transform="translate(231,195)"/>
<path d="M0 0 C0.99 0 1.98 0 3 0 C3 2.97 3 5.94 3 9 C2.01 9 1.02 9 0 9 C0 6.03 0 3.06 0 0 Z " fill="#4676C8" transform="translate(57,183)"/>
<path d="M0 0 C0.99 0 1.98 0 3 0 C3 1.98 3 3.96 3 6 C1.02 6 -0.96 6 -3 6 C-3 5.01 -3 4.02 -3 3 C-2.01 3 -1.02 3 0 3 C0 2.01 0 1.02 0 0 Z " fill="#7F88A5" transform="translate(195,153)"/>
<path d="M0 0 C0.99 0 1.98 0 3 0 C3 2.97 3 5.94 3 9 C2.01 9 1.02 9 0 9 C0 6.03 0 3.06 0 0 Z " fill="#918557" transform="translate(243,150)"/>
<path d="M0 0 C0.99 0 1.98 0 3 0 C3 2.97 3 5.94 3 9 C2.01 9 1.02 9 0 9 C0 6.03 0 3.06 0 0 Z " fill="#727BAF" transform="translate(198,144)"/>
<path d="M0 0 C0.99 0 1.98 0 3 0 C3 2.97 3 5.94 3 9 C2.01 9 1.02 9 0 9 C0 6.03 0 3.06 0 0 Z " fill="#7D6C87" transform="translate(57,120)"/>
<path d="M0 0 C0.99 0 1.98 0 3 0 C3 1.98 3 3.96 3 6 C1.02 6 -0.96 6 -3 6 C-3 5.01 -3 4.02 -3 3 C-2.01 3 -1.02 3 0 3 C0 2.01 0 1.02 0 0 Z " fill="#D46A65" transform="translate(30,117)"/>
<path d="M0 0 C0.99 0 1.98 0 3 0 C3 2.97 3 5.94 3 9 C2.01 9 1.02 9 0 9 C0 6.03 0 3.06 0 0 Z " fill="#A697AE" transform="translate(60,111)"/>
<path d="M0 0 C2.97 0 5.94 0 9 0 C9 0.99 9 1.98 9 3 C6.03 3 3.06 3 0 3 C0 2.01 0 1.02 0 0 Z " fill="#5F6893" transform="translate(117,105)"/>
<path d="M0 0 C0.99 0 1.98 0 3 0 C3 2.97 3 5.94 3 9 C2.01 9 1.02 9 0 9 C0 6.03 0 3.06 0 0 Z " fill="#83C591" transform="translate(210,69)"/>
<path d="M0 0 C0.99 0 1.98 0 3 0 C3 1.98 3 3.96 3 6 C1.02 6 -0.96 6 -3 6 C-3 5.01 -3 4.02 -3 3 C-2.01 3 -1.02 3 0 3 C0 2.01 0 1.02 0 0 Z " fill="#91EA93" transform="translate(234,63)"/>
<path d="M0 0 C0.99 0 1.98 0 3 0 C3 2.97 3 5.94 3 9 C2.01 9 1.02 9 0 9 C0 6.03 0 3.06 0 0 Z " fill="#BB8C75" transform="translate(147,45)"/>
<path d="M0 0 C0.99 0 1.98 0 3 0 C3 2.97 3 5.94 3 9 C2.01 9 1.02 9 0 9 C0 6.03 0 3.06 0 0 Z " fill="#7A8ABB" transform="translate(168,126)"/>
<path d="M0 0 C0.99 0 1.98 0 3 0 C3 0.99 3 1.98 3 3 C3.99 3 4.98 3 6 3 C6 3.99 6 4.98 6 6 C4.35 5.67 2.7 5.34 1 5 C0.67 3.35 0.34 1.7 0 0 Z " fill="#20448C" transform="translate(51,219)"/>
<path d="M0 0 C0.33 0 0.66 0 1 0 C1 7.92 1 15.84 1 24 C0.67 24 0.34 24 0 24 C0 16.08 0 8.16 0 0 Z " fill="#000000" transform="translate(23,135)"/>
<path d="M0 0 C2.475 0.495 2.475 0.495 5 1 C5.33 2.65 5.66 4.3 6 6 C5.01 6 4.02 6 3 6 C3 5.01 3 4.02 3 3 C2.01 3 1.02 3 0 3 C0 2.01 0 1.02 0 0 Z " fill="#479C4B" transform="translate(231,57)"/>
<path d="M0 0 C0.99 0 1.98 0 3 0 C3.66 1.98 4.32 3.96 5 6 C3.35 6 1.7 6 0 6 C0 4.02 0 2.04 0 0 Z " fill="#1E7C22" transform="translate(261,99)"/>
<path d="M0 0 C1.3921875 0.0928125 1.3921875 0.0928125 2.8125 0.1875 C2.8125 1.1775 2.8125 2.1675 2.8125 3.1875 C-0.1575 3.1875 -3.1275 3.1875 -6.1875 3.1875 C-3.1875 0.1875 -3.1875 0.1875 0 0 Z " fill="#A27570" transform="translate(66.1875,56.8125)"/>
<path d="M0 0 C0.99 0 1.98 0 3 0 C2.67 1.32 2.34 2.64 2 4 C1.34 4 0.68 4 0 4 C-0.66 5.32 -1.32 6.64 -2 8 C-2.33 8 -2.66 8 -3 8 C-3 6.35 -3 4.7 -3 3 C-2.01 3 -1.02 3 0 3 C0 2.01 0 1.02 0 0 Z " fill="#BBA11C" transform="translate(252,210)"/>
<path d="M0 0 C0.33 0 0.66 0 1 0 C1 1.98 1 3.96 1 6 C0.01 6 -0.98 6 -2 6 C-2 6.99 -2 7.98 -2 9 C-2.99 8.67 -3.98 8.34 -5 8 C-4.19185349 6.66402348 -3.37836819 5.331275 -2.5625 4 C-2.11003906 3.2575 -1.65757813 2.515 -1.19140625 1.75 C-0.79824219 1.1725 -0.40507813 0.595 0 0 Z " fill="#000000" transform="translate(47,75)"/>
<path d="M0 0 C2.02054804 1.64169528 4.02043058 3.30911778 6 5 C6 5.33 6 5.66 6 6 C4.02 6 2.04 6 0 6 C0 4.02 0 2.04 0 0 Z " fill="#75AA84" transform="translate(237,60)"/>
<path d="M0 0 C0.33 0.99 0.66 1.98 1 3 C0.01 3 -0.98 3 -2 3 C-2 3.99 -2 4.98 -2 6 C-2.99 6 -3.98 6 -5 6 C-5.33 4.68 -5.66 3.36 -6 2 C-4.02 1.34 -2.04 0.68 0 0 Z " fill="#8A2827" transform="translate(116,27)"/>
<path d="M0 0 C1.98 0 3.96 0 6 0 C3.47211993 2.79872437 1.79588866 4.45773019 -2 5 C-2 4.34 -2 3.68 -2 3 C-1.34 3 -0.68 3 0 3 C0 2.01 0 1.02 0 0 Z " fill="#B69E15" transform="translate(207,252)"/>
<path d="M0 0 C0.99 0 1.98 0 3 0 C3 0.99 3 1.98 3 3 C0.5 5.1875 0.5 5.1875 -2 7 C-2.33 5.68 -2.66 4.36 -3 3 C-2.01 3 -1.02 3 0 3 C0 2.01 0 1.02 0 0 Z " fill="#D2B234" transform="translate(168,240)"/>
<path d="M0 0 C5.75 1.75 5.75 1.75 8 4 C5.36 4 2.72 4 0 4 C0 2.68 0 1.36 0 0 Z " fill="#345F36" transform="translate(207,38)"/>
<path d="M0 0 C2.31 0 4.62 0 7 0 C6.67 0.99 6.34 1.98 6 3 C4.02 3.33 2.04 3.66 0 4 C0 2.68 0 1.36 0 0 Z " fill="#EB7A71" transform="translate(111,33)"/>
<path d="M0 0 C0.33 0.99 0.66 1.98 1 3 C0.01 3 -0.98 3 -2 3 C-2 3.99 -2 4.98 -2 6 C-2.99 6 -3.98 6 -5 6 C-5 4.68 -5 3.36 -5 2 C-3.35 1.34 -1.7 0.68 0 0 Z " fill="#922B27" transform="translate(107,30)"/>
<path d="M0 0 C1.65 0 3.3 0 5 0 C5 0.99 5 1.98 5 3 C5.99 3 6.98 3 8 3 C7.67 3.99 7.34 4.98 7 6 C5.83054208 5.19152271 4.66449539 4.37810888 3.5 3.5625 C2.8503125 3.11003906 2.200625 2.65757812 1.53125 2.19140625 C1.0259375 1.79824219 0.520625 1.40507812 0 1 C0 0.67 0 0.34 0 0 Z " fill="#041B4A" transform="translate(76,246)"/>
<path d="M0 0 C1.98 0 3.96 0 6 0 C6 0.99 6 1.98 6 3 C3 4 3 4 0 3 C0 2.01 0 1.02 0 0 Z " fill="#1E4790" transform="translate(141,243)"/>
<path d="M0 0 C0.99 0 1.98 0 3 0 C3 3 3 3 1.6875 4.6875 C0 6 0 6 -3 6 C-3 5.01 -3 4.02 -3 3 C-2.01 3 -1.02 3 0 3 C0 2.01 0 1.02 0 0 Z " fill="#EEF2FC" transform="translate(78,198)"/>
<path d="M0 0 C2.31 0 4.62 0 7 0 C6.67 0.99 6.34 1.98 6 3 C4.02 3 2.04 3 0 3 C0 2.01 0 1.02 0 0 Z " fill="#F2F7F3" transform="translate(159,180)"/>
<path d="M0 0 C2.31 0 4.62 0 7 0 C6.67 0.99 6.34 1.98 6 3 C4.02 3 2.04 3 0 3 C0 2.01 0 1.02 0 0 Z " fill="#C9D1E6" transform="translate(186,165)"/>
<path d="M0 0 C2.31 0 4.62 0 7 0 C6.67 0.99 6.34 1.98 6 3 C4.02 3 2.04 3 0 3 C0 2.01 0 1.02 0 0 Z " fill="#4B65A8" transform="translate(129,135)"/>
<path d="M0 0 C0.99 0 1.98 0 3 0 C3 3 3 3 1.6875 4.6875 C0 6 0 6 -3 6 C-3 5.01 -3 4.02 -3 3 C-2.01 3 -1.02 3 0 3 C0 2.01 0 1.02 0 0 Z " fill="#F0F6F9" transform="translate(132,102)"/>
<path d="M0 0 C0.99 0 1.98 0 3 0 C3 3 3 3 1.6875 4.6875 C0 6 0 6 -3 6 C-3 5.01 -3 4.02 -3 3 C-2.01 3 -1.02 3 0 3 C0 2.01 0 1.02 0 0 Z " fill="#FBA599" transform="translate(51,78)"/>
<path d="M0 0 C2.31 0 4.62 0 7 0 C6.67 0.99 6.34 1.98 6 3 C4.02 3 2.04 3 0 3 C0 2.01 0 1.02 0 0 Z " fill="#F6F7F9" transform="translate(174,60)"/>
<path d="M0 0 C0.99 0 1.98 0 3 0 C4.125 3.75 4.125 3.75 3 6 C2.01 6 1.02 6 0 6 C0 4.02 0 2.04 0 0 Z " fill="#CC6C66" transform="translate(132,24)"/>
<path d="M0 0 C1.98 0 3.96 0 6 0 C6 0.99 6 1.98 6 3 C4.02 3.33 2.04 3.66 0 4 C0 2.68 0 1.36 0 0 Z " fill="#52B856" transform="translate(162,24)"/>
<path d="M0 0 C2.97 0 5.94 0 9 0 C7.6875 2 7.6875 2 6 4 C5.01 4 4.02 4 3 4 C3 3.01 3 2.02 3 1 C2.01 0.67 1.02 0.34 0 0 Z " fill="#36B138" transform="translate(150,23)"/>
<path d="M0 0 C1.98 0 3.96 0 6 0 C6 0.99 6 1.98 6 3 C4.02 3 2.04 3 0 3 C0 2.01 0 1.02 0 0 Z " fill="#082E7E" transform="translate(132,267)"/>
<path d="M0 0 C1.98 0 3.96 0 6 0 C6 0.99 6 1.98 6 3 C4.02 3 2.04 3 0 3 C0 2.01 0 1.02 0 0 Z " fill="#305BAB" transform="translate(84,249)"/>
<path d="M0 0 C1.98 0 3.96 0 6 0 C6 0.99 6 1.98 6 3 C4.02 3 2.04 3 0 3 C0 2.01 0 1.02 0 0 Z " fill="#D7B130" transform="translate(156,246)"/>
<path d="M0 0 C1.98 0 3.96 0 6 0 C6 0.99 6 1.98 6 3 C4.02 3 2.04 3 0 3 C0 2.01 0 1.02 0 0 Z " fill="#4576C7" transform="translate(81,246)"/>
<path d="M0 0 C1.98 0 3.96 0 6 0 C6 0.99 6 1.98 6 3 C4.02 3 2.04 3 0 3 C0 2.01 0 1.02 0 0 Z " fill="#867E78" transform="translate(162,240)"/>
<path d="M0 0 C1.98 0 3.96 0 6 0 C6 0.99 6 1.98 6 3 C4.02 3 2.04 3 0 3 C0 2.01 0 1.02 0 0 Z " fill="#5C5B7D" transform="translate(141,240)"/>
<path d="M0 0 C1.98 0 3.96 0 6 0 C6 0.99 6 1.98 6 3 C4.02 3 2.04 3 0 3 C0 2.01 0 1.02 0 0 Z " fill="#686A94" transform="translate(180,234)"/>
<path d="M0 0 C1.98 0 3.96 0 6 0 C6 0.99 6 1.98 6 3 C4.02 3 2.04 3 0 3 C0 2.01 0 1.02 0 0 Z " fill="#817973" transform="translate(189,231)"/>
<path d="M0 0 C1.98 0 3.96 0 6 0 C6 0.99 6 1.98 6 3 C4.02 3 2.04 3 0 3 C0 2.01 0 1.02 0 0 Z " fill="#5D689A" transform="translate(105,231)"/>
<path d="M0 0 C1.98 0 3.96 0 6 0 C6 0.99 6 1.98 6 3 C4.02 3 2.04 3 0 3 C0 2.01 0 1.02 0 0 Z " fill="#828394" transform="translate(198,225)"/>
<path d="M0 0 C0.99 0 1.98 0 3 0 C3 1.98 3 3.96 3 6 C2.01 6 1.02 6 0 6 C0 4.02 0 2.04 0 0 Z " fill="#7B8DBB" transform="translate(90,219)"/>
<path d="M0 0 C0.99 0 1.98 0 3 0 C3 1.98 3 3.96 3 6 C2.01 6 1.02 6 0 6 C0 4.02 0 2.04 0 0 Z " fill="#F9DB3C" transform="translate(243,216)"/>
<path d="M0 0 C1.98 0 3.96 0 6 0 C6 0.99 6 1.98 6 3 C4.02 3 2.04 3 0 3 C0 2.01 0 1.02 0 0 Z " fill="#98947F" transform="translate(207,219)"/>
<path d="M0 0 C0.99 0 1.98 0 3 0 C3 1.98 3 3.96 3 6 C2.01 6 1.02 6 0 6 C0 4.02 0 2.04 0 0 Z " fill="#7589B7" transform="translate(75,204)"/>
<path d="M0 0 C0.99 0 1.98 0 3 0 C3 1.98 3 3.96 3 6 C2.01 6 1.02 6 0 6 C0 4.02 0 2.04 0 0 Z " fill="#878077" transform="translate(228,195)"/>
<path d="M0 0 C0.99 0 1.98 0 3 0 C3 1.98 3 3.96 3 6 C2.01 6 1.02 6 0 6 C0 4.02 0 2.04 0 0 Z " fill="#7B7F8A" transform="translate(231,189)"/>
<path d="M0 0 C1.98 0 3.96 0 6 0 C6 0.99 6 1.98 6 3 C4.02 3 2.04 3 0 3 C0 2.01 0 1.02 0 0 Z " fill="#D8DDE0" transform="translate(129,192)"/>
<path d="M0 0 C0.99 0 1.98 0 3 0 C3 1.98 3 3.96 3 6 C2.01 6 1.02 6 0 6 C0 4.02 0 2.04 0 0 Z " fill="#B7BCC9" transform="translate(117,189)"/>
<path d="M0 0 C0.99 0 1.98 0 3 0 C3 1.98 3 3.96 3 6 C2.01 6 1.02 6 0 6 C0 4.02 0 2.04 0 0 Z " fill="#CED4DE" transform="translate(114,189)"/>
<path d="M0 0 C1.98 0 3.96 0 6 0 C6 0.99 6 1.98 6 3 C4.02 3 2.04 3 0 3 C0 2.01 0 1.02 0 0 Z " fill="#9FA3A8" transform="translate(126,189)"/>
<path d="M0 0 C1.98 0 3.96 0 6 0 C6 0.99 6 1.98 6 3 C4.02 3 2.04 3 0 3 C0 2.01 0 1.02 0 0 Z " fill="#61647E" transform="translate(120,189)"/>
<path d="M0 0 C0.99 0 1.98 0 3 0 C3 1.98 3 3.96 3 6 C2.01 6 1.02 6 0 6 C0 4.02 0 2.04 0 0 Z " fill="#76727D" transform="translate(234,183)"/>
<path d="M0 0 C1.98 0 3.96 0 6 0 C6 0.99 6 1.98 6 3 C4.02 3 2.04 3 0 3 C0 2.01 0 1.02 0 0 Z " fill="#CCCFD8" transform="translate(138,186)"/>
<path d="M0 0 C1.98 0 3.96 0 6 0 C6 0.99 6 1.98 6 3 C4.02 3 2.04 3 0 3 C0 2.01 0 1.02 0 0 Z " fill="#A5A9A8" transform="translate(132,186)"/>
<path d="M0 0 C0.99 0 1.98 0 3 0 C3 1.98 3 3.96 3 6 C2.01 6 1.02 6 0 6 C0 4.02 0 2.04 0 0 Z " fill="#CAD3E8" transform="translate(111,183)"/>
<path d="M0 0 C1.98 0 3.96 0 6 0 C6 0.99 6 1.98 6 3 C4.02 3 2.04 3 0 3 C0 2.01 0 1.02 0 0 Z " fill="#A7ABA9" transform="translate(138,183)"/>
<path d="M0 0 C1.98 0 3.96 0 6 0 C6 0.99 6 1.98 6 3 C4.02 3 2.04 3 0 3 C0 2.01 0 1.02 0 0 Z " fill="#2D2D60" transform="translate(132,183)"/>
<path d="M0 0 C0.99 0 1.98 0 3 0 C3 1.98 3 3.96 3 6 C2.01 6 1.02 6 0 6 C0 4.02 0 2.04 0 0 Z " fill="#766F6A" transform="translate(237,177)"/>
<path d="M0 0 C1.98 0 3.96 0 6 0 C6 0.99 6 1.98 6 3 C4.02 3 2.04 3 0 3 C0 2.01 0 1.02 0 0 Z " fill="#CFD1D6" transform="translate(150,180)"/>
<path d="M0 0 C1.98 0 3.96 0 6 0 C6 0.99 6 1.98 6 3 C4.02 3 2.04 3 0 3 C0 2.01 0 1.02 0 0 Z " fill="#AAADAB" transform="translate(144,180)"/>
<path d="M0 0 C1.98 0 3.96 0 6 0 C6 0.99 6 1.98 6 3 C4.02 3 2.04 3 0 3 C0 2.01 0 1.02 0 0 Z " fill="#2D2D5C" transform="translate(138,180)"/>
<path d="M0 0 C0.99 0 1.98 0 3 0 C3 1.98 3 3.96 3 6 C2.01 6 1.02 6 0 6 C0 4.02 0 2.04 0 0 Z " fill="#616C99" transform="translate(60,177)"/>
<path d="M0 0 C1.98 0 3.96 0 6 0 C6 0.99 6 1.98 6 3 C4.02 3 2.04 3 0 3 C0 2.01 0 1.02 0 0 Z " fill="#A7ACA9" transform="translate(150,177)"/>
<path d="M0 0 C1.98 0 3.96 0 6 0 C6 0.99 6 1.98 6 3 C4.02 3 2.04 3 0 3 C0 2.01 0 1.02 0 0 Z " fill="#2F2F60" transform="translate(144,177)"/>
<path d="M0 0 C1.98 0 3.96 0 6 0 C6 0.99 6 1.98 6 3 C4.02 3 2.04 3 0 3 C0 2.01 0 1.02 0 0 Z " fill="#A8ADAB" transform="translate(156,174)"/>
<path d="M0 0 C1.98 0 3.96 0 6 0 C6 0.99 6 1.98 6 3 C4.02 3 2.04 3 0 3 C0 2.01 0 1.02 0 0 Z " fill="#A2A7AA" transform="translate(162,171)"/>
<path d="M0 0 C0.99 0 1.98 0 3 0 C3 1.98 3 3.96 3 6 C2.01 6 1.02 6 0 6 C0 4.02 0 2.04 0 0 Z " fill="#3C4C6E" transform="translate(27,168)"/>
<path d="M0 0 C0.99 0 1.98 0 3 0 C3 1.98 3 3.96 3 6 C2.01 6 1.02 6 0 6 C0 4.02 0 2.04 0 0 Z " fill="#5F606A" transform="translate(240,165)"/>
<path d="M0 0 C1.98 0 3.96 0 6 0 C6 0.99 6 1.98 6 3 C4.02 3 2.04 3 0 3 C0 2.01 0 1.02 0 0 Z " fill="#A4A8AF" transform="translate(168,168)"/>
<path d="M0 0 C0.99 0 1.98 0 3 0 C3 1.98 3 3.96 3 6 C2.01 6 1.02 6 0 6 C0 4.02 0 2.04 0 0 Z " fill="#747EA5" transform="translate(57,165)"/>
<path d="M0 0 C0.99 0 1.98 0 3 0 C3 1.98 3 3.96 3 6 C2.01 6 1.02 6 0 6 C0 4.02 0 2.04 0 0 Z " fill="#DAB227" transform="translate(246,162)"/>
<path d="M0 0 C1.98 0 3.96 0 6 0 C6 0.99 6 1.98 6 3 C4.02 3 2.04 3 0 3 C0 2.01 0 1.02 0 0 Z " fill="#969FA5" transform="translate(174,165)"/>
<path d="M0 0 C0.99 0 1.98 0 3 0 C3 1.98 3 3.96 3 6 C2.01 6 1.02 6 0 6 C0 4.02 0 2.04 0 0 Z " fill="#CAB24A" transform="translate(243,159)"/>
<path d="M0 0 C0.99 0 1.98 0 3 0 C3 1.98 3 3.96 3 6 C2.01 6 1.02 6 0 6 C0 4.02 0 2.04 0 0 Z " fill="#929CC4" transform="translate(240,159)"/>
<path d="M0 0 C0.99 0 1.98 0 3 0 C3 1.98 3 3.96 3 6 C2.01 6 1.02 6 0 6 C0 4.02 0 2.04 0 0 Z " fill="#102875" transform="translate(114,162)"/>
<path d="M0 0 C0.99 0 1.98 0 3 0 C3 1.98 3 3.96 3 6 C2.01 6 1.02 6 0 6 C0 4.02 0 2.04 0 0 Z " fill="#48609C" transform="translate(54,159)"/>
<path d="M0 0 C1.98 0 3.96 0 6 0 C6 0.99 6 1.98 6 3 C4.02 3 2.04 3 0 3 C0 2.01 0 1.02 0 0 Z " fill="#A5B2D0" transform="translate(192,159)"/>
<path d="M0 0 C1.98 0 3.96 0 6 0 C6 0.99 6 1.98 6 3 C4.02 3 2.04 3 0 3 C0 2.01 0 1.02 0 0 Z " fill="#8C94A4" transform="translate(186,159)"/>
<path d="M0 0 C0.99 0 1.98 0 3 0 C3 1.98 3 3.96 3 6 C2.01 6 1.02 6 0 6 C0 4.02 0 2.04 0 0 Z " fill="#ACB9DA" transform="translate(198,153)"/>
<path d="M0 0 C0.99 0 1.98 0 3 0 C3 1.98 3 3.96 3 6 C2.01 6 1.02 6 0 6 C0 4.02 0 2.04 0 0 Z " fill="#378B50" transform="translate(243,135)"/>
<path d="M0 0 C0.99 0 1.98 0 3 0 C3 1.98 3 3.96 3 6 C2.01 6 1.02 6 0 6 C0 4.02 0 2.04 0 0 Z " fill="#8B5A71" transform="translate(54,135)"/>
<path d="M0 0 C0.99 0 1.98 0 3 0 C3 1.98 3 3.96 3 6 C2.01 6 1.02 6 0 6 C0 4.02 0 2.04 0 0 Z " fill="#6D7BAB" transform="translate(180,132)"/>
<path d="M0 0 C0.99 0 1.98 0 3 0 C3 1.98 3 3.96 3 6 C2.01 6 1.02 6 0 6 C0 4.02 0 2.04 0 0 Z " fill="#47578F" transform="translate(177,132)"/>
<path d="M0 0 C1.98 0 3.96 0 6 0 C6 0.99 6 1.98 6 3 C4.02 3 2.04 3 0 3 C0 2.01 0 1.02 0 0 Z " fill="#234088" transform="translate(123,135)"/>
<path d="M0 0 C0.99 0 1.98 0 3 0 C3 1.98 3 3.96 3 6 C2.01 6 1.02 6 0 6 C0 4.02 0 2.04 0 0 Z " fill="#495B91" transform="translate(171,129)"/>
<path d="M0 0 C1.98 0 3.96 0 6 0 C6 0.99 6 1.98 6 3 C4.02 3 2.04 3 0 3 C0 2.01 0 1.02 0 0 Z " fill="#B6C7F1" transform="translate(105,132)"/>
<path d="M0 0 C0.99 0 1.98 0 3 0 C3 1.98 3 3.96 3 6 C2.01 6 1.02 6 0 6 C0 4.02 0 2.04 0 0 Z " fill="#9CAFDD" transform="translate(57,129)"/>
<path d="M0 0 C1.98 0 3.96 0 6 0 C6 0.99 6 1.98 6 3 C4.02 3 2.04 3 0 3 C0 2.01 0 1.02 0 0 Z " fill="#2AAA33" transform="translate(258,129)"/>
<path d="M0 0 C1.98 0 3.96 0 6 0 C6 0.99 6 1.98 6 3 C4.02 3 2.04 3 0 3 C0 2.01 0 1.02 0 0 Z " fill="#ABBFEF" transform="translate(90,129)"/>
<path d="M0 0 C1.98 0 3.96 0 6 0 C6 0.99 6 1.98 6 3 C4.02 3 2.04 3 0 3 C0 2.01 0 1.02 0 0 Z " fill="#B1C3F1" transform="translate(78,126)"/>
<path d="M0 0 C0.99 0 1.98 0 3 0 C3 1.98 3 3.96 3 6 C2.01 6 1.02 6 0 6 C0 4.02 0 2.04 0 0 Z " fill="#7A8A9B" transform="translate(237,114)"/>
<path d="M0 0 C1.98 0 3.96 0 6 0 C6 0.99 6 1.98 6 3 C4.02 3 2.04 3 0 3 C0 2.01 0 1.02 0 0 Z " fill="#D1DAF8" transform="translate(63,114)"/>
<path d="M0 0 C0.99 0 1.98 0 3 0 C3 1.98 3 3.96 3 6 C2.01 6 1.02 6 0 6 C0 4.02 0 2.04 0 0 Z " fill="#5F6D9B" transform="translate(114,108)"/>
<path d="M0 0 C0.99 0 1.98 0 3 0 C3 1.98 3 3.96 3 6 C2.01 6 1.02 6 0 6 C0 4.02 0 2.04 0 0 Z " fill="#A095AA" transform="translate(63,105)"/>
<path d="M0 0 C0.99 0 1.98 0 3 0 C3 1.98 3 3.96 3 6 C2.01 6 1.02 6 0 6 C0 4.02 0 2.04 0 0 Z " fill="#769693" transform="translate(231,99)"/>
<path d="M0 0 C1.98 0 3.96 0 6 0 C6 0.99 6 1.98 6 3 C4.02 3 2.04 3 0 3 C0 2.01 0 1.02 0 0 Z " fill="#F2F7FB" transform="translate(120,102)"/>
<path d="M0 0 C0.99 0 1.98 0 3 0 C3 1.98 3 3.96 3 6 C2.01 6 1.02 6 0 6 C0 4.02 0 2.04 0 0 Z " fill="#A29AB0" transform="translate(66,99)"/>
<path d="M0 0 C1.98 0 3.96 0 6 0 C6 0.99 6 1.98 6 3 C4.02 3 2.04 3 0 3 C0 2.01 0 1.02 0 0 Z " fill="#AAB7E1" transform="translate(225,99)"/>
<path d="M0 0 C1.98 0 3.96 0 6 0 C6 0.99 6 1.98 6 3 C4.02 3 2.04 3 0 3 C0 2.01 0 1.02 0 0 Z " fill="#D0DAEF" transform="translate(69,99)"/>
<path d="M0 0 C0.99 0 1.98 0 3 0 C3 1.98 3 3.96 3 6 C2.01 6 1.02 6 0 6 C0 4.02 0 2.04 0 0 Z " fill="#BE615E" transform="translate(36,96)"/>
<path d="M0 0 C1.98 0 3.96 0 6 0 C6 0.99 6 1.98 6 3 C4.02 3 2.04 3 0 3 C0 2.01 0 1.02 0 0 Z " fill="#F6A9A4" transform="translate(63,96)"/>
<path d="M0 0 C0.99 0 1.98 0 3 0 C3 1.98 3 3.96 3 6 C2.01 6 1.02 6 0 6 C0 4.02 0 2.04 0 0 Z " fill="#84A0A0" transform="translate(225,90)"/>
<path d="M0 0 C0.99 0 1.98 0 3 0 C3 1.98 3 3.96 3 6 C2.01 6 1.02 6 0 6 C0 4.02 0 2.04 0 0 Z " fill="#CB6D65" transform="translate(48,75)"/>
<path d="M0 0 C1.98 0 3.96 0 6 0 C6 0.99 6 1.98 6 3 C4.02 3 2.04 3 0 3 C0 2.01 0 1.02 0 0 Z " fill="#AFA8BA" transform="translate(93,69)"/>
<path d="M0 0 C1.98 0 3.96 0 6 0 C6 0.99 6 1.98 6 3 C4.02 3 2.04 3 0 3 C0 2.01 0 1.02 0 0 Z " fill="#82B194" transform="translate(198,66)"/>
<path d="M0 0 C1.98 0 3.96 0 6 0 C6 0.99 6 1.98 6 3 C4.02 3 2.04 3 0 3 C0 2.01 0 1.02 0 0 Z " fill="#DC8D82" transform="translate(57,66)"/>
<path d="M0 0 C1.98 0 3.96 0 6 0 C6 0.99 6 1.98 6 3 C4.02 3 2.04 3 0 3 C0 2.01 0 1.02 0 0 Z " fill="#83A69F" transform="translate(192,63)"/>
<path d="M0 0 C1.98 0 3.96 0 6 0 C6 0.99 6 1.98 6 3 C4.02 3 2.04 3 0 3 C0 2.01 0 1.02 0 0 Z " fill="#81A297" transform="translate(186,60)"/>
<path d="M0 0 C1.98 0 3.96 0 6 0 C6 0.99 6 1.98 6 3 C4.02 3 2.04 3 0 3 C0 2.01 0 1.02 0 0 Z " fill="#64C669" transform="translate(186,57)"/>
<path d="M0 0 C1.98 0 3.96 0 6 0 C6 0.99 6 1.98 6 3 C4.02 3 2.04 3 0 3 C0 2.01 0 1.02 0 0 Z " fill="#8A93A6" transform="translate(177,57)"/>
<path d="M0 0 C1.98 0 3.96 0 6 0 C6 0.99 6 1.98 6 3 C4.02 3 2.04 3 0 3 C0 2.01 0 1.02 0 0 Z " fill="#9F99B0" transform="translate(117,57)"/>
<path d="M0 0 C1.98 0 3.96 0 6 0 C6 0.99 6 1.98 6 3 C4.02 3 2.04 3 0 3 C0 2.01 0 1.02 0 0 Z " fill="#5DC062" transform="translate(177,54)"/>
<path d="M0 0 C1.98 0 3.96 0 6 0 C6 0.99 6 1.98 6 3 C4.02 3 2.04 3 0 3 C0 2.01 0 1.02 0 0 Z " fill="#B2AFC6" transform="translate(159,54)"/>
<path d="M0 0 C1.98 0 3.96 0 6 0 C6 0.99 6 1.98 6 3 C4.02 3 2.04 3 0 3 C0 2.01 0 1.02 0 0 Z " fill="#D2D5E1" transform="translate(138,54)"/>
<path d="M0 0 C1.98 0 3.96 0 6 0 C6 0.99 6 1.98 6 3 C4.02 3 2.04 3 0 3 C0 2.01 0 1.02 0 0 Z " fill="#F58D7F" transform="translate(117,54)"/>
<path d="M0 0 C1.98 0 3.96 0 6 0 C6 0.99 6 1.98 6 3 C4.02 3 2.04 3 0 3 C0 2.01 0 1.02 0 0 Z " fill="#73B47F" transform="translate(150,51)"/>
<path d="M0 0 C1.98 0 3.96 0 6 0 C6 0.99 6 1.98 6 3 C4.02 3 2.04 3 0 3 C0 2.01 0 1.02 0 0 Z " fill="#F37B74" transform="translate(135,51)"/>
<path d="M0 0 C1.98 0 3.96 0 6 0 C6 0.99 6 1.98 6 3 C4.02 3 2.04 3 0 3 C0 2.01 0 1.02 0 0 Z " fill="#DE7E73" transform="translate(72,51)"/>
<path d="M0 0 C1.98 0 3.96 0 6 0 C6 0.99 6 1.98 6 3 C4.02 3 2.04 3 0 3 C0 2.01 0 1.02 0 0 Z " fill="#DE6B62" transform="translate(90,39)"/>
<path d="M0 0 C2.97 0.495 2.97 0.495 6 1 C5.01 1.33 4.02 1.66 3 2 C3 2.99 3 3.98 3 5 C2.01 5 1.02 5 0 5 C0 3.35 0 1.7 0 0 Z " fill="#1D5322" transform="translate(183,28)"/>
<path d="M0 0 C2.64 0 5.28 0 8 0 C5.4345406 2.5654594 3.52313332 2.54046087 0 3 C0 2.01 0 1.02 0 0 Z " fill="#A98C18" transform="translate(189,261)"/>
<path d="M0 0 C1.32 0 2.64 0 4 0 C4 2.31 4 4.62 4 7 C0 2.25 0 2.25 0 0 Z " fill="#001135" transform="translate(47,216)"/>
<path d="M0 0 C1.32 0 2.64 0 4 0 C4 1.98 4 3.96 4 6 C2.62437146 4.71034824 1.29233607 3.37310707 0 2 C0 1.34 0 0.68 0 0 Z " fill="#021031" transform="translate(41,207)"/>
<path d="M0 0 C0.33 0 0.66 0 1 0 C1 5.61 1 11.22 1 17 C0.67 17 0.34 17 0 17 C0 11.39 0 5.78 0 0 Z " fill="#000000" transform="translate(273,131)"/>
<path d="M0 0 C0.33 0.99 0.66 1.98 1 3 C1.99 3 2.98 3 4 3 C4 3.99 4 4.98 4 6 C2.35 6 0.7 6 -1 6 C-0.67 4.02 -0.34 2.04 0 0 Z " fill="#D40D04" transform="translate(26,129)"/>
<path d="M0 0 C2.01920337 1.30406884 4.01924973 2.63823419 6 4 C6 4.33 6 4.66 6 5 C4.02 5 2.04 5 0 5 C0 3.35 0 1.7 0 0 Z " fill="#234E24" transform="translate(225,49)"/>
<path d="M0 0 C1.65 0 3.3 0 5 0 C5 0.99 5 1.98 5 3 C3.02 3 1.04 3 -1 3 C-0.67 2.01 -0.34 1.02 0 0 Z " fill="#6BB56C" transform="translate(157,24)"/>
<path d="M0 0 C0.33 0 0.66 0 1 0 C1 4.29 1 8.58 1 13 C0.67 13 0.34 13 0 13 C0 8.71 0 4.42 0 0 Z " fill="#EBB000" transform="translate(273,149)"/>
<path d="M0 0 C4.29 0 8.58 0 13 0 C13 0.33 13 0.66 13 1 C8.71 1 4.42 1 0 1 C0 0.67 0 0.34 0 0 Z " fill="#75B03A" transform="translate(143,21)"/>
<path d="M0 0 C2.97 0 5.94 0 9 0 C9 0.33 9 0.66 9 1 C6.03 1 3.06 1 0 1 C0 0.67 0 0.34 0 0 Z " fill="#000000" transform="translate(132,22)"/>
<path d="M0 0 C0.33 0 0.66 0 1 0 C1 2.31 1 4.62 1 7 C0.67 7 0.34 7 0 7 C0 4.69 0 2.38 0 0 Z " fill="#000000" transform="translate(24,161)"/>
<path d="M0 0 C0.33 0 0.66 0 1 0 C1 2.31 1 4.62 1 7 C0.67 7 0.34 7 0 7 C0 4.69 0 2.38 0 0 Z " fill="#910000" transform="translate(24,126)"/>
<path d="M0 0 C2.31 0 4.62 0 7 0 C7 0.33 7 0.66 7 1 C4.69 1 2.38 1 0 1 C0 0.67 0 0.34 0 0 Z " fill="#000000" transform="translate(160,22)"/>
<path d="M0 0 C1.65 0 3.3 0 5 0 C5 0.33 5 0.66 5 1 C3.35 1 1.7 1 0 1 C0 0.67 0 0.34 0 0 Z " fill="#000000" transform="translate(168,23)"/>
<path d="M0 0 C1.65 0 3.3 0 5 0 C5 0.33 5 0.66 5 1 C3.35 1 1.7 1 0 1 C0 0.67 0 0.34 0 0 Z " fill="#000000" transform="translate(126,23)"/>
<path d="M0 0 C4 1 4 1 4 1 Z " fill="#000000" transform="translate(133,271)"/>
<path d="M0 0 C4 1 4 1 4 1 Z " fill="#BFBF00" transform="translate(168,270)"/>
<path d="M0 0 C4 1 4 1 4 1 Z " fill="#000000" transform="translate(127,270)"/>
<path d="M0 0 C4 1 4 1 4 1 Z " fill="#000000" transform="translate(178,268)"/>
<path d="M0 0 C1 4 1 4 1 4 Z " fill="#000000" transform="translate(271,169)"/>
<path d="M0 0 C4 1 4 1 4 1 Z " fill="#000000" transform="translate(174,24)"/>
<path d="" fill="#000000" transform="translate(0,0)"/>
<path d="" fill="#000000" transform="translate(0,0)"/>
<path d="" fill="#FFFF00" transform="translate(0,0)"/>
<path d="" fill="#000000" transform="translate(0,0)"/>
<path d="" fill="#000000" transform="translate(0,0)"/>
<path d="M0 0 C3 1 3 1 3 1 Z " fill="#000000" transform="translate(179,25)"/>
<path d="M0 0 C3 1 3 1 3 1 Z " fill="#000000" transform="translate(117,25)"/>
<path d="M0 0 C2 1 2 1 2 1 Z " fill="#000000" transform="translate(165,271)"/>
<path d="M0 0 C2 1 2 1 2 1 Z " fill="#FF0000" transform="translate(175,269)"/>
<path d="M0 0 C2 1 2 1 2 1 Z " fill="#000000" transform="translate(122,269)"/>
<path d="M0 0 C2 1 2 1 2 1 Z " fill="#000000" transform="translate(118,268)"/>
<path d="M0 0 C2 1 2 1 2 1 Z " fill="#000000" transform="translate(115,267)"/>
<path d="M0 0 C2 1 2 1 2 1 Z " fill="#FF0000" transform="translate(186,266)"/>
<path d="M0 0 C2 1 2 1 2 1 Z " fill="#000000" transform="translate(189,265)"/>
<path d="M0 0 C2 1 2 1 2 1 Z " fill="#000000" transform="translate(108,265)"/>
<path d="M0 0 C2 1 2 1 2 1 Z " fill="#000000" transform="translate(192,264)"/>
<path d="" fill="#000000" transform="translate(0,0)"/>
<path d="" fill="#FFFF00" transform="translate(0,0)"/>
<path d="" fill="#000000" transform="translate(0,0)"/>
<path d="" fill="#000000" transform="translate(0,0)"/>
<path d="" fill="#000000" transform="translate(0,0)"/>
<path d="" fill="#000000" transform="translate(0,0)"/>
<path d="" fill="#FFFF00" transform="translate(0,0)"/>
<path d="" fill="#000000" transform="translate(0,0)"/>
<path d="" fill="#00FF00" transform="translate(0,0)"/>
<path d="" fill="#000000" transform="translate(0,0)"/>
<path d="" fill="#000000" transform="translate(0,0)"/>
<path d="" fill="#7F7F7F" transform="translate(0,0)"/>
<path d="" fill="#000000" transform="translate(0,0)"/>
<path d="" fill="#000000" transform="translate(0,0)"/>
<path d="" fill="#000000" transform="translate(0,0)"/>
<path d="" fill="#000000" transform="translate(0,0)"/>
<path d="M0 0 C2 1 2 1 2 1 Z " fill="#7F0000" transform="translate(95,33)"/>
<path d="M0 0 C2 1 2 1 2 1 Z " fill="#000000" transform="translate(199,32)"/>
<path d="M0 0 C2 1 2 1 2 1 Z " fill="#000000" transform="translate(197,31)"/>
<path d="M0 0 C2 1 2 1 2 1 Z " fill="#000000" transform="translate(100,31)"/>
<path d="M0 0 C2 1 2 1 2 1 Z " fill="#000000" transform="translate(194,30)"/>
<path d="M0 0 C2 1 2 1 2 1 Z " fill="#FF0000" transform="translate(102,30)"/>
<path d="M0 0 C2 1 2 1 2 1 Z " fill="#000000" transform="translate(105,29)"/>
<path d="M0 0 C2 1 2 1 2 1 Z " fill="#000000" transform="translate(189,28)"/>
<path d="M0 0 C2 1 2 1 2 1 Z " fill="#000000" transform="translate(186,27)"/>
<path d="M0 0 C2 1 2 1 2 1 Z " fill="#000000" transform="translate(183,26)"/>
<path d="M0 0 C2 1 2 1 2 1 Z " fill="#000000" transform="translate(114,26)"/>
<path d="" fill="#FF0000" transform="translate(0,0)"/>
<path d="" fill="#000000" transform="translate(0,0)"/>
<path d="" fill="#000000" transform="translate(0,0)"/>
<path d="" fill="#000000" transform="translate(0,0)"/>
<path d="" fill="#FFFF00" transform="translate(0,0)"/>
<path d="" fill="#FFFF00" transform="translate(0,0)"/>
<path d="" fill="#000000" transform="translate(0,0)"/>
<path d="" fill="#FFFF00" transform="translate(0,0)"/>
<path d="" fill="#000000" transform="translate(0,0)"/>
<path d="" fill="#000000" transform="translate(0,0)"/>
<path d="" fill="#000000" transform="translate(0,0)"/>
<path d="" fill="#000000" transform="translate(0,0)"/>
<path d="" fill="#000000" transform="translate(0,0)"/>
<path d="" fill="#000000" transform="translate(0,0)"/>
<path d="" fill="#FFFF00" transform="translate(0,0)"/>
<path d="" fill="#FFFF00" transform="translate(0,0)"/>
<path d="" fill="#000000" transform="translate(0,0)"/>
<path d="" fill="#000000" transform="translate(0,0)"/>
<path d="" fill="#000000" transform="translate(0,0)"/>
<path d="" fill="#000000" transform="translate(0,0)"/>
<path d="" fill="#000000" transform="translate(0,0)"/>
<path d="" fill="#000000" transform="translate(0,0)"/>
<path d="" fill="#000000" transform="translate(0,0)"/>
<path d="" fill="#FF0000" transform="translate(0,0)"/>
<path d="" fill="#000000" transform="translate(0,0)"/>
<path d="" fill="#000000" transform="translate(0,0)"/>
<path d="" fill="#FF0000" transform="translate(0,0)"/>
</svg>
