<?xml version="1.0" encoding="UTF-8"?>
<svg version="1.1" xmlns="http://www.w3.org/2000/svg" width="256" height="256">
<path d="M0 0 C0.76017426 -0.04105362 1.52034851 -0.08210724 2.30355835 -0.12440491 C7.57001112 -0.17253697 10.21905397 1.29113754 14.03282166 4.88395691 C16.53124099 7.63843552 18.53060868 10.6082474 20.4609375 13.77734375 C20.85861328 14.40125 21.25628906 15.02515625 21.66601562 15.66796875 C24.5234375 20.23197477 24.5234375 20.23197477 24.5234375 22.52734375 C25.1539502 22.42711914 25.78446289 22.32689453 26.43408203 22.22363281 C43.2401215 19.56481186 60.07127614 17.19249198 76.94384766 14.99755859 C80.38213682 14.545905 83.81820445 14.08026316 87.25390625 13.609375 C88.81685425 13.39776733 88.81685425 13.39776733 90.41137695 13.18188477 C92.33101124 12.9219065 94.25016885 12.65837008 96.16870117 12.39038086 C104.2475079 11.30961166 111.72077655 10.79641242 119.5234375 13.52734375 C122.86015098 16.69294371 123.75853539 19.09388203 124.5234375 23.52734375 C125.33167969 23.63691406 126.13992187 23.74648438 126.97265625 23.859375 C128.57560547 24.09720703 128.57560547 24.09720703 130.2109375 24.33984375 C131.79455078 24.56607422 131.79455078 24.56607422 133.41015625 24.796875 C137.29535955 25.70845971 140.40663504 26.81190473 142.64977455 30.25742817 C145.7550195 38.32534945 143.28821317 49.2402272 142.17822266 57.61645508 C142.03513168 58.74667084 141.89204071 59.8768866 141.74461365 61.04135132 C141.27525196 64.73176855 140.79418342 68.42054751 140.3125 72.109375 C139.98040862 74.69472449 139.64890588 77.28014965 139.31796265 79.86564636 C138.62582091 85.26330314 137.92729115 90.66010229 137.22460938 96.05639648 C136.41476517 102.27609506 135.61409984 108.49692137 134.81852305 114.7184599 C134.04890813 120.73597922 133.27374681 126.75276828 132.49592209 132.7692318 C132.16698913 135.31630457 131.83928112 137.86353585 131.51283646 140.41092873 C131.05580182 143.96965819 130.59249969 147.52751643 130.12744141 151.08520508 C129.92783562 152.652481 129.92783562 152.652481 129.72419739 154.25141907 C129.47220306 156.15984982 129.20287862 158.06611094 128.91240311 159.96906471 C128.66309382 161.60880537 128.45363112 163.25539489 128.29533005 164.90640831 C127.98568726 167.05497742 127.98568726 167.05497742 126.5234375 170.52734375 C123.69138177 172.24252519 120.73964649 172.84716426 117.5234375 173.52734375 C115.83296308 173.95995865 114.14252941 174.39273277 112.45213318 174.82565308 C110.58034338 175.26809995 108.70747872 175.70601648 106.83374023 176.14013672 C105.80071777 176.3830394 104.76769531 176.62594208 103.70336914 176.87620544 C100.28885361 177.67800981 96.87296759 178.47380364 93.45703125 179.26953125 C91.02563888 179.83909559 88.59433057 180.40901885 86.1631012 180.97927856 C81.0384372 182.18043104 75.91318438 183.37903342 70.78735352 184.57519531 C63.15213056 186.35694835 55.51836489 188.14489702 47.88476562 189.93359375 C40.35881522 191.69691662 32.83236405 193.45799901 25.30380249 195.21014404 C22.78699799 195.795979 20.27020316 196.3818555 17.75341797 196.96777344 C16.50923285 197.25742352 15.26504772 197.54707359 13.98316002 197.84550095 C6.14873697 199.67262237 -1.67959854 201.52372206 -9.50430012 203.3918972 C-14.69829994 204.63169927 -19.8949795 205.86011517 -25.09171867 207.08838272 C-27.55389675 207.67292541 -30.01503017 208.26188788 -32.47503853 208.85549545 C-35.87001693 209.67430107 -39.26830173 210.47771254 -42.66772461 211.27783203 C-43.66450415 211.52247318 -44.66128368 211.76711433 -45.68826866 212.01916885 C-51.02864102 213.25830508 -55.10746986 213.74507251 -60.4765625 212.52734375 C-62.20020507 207.22035124 -62.86751573 202.3844496 -63.11499023 196.82470703 C-63.1814325 195.55441288 -63.1814325 195.55441288 -63.24921703 194.25845623 C-63.39392038 191.45518864 -63.52703598 188.65149581 -63.66015625 185.84765625 C-63.76061255 183.85890567 -63.86181425 181.87019262 -63.9637146 179.8815155 C-64.23399334 174.56888421 -64.49446266 169.25581442 -64.75299454 163.94260025 C-65.0213015 158.46169208 -65.29836518 152.98122799 -65.57495117 147.50073242 C-65.90482127 140.95471908 -66.2339302 134.40867249 -66.55885315 127.8624115 C-67.16994009 115.55525751 -67.8001909 103.24947867 -68.46875 90.9453125 C-68.54171466 89.59700643 -68.61465726 88.24869916 -68.68757629 86.90039062 C-68.94966352 82.06362224 -69.21220632 77.22688734 -69.48019409 72.39044189 C-69.84614497 65.77072678 -70.19026988 59.15101119 -70.4765625 52.52734375 C-70.50844666 51.83332458 -70.54033081 51.13930542 -70.57318115 50.42425537 C-70.86542435 43.44072688 -70.67414048 37.80682506 -67.4765625 31.52734375 C-67.1377002 30.84285156 -66.79883789 30.15835938 -66.44970703 29.453125 C-65.34663758 27.29128607 -64.2013449 25.15787142 -63.0390625 23.02734375 C-62.26860382 21.60076091 -61.4990682 20.17367915 -60.73046875 18.74609375 C-60.16996826 17.70775391 -60.16996826 17.70775391 -59.59814453 16.6484375 C-58.44576432 14.4690994 -57.34493016 12.26921014 -56.25390625 10.05859375 C-54.4765625 6.52734375 -54.4765625 6.52734375 -53.4765625 5.52734375 C-50.53117383 5.07878313 -47.59805777 4.6878266 -44.640625 4.3359375 C-43.27869522 4.17158958 -43.27869522 4.17158958 -41.88925171 4.00392151 C-39.95086875 3.77209421 -38.01218644 3.54275883 -36.07324219 3.31567383 C-33.17496364 2.97350933 -30.27901019 2.61514901 -27.3828125 2.25585938 C-18.27923132 1.15790615 -9.16979249 0.25406048 0 0 Z " fill="#FEF196" transform="translate(79.4765625,20.47265625)"/>
<path d="M0 0 C0.76017426 -0.04105362 1.52034851 -0.08210724 2.30355835 -0.12440491 C7.57001112 -0.17253697 10.21905397 1.29113754 14.03282166 4.88395691 C16.53124099 7.63843552 18.53060868 10.6082474 20.4609375 13.77734375 C20.85861328 14.40125 21.25628906 15.02515625 21.66601562 15.66796875 C24.5234375 20.23197477 24.5234375 20.23197477 24.5234375 22.52734375 C25.1539502 22.42711914 25.78446289 22.32689453 26.43408203 22.22363281 C43.2401215 19.56481186 60.07127614 17.19249198 76.94384766 14.99755859 C80.38213682 14.545905 83.81820445 14.08026316 87.25390625 13.609375 C88.81685425 13.39776733 88.81685425 13.39776733 90.41137695 13.18188477 C92.33101124 12.9219065 94.25016885 12.65837008 96.16870117 12.39038086 C104.2475079 11.30961166 111.72077655 10.79641242 119.5234375 13.52734375 C122.86015098 16.69294371 123.75853539 19.09388203 124.5234375 23.52734375 C125.33167969 23.63691406 126.13992187 23.74648438 126.97265625 23.859375 C128.57560547 24.09720703 128.57560547 24.09720703 130.2109375 24.33984375 C131.79455078 24.56607422 131.79455078 24.56607422 133.41015625 24.796875 C137.29535955 25.70845971 140.40663504 26.81190473 142.64977455 30.25742817 C145.7550195 38.32534945 143.28821317 49.2402272 142.17822266 57.61645508 C142.03513168 58.74667084 141.89204071 59.8768866 141.74461365 61.04135132 C141.27525196 64.73176855 140.79418342 68.42054751 140.3125 72.109375 C139.98040862 74.69472449 139.64890588 77.28014965 139.31796265 79.86564636 C138.62582091 85.26330314 137.92729115 90.66010229 137.22460938 96.05639648 C136.41476517 102.27609506 135.61409984 108.49692137 134.81852305 114.7184599 C134.04890813 120.73597922 133.27374681 126.75276828 132.49592209 132.7692318 C132.16698913 135.31630457 131.83928112 137.86353585 131.51283646 140.41092873 C131.05580182 143.96965819 130.59249969 147.52751643 130.12744141 151.08520508 C129.92783562 152.652481 129.92783562 152.652481 129.72419739 154.25141907 C129.47220306 156.15984982 129.20287862 158.06611094 128.91240311 159.96906471 C128.66309382 161.60880537 128.45363112 163.25539489 128.29533005 164.90640831 C127.98568726 167.05497742 127.98568726 167.05497742 126.5234375 170.52734375 C123.69138177 172.24252519 120.73964649 172.84716426 117.5234375 173.52734375 C115.83296308 173.95995865 114.14252941 174.39273277 112.45213318 174.82565308 C110.58034338 175.26809995 108.70747872 175.70601648 106.83374023 176.14013672 C105.80071777 176.3830394 104.76769531 176.62594208 103.70336914 176.87620544 C100.28885361 177.67800981 96.87296759 178.47380364 93.45703125 179.26953125 C91.02563888 179.83909559 88.59433057 180.40901885 86.1631012 180.97927856 C81.0384372 182.18043104 75.91318438 183.37903342 70.78735352 184.57519531 C63.15213056 186.35694835 55.51836489 188.14489702 47.88476562 189.93359375 C40.35881522 191.69691662 32.83236405 193.45799901 25.30380249 195.21014404 C22.78699799 195.795979 20.27020316 196.3818555 17.75341797 196.96777344 C16.50923285 197.25742352 15.26504772 197.54707359 13.98316002 197.84550095 C6.14873697 199.67262237 -1.67959854 201.52372206 -9.50430012 203.3918972 C-14.69829994 204.63169927 -19.8949795 205.86011517 -25.09171867 207.08838272 C-27.55389675 207.67292541 -30.01503017 208.26188788 -32.47503853 208.85549545 C-35.87001693 209.67430107 -39.26830173 210.47771254 -42.66772461 211.27783203 C-43.66450415 211.52247318 -44.66128368 211.76711433 -45.68826866 212.01916885 C-51.02864102 213.25830508 -55.10746986 213.74507251 -60.4765625 212.52734375 C-62.20020507 207.22035124 -62.86751573 202.3844496 -63.11499023 196.82470703 C-63.1814325 195.55441288 -63.1814325 195.55441288 -63.24921703 194.25845623 C-63.39392038 191.45518864 -63.52703598 188.65149581 -63.66015625 185.84765625 C-63.76061255 183.85890567 -63.86181425 181.87019262 -63.9637146 179.8815155 C-64.23399334 174.56888421 -64.49446266 169.25581442 -64.75299454 163.94260025 C-65.0213015 158.46169208 -65.29836518 152.98122799 -65.57495117 147.50073242 C-65.90482127 140.95471908 -66.2339302 134.40867249 -66.55885315 127.8624115 C-67.16994009 115.55525751 -67.8001909 103.24947867 -68.46875 90.9453125 C-68.54171466 89.59700643 -68.61465726 88.24869916 -68.68757629 86.90039062 C-68.94966352 82.06362224 -69.21220632 77.22688734 -69.48019409 72.39044189 C-69.84614497 65.77072678 -70.19026988 59.15101119 -70.4765625 52.52734375 C-70.50844666 51.83332458 -70.54033081 51.13930542 -70.57318115 50.42425537 C-70.86542435 43.44072688 -70.67414048 37.80682506 -67.4765625 31.52734375 C-67.1377002 30.84285156 -66.79883789 30.15835938 -66.44970703 29.453125 C-65.34663758 27.29128607 -64.2013449 25.15787142 -63.0390625 23.02734375 C-62.26860382 21.60076091 -61.4990682 20.17367915 -60.73046875 18.74609375 C-60.16996826 17.70775391 -60.16996826 17.70775391 -59.59814453 16.6484375 C-58.44576432 14.4690994 -57.34493016 12.26921014 -56.25390625 10.05859375 C-54.4765625 6.52734375 -54.4765625 6.52734375 -53.4765625 5.52734375 C-50.53117383 5.07878313 -47.59805777 4.6878266 -44.640625 4.3359375 C-43.27869522 4.17158958 -43.27869522 4.17158958 -41.88925171 4.00392151 C-39.95086875 3.77209421 -38.01218644 3.54275883 -36.07324219 3.31567383 C-33.17496364 2.97350933 -30.27901019 2.61514901 -27.3828125 2.25585938 C-18.27923132 1.15790615 -9.16979249 0.25406048 0 0 Z M115.796875 32.515625 C114.5289209 32.72582275 113.2609668 32.93602051 111.95458984 33.15258789 C110.96226349 33.32082565 110.96226349 33.32082565 109.94989014 33.49246216 C106.45561672 34.084163 102.95810049 34.65613936 99.4609375 35.23046875 C98.76898285 35.34455582 98.0770282 35.45864288 97.36410522 35.57618713 C88.43777944 37.04333756 79.48484476 38.29695852 70.5234375 39.52734375 C68.11066103 39.86056088 65.69790181 40.19390288 63.28515625 40.52734375 C59.52216297 41.04705869 55.75908539 41.56609567 51.99560547 42.08227539 C49.67705279 42.40044151 47.35908449 42.72289794 45.04174805 43.04980469 C42.59359476 43.38209168 40.14139036 43.68529199 37.68676758 43.96582031 C36.44435303 44.11631836 35.20193848 44.26681641 33.921875 44.421875 C32.80087402 44.54796143 31.67987305 44.67404785 30.52490234 44.80395508 C24.53456468 46.2476976 21.39104059 50.92471864 17.9453125 55.7265625 C9.6344437 66.63962081 -9.68830628 66.03460736 -22.50268555 67.8269043 C-25.01569547 68.1809333 -27.52532187 68.55389208 -30.03515625 68.9296875 C-30.79461044 69.03087387 -31.55406464 69.13206024 -32.33653259 69.23631287 C-38.20548488 70.13612427 -42.21618478 72.26696603 -46.4765625 76.52734375 C-46.90870549 78.51629845 -46.90870549 78.51629845 -47.0390625 80.85546875 C-47.11253906 81.78085449 -47.18601562 82.70624023 -47.26171875 83.65966797 C-47.36806641 85.20291748 -47.36806641 85.20291748 -47.4765625 86.77734375 C-47.55777344 87.86418457 -47.63898437 88.95102539 -47.72265625 90.07080078 C-48.56512969 101.82492536 -49.13712712 113.59517812 -49.72436523 125.36425781 C-50.19765264 134.76503007 -50.78321246 144.14420724 -51.5390625 153.52734375 C-52.68618684 167.84429542 -53.10582994 182.1727598 -53.4765625 196.52734375 C-49.2886146 196.63446544 -45.76137338 196.56667729 -41.7890625 195.21484375 C-33.36749402 192.50973388 -24.88300286 190.5561782 -16.171875 189.0546875 C-13.49047601 188.53006596 -10.91383766 187.8459357 -8.2890625 187.08984375 C-3.67669459 185.7729697 0.9315584 184.86060085 5.6484375 184.02734375 C9.85497564 183.28172758 13.945494 182.52436346 17.9609375 181.02734375 C22.13573509 179.48673967 26.39789808 178.8019404 30.7734375 178.08984375 C37.2490783 177.03307233 43.31551424 175.47345445 49.5625 173.4296875 C53.17472271 172.32886501 56.76446363 171.69453683 60.484375 171.078125 C66.40636859 170.00485881 72.2447522 168.51887789 78.09472656 167.11132812 C81.58552935 166.2719634 85.07815469 165.440299 88.57080078 164.60864258 C90.30634296 164.19521668 92.04171005 163.78105473 93.77685547 163.3659668 C100.68395268 161.71633829 107.60241331 160.11743749 114.5234375 158.52734375 C117.19845222 140.53962814 119.57172424 122.52769207 121.7722168 104.4765625 C122.61937808 97.55681642 123.47268925 90.6505776 124.57421875 83.765625 C125.68745532 76.75456777 126.39353376 69.71559462 127.0859375 62.65234375 C127.33597782 60.13398899 127.58724034 57.61575521 127.83984375 55.09765625 C127.94756104 54.00211426 128.05527832 52.90657227 128.16625977 51.77783203 C128.42253038 49.44564678 128.7260615 47.11847085 129.06005859 44.79614258 C129.4799728 41.83395536 129.62683824 39.07559742 129.5859375 36.08984375 C129.57691406 35.22488281 129.56789062 34.35992187 129.55859375 33.46875 C129.54699219 32.82808594 129.53539062 32.18742187 129.5234375 31.52734375 C124.81455455 31.43289731 120.43856866 31.73250904 115.796875 32.515625 Z " fill="#C99806" transform="translate(79.4765625,20.47265625)"/>
<path d="M0 0 C1.87777373 2.18878001 3.42960492 4.23505499 5 6.625 C5.4125 7.22957031 5.825 7.83414063 6.25 8.45703125 C6.6625 9.06160156 7.075 9.66617188 7.5 10.2890625 C7.9228125 10.89395508 8.345625 11.49884766 8.78125 12.12207031 C10 14 10 14 10.96875 16.05761719 C12.12489669 18.26152182 12.96861489 19.54570319 15 21 C19.43353003 21.50314256 23.61979771 20.71705997 28 20 C29.99769884 19.73166346 31.9954085 19.46339679 33.99349976 19.19799805 C36.85628146 18.8088033 39.71336374 18.38424583 42.57092285 17.95861816 C46.41172518 17.38698429 50.25465014 16.83003343 54.09765625 16.2734375 C54.85847504 16.16306152 55.61929382 16.05268555 56.40316772 15.93896484 C65.83942434 14.57823399 75.29930764 13.41484332 84.76538086 12.28295898 C86.7403554 12.03287754 88.70889139 11.73304247 90.67578125 11.42578125 C94.29898591 10.96170451 97.78629476 10.90272662 101.4375 10.9375 C103.29181641 10.95103516 103.29181641 10.95103516 105.18359375 10.96484375 C106.57771484 10.98224609 106.57771484 10.98224609 108 11 C108 13.97 108 16.94 108 20 C102.51847913 21.44185567 97.09820175 22.55760628 91.49609375 23.40234375 C90.30723572 23.58583122 90.30723572 23.58583122 89.09436035 23.77302551 C86.54268931 24.16533979 83.99017043 24.55174638 81.4375 24.9375 C79.67325525 25.20668466 77.90901373 25.4758905 76.14477539 25.74511719 C66.75395735 27.1710478 57.35905242 28.54068589 47.9375 29.75 C47.03950684 29.86682129 46.14151367 29.98364258 45.21630859 30.10400391 C41.41062659 30.59246851 37.60878661 31.04676333 33.7890625 31.41015625 C22.67399758 32.61021043 17.54607402 36.73430041 10.54296875 45.16796875 C10.03378906 45.77253906 9.52460937 46.37710938 9 47 C8.38318359 47.81210938 8.38318359 47.81210938 7.75390625 48.640625 C5.062567 50.72656277 2.02981486 51.03075361 -1.25 51.5625 C-1.96381836 51.68761963 -2.67763672 51.81273926 -3.41308594 51.94165039 C-8.01141419 52.72884764 -12.62059453 53.35882432 -17.25 53.9375 C-23.39307414 54.72909954 -29.47563369 55.72775754 -35.5625 56.875 C-36.8304541 57.09917603 -36.8304541 57.09917603 -38.12402344 57.32788086 C-44.23490361 58.52085857 -48.34192566 60.34192566 -52.8125 64.8125 C-56.2361913 71.11929976 -55.38748304 80.11202422 -55.71875 87.08984375 C-55.78155151 88.34833633 -55.84435303 89.60682892 -55.90905762 90.90345764 C-56.1091026 94.91466098 -56.3051197 98.92604345 -56.5 102.9375 C-56.75676012 108.21763481 -57.0179759 113.49752868 -57.28125 118.77734375 C-57.338573 119.98277328 -57.395896 121.18820282 -57.45495605 122.43016052 C-57.74942628 128.33422062 -58.1607775 134.14750362 -59 140 C-59.33 140 -59.66 140 -60 140 C-61.07221985 133.70070836 -61.28852507 127.44199369 -61.5 121.0625 C-61.56962307 118.9699399 -61.64247405 116.8774844 -61.71875 114.78515625 C-61.74904297 113.86613525 -61.77933594 112.94711426 -61.81054688 112.00024414 C-61.95215857 109.7576331 -62.19403695 107.52095529 -62.48632812 105.29296875 C-63.12640829 100.38214996 -63.3127894 95.47308091 -63.5 90.52734375 C-63.5609082 89.02803062 -63.5609082 89.02803062 -63.62304688 87.49842834 C-63.75185326 84.31156941 -63.87607119 81.12455197 -64 77.9375 C-64.1244268 74.81783817 -64.24980282 71.69821878 -64.37638855 68.5786438 C-64.45885178 66.50137667 -64.53755179 64.42395676 -64.61250305 62.34640503 C-64.80587406 57.1156361 -65.0633017 51.90242777 -65.44995117 46.68212891 C-65.5175061 45.6596254 -65.58506104 44.63712189 -65.65466309 43.58363342 C-65.78369607 41.66491484 -65.93289851 39.74738799 -66.1072998 37.83226013 C-66.70895295 28.269243 -62.53559133 20.97684376 -57.38793945 13.17382812 C-56.00041884 11.12470781 -56.00041884 11.12470781 -55.2322998 9.24472046 C-54.30654955 7.26092897 -53.42763955 5.6636996 -52 4 C-49.009002 3.07156827 -46.91466396 2.67063908 -43.8671875 2.4765625 C-43.07531036 2.40005463 -42.28343323 2.32354675 -41.46755981 2.24472046 C-38.93837354 2.00740235 -36.40809849 1.81551293 -33.875 1.625 C-32.19504249 1.47566324 -30.51534688 1.32334846 -28.8359375 1.16796875 C-25.62856919 0.87532479 -22.42062339 0.60251803 -19.20996094 0.34863281 C-15.84134642 0.07940558 -12.48960466 -0.27200112 -9.1328125 -0.6640625 C-2.81081237 -1.25482695 -2.81081237 -1.25482695 0 0 Z " fill="#FEFB96" transform="translate(82,28)"/>
<path d="M0 0 C3.55948201 0.32358927 5.53463476 0.6100994 8.3125 2.9375 C12.80938354 8.43369099 11.28978577 16.29880686 10.76216507 23.03766823 C10.43200915 26.06105609 10.05432247 29.07411658 9.65478516 32.08911133 C9.51169418 33.21932709 9.36860321 34.34954285 9.22117615 35.51400757 C8.75181446 39.2044248 8.27074592 42.89320376 7.7890625 46.58203125 C7.45697112 49.16738074 7.12546838 51.7528059 6.79452515 54.33830261 C6.10238341 59.73595939 5.40385365 65.13275854 4.70117188 70.52905273 C3.89132767 76.74875131 3.09066234 82.96957762 2.29508555 89.19111615 C1.52547063 95.20863547 0.75030931 101.22542453 -0.02751541 107.24188805 C-0.35644837 109.78896082 -0.68415638 112.3361921 -1.01060104 114.88358498 C-1.46763568 118.44231444 -1.93093781 122.00017268 -2.39599609 125.55786133 C-2.59560188 127.12513725 -2.59560188 127.12513725 -2.79924011 128.72407532 C-3.05123444 130.63250607 -3.32055888 132.53876719 -3.61103439 134.44172096 C-3.86034368 136.08146162 -4.06980638 137.72805114 -4.22810745 139.37906456 C-4.53775024 141.52763367 -4.53775024 141.52763367 -6 145 C-8.83205573 146.71518144 -11.78379101 147.31982051 -15 148 C-16.69047442 148.4326149 -18.38090809 148.86538902 -20.07130432 149.29830933 C-21.94309412 149.7407562 -23.81595878 150.17867273 -25.68969727 150.61279297 C-26.72271973 150.85569565 -27.75574219 151.09859833 -28.82006836 151.34886169 C-32.23458389 152.15066606 -35.65046991 152.94645989 -39.06640625 153.7421875 C-41.49779862 154.31175184 -43.92910693 154.8816751 -46.3603363 155.45193481 C-51.4850003 156.65308729 -56.61025312 157.85168967 -61.73608398 159.04785156 C-69.37130694 160.8296046 -77.00507261 162.61755327 -84.63867188 164.40625 C-92.16462228 166.16957287 -99.69107345 167.93065526 -107.21963501 169.68280029 C-109.73643951 170.26863525 -112.25323434 170.85451175 -114.77001953 171.44042969 C-116.01420465 171.73007977 -117.25838978 172.01972984 -118.54027748 172.3181572 C-126.37470053 174.14527862 -134.20303604 175.99637831 -142.02773762 177.86455345 C-147.22173744 179.10435552 -152.418417 180.33277142 -157.61515617 181.56103897 C-160.07733425 182.14558166 -162.53846767 182.73454413 -164.99847603 183.3281517 C-168.39345443 184.14695732 -171.79173923 184.95036879 -175.19116211 185.75048828 C-176.18794165 185.99512943 -177.18472118 186.23977058 -178.21170616 186.4918251 C-183.53593468 187.72721545 -187.65512903 188.30170331 -193 187 C-194 186 -194 186 -194.0625 182.9375 C-194.041875 181.968125 -194.02125 180.99875 -194 180 C-186.4560327 177.56031488 -178.82259709 175.76168853 -171.08093262 174.06723022 C-160.71223208 171.79549089 -150.37234742 169.46556979 -140.14868164 166.59814453 C-136.3888544 165.55864944 -132.65688969 164.7321028 -128.8125 164.0625 C-122.38414274 162.93482486 -116.08289113 161.38100578 -109.75 159.8125 C-99.08593177 157.20155381 -88.40224173 154.7068202 -77.6875 152.3125 C-68.90987265 150.34884371 -60.1609974 148.33216712 -51.4453125 146.109375 C-45.43770392 144.59485183 -39.40962981 143.16421923 -33.38015747 141.73974609 C-32.01303694 141.41592943 -30.64638762 141.09011622 -29.28024292 140.76220703 C-27.35088586 140.29957094 -25.41960821 139.84496734 -23.48828125 139.390625 C-22.35946533 139.12282227 -21.23064941 138.85501953 -20.06762695 138.57910156 C-17.28331647 138.05348402 -14.8222272 137.88288695 -12 138 C-12.04382813 136.70449219 -12.08765625 135.40898437 -12.1328125 134.07421875 C-12.1246011 126.25012661 -10.91969971 118.54988551 -9.875 110.8125 C-9.65048485 109.11264371 -9.42670744 107.41268985 -9.20361328 105.71264648 C-8.72531506 102.07048807 -8.24425256 98.4287089 -7.76171875 94.78710938 C-6.5658446 85.73318477 -5.41659627 76.67326266 -4.26358032 67.61380005 C-3.87734115 64.58088373 -3.4899781 61.54811291 -3.10229492 58.51538086 C-1.65749054 47.20704517 -0.21946009 35.89797778 1.15087891 24.58032227 C1.63007727 20.67604022 2.21349276 16.85597354 3 13 C3.51302093 7.79086438 3.25331811 4.33775749 0 0 Z " fill="#040300" transform="translate(212,46)"/>
<path d="M0 0 C0.1961388 7.25317321 -0.38641875 14.19468533 -1.375 21.375 C-2.50808322 29.95196761 -3.51476116 38.52076255 -4.26513672 47.14013672 C-4.63346185 51.14144766 -5.16738563 55.04207244 -5.9296875 58.98828125 C-7.39263347 66.72871823 -8.18386717 74.55142005 -9.0625 82.375 C-9.32253992 84.67503738 -9.58367415 86.97493453 -9.84727478 89.27456665 C-10.00975899 90.69340465 -10.17017117 92.11248204 -10.32814026 93.53182983 C-10.73097911 97.06347478 -11.24060126 100.52691054 -12 104 C-12.33 104 -12.66 104 -13 104 C-13 72.32 -13 40.64 -13 8 C-15.97 8.66 -18.94 9.32 -22 10 C-24.40672052 10.38984362 -26.81847831 10.74991034 -29.234375 11.078125 C-30.60987949 11.26827471 -31.98536701 11.4585472 -33.36083984 11.64892578 C-34.07568542 11.74659241 -34.79053101 11.84425903 -35.52703857 11.94488525 C-48.67628147 13.74969746 -61.80984222 15.67020121 -74.92004395 17.73962402 C-76.54826341 17.99521991 -78.17709141 18.24697073 -79.80651855 18.49475098 C-82.08895551 18.84276007 -84.36876736 19.20467343 -86.6484375 19.5703125 C-87.94958496 19.77414551 -89.25073242 19.97797852 -90.59130859 20.18798828 C-95.49316163 21.35569801 -98.71888652 23.26078981 -101.8125 27.21484375 C-110.43297829 37.47104476 -117.74324265 40.25062491 -130.86474609 41.65673828 C-135.64667487 42.18028538 -140.4047892 42.86039657 -145.16748047 43.53466797 C-147.63680323 43.88039234 -150.10852496 44.20948599 -152.58251953 44.52001953 C-162.1494485 45.7200981 -162.1494485 45.7200981 -170 51 C-170.42417146 53.1016006 -170.42417146 53.1016006 -170.54421997 55.56838989 C-170.61428253 56.53035278 -170.68434509 57.49231567 -170.75653076 58.48342896 C-170.82414612 59.5422226 -170.89176147 60.60101624 -170.96142578 61.69189453 C-171.0397464 62.80409363 -171.11806702 63.91629272 -171.19876099 65.06219482 C-171.45638502 68.75185246 -171.70087383 72.44225979 -171.9453125 76.1328125 C-172.12101077 78.68591777 -172.2975243 81.23896705 -172.474823 83.79196167 C-172.89240096 89.83341522 -173.30172969 95.8753734 -173.70709884 101.91765392 C-174.16901467 108.79594391 -174.64141427 115.67350113 -175.11470819 122.55101609 C-176.08816285 136.69989142 -177.04840838 150.84963867 -178 165 C-179.65 165 -181.3 165 -183 165 C-182.62386332 147.09714089 -181.66866626 129.30019015 -180.29382324 111.44778442 C-179.51323088 101.30043236 -178.7887262 91.17341875 -178.4375 81 C-178.29797748 77.33306198 -178.15164629 73.66645626 -178 70 C-177.95584961 68.90123535 -177.91169922 67.8024707 -177.86621094 66.67041016 C-177.71269605 63.21535965 -177.5174642 59.76484245 -177.3125 56.3125 C-177.27116943 55.25353516 -177.22983887 54.19457031 -177.18725586 53.10351562 C-176.64240947 44.91544376 -176.64240947 44.91544376 -173.41796875 41.91796875 C-164.69636665 37.02390403 -153.98836485 36.69526805 -144.21313477 35.25268555 C-139.46677824 34.54892502 -134.73296832 33.78902477 -130 33 C-128.79021484 32.81937012 -127.58042969 32.63874023 -126.33398438 32.45263672 C-118.17438214 30.98554491 -114.720807 28.57895751 -109.875 22 C-104.15320116 15.22731928 -99.99958922 12.35073926 -91.17553711 11.53515625 C-89.45537923 11.413435 -87.73409441 11.30703428 -86.01220703 11.21289062 C-80.47589299 10.82160631 -74.98492 10.01106064 -69.48620605 9.27233887 C-67.43604177 8.99980615 -65.38486432 8.73700294 -63.33300781 8.47753906 C-55.77394938 7.52033773 -48.25277368 6.45825781 -40.74658203 5.15112305 C-33.78306172 3.94218999 -26.80090517 2.86735361 -19.8125 1.8125 C-18.65266602 1.63332031 -17.49283203 1.45414063 -16.29785156 1.26953125 C-10.80821295 0.44793085 -5.55216893 -0.23301433 0 0 Z " fill="#FCF9E1" transform="translate(209,52)"/>
<path d="M0 0 C1.87777373 2.18878001 3.42960492 4.23505499 5 6.625 C5.4125 7.22957031 5.825 7.83414063 6.25 8.45703125 C6.6625 9.06160156 7.075 9.66617188 7.5 10.2890625 C7.9228125 10.89395508 8.345625 11.49884766 8.78125 12.12207031 C10 14 10 14 10.96875 16.05761719 C12.12489669 18.26152182 12.96861489 19.54570319 15 21 C19.43353003 21.50314256 23.61979771 20.71705997 28 20 C29.99769884 19.73166346 31.9954085 19.46339679 33.99349976 19.19799805 C36.85628146 18.8088033 39.71336374 18.38424583 42.57092285 17.95861816 C46.41172518 17.38698429 50.25465014 16.83003343 54.09765625 16.2734375 C54.85847504 16.16306152 55.61929382 16.05268555 56.40316772 15.93896484 C65.83942434 14.57823399 75.29930764 13.41484332 84.76538086 12.28295898 C86.7403554 12.03287754 88.70889139 11.73304247 90.67578125 11.42578125 C94.29898591 10.96170451 97.78629476 10.90272662 101.4375 10.9375 C103.29181641 10.95103516 103.29181641 10.95103516 105.18359375 10.96484375 C106.57771484 10.98224609 106.57771484 10.98224609 108 11 C108 11.99 108 12.98 108 14 C94.58729645 16.47885209 81.12552637 18.50139082 67.625 20.4375 C63.37096504 21.04989015 59.11709872 21.66344481 54.86328125 22.27734375 C53.83154282 22.4259787 52.79980438 22.57461365 51.73680115 22.72775269 C45.83384808 23.58077015 39.93599851 24.45992224 34.04296875 25.37890625 C32.79112793 25.57234619 31.53928711 25.76578613 30.24951172 25.96508789 C28.03258679 26.31011435 25.81666513 26.66168118 23.60205078 27.02124023 C22.16901611 27.24275757 22.16901611 27.24275757 20.70703125 27.46875 C19.9075708 27.59701172 19.10811035 27.72527344 18.28442383 27.85742188 C15.63414508 28.02283416 13.54832274 27.74487394 11 27 C8.75390625 24.55859375 8.75390625 24.55859375 6.5625 21.4375 C5.7840566 20.34490782 5.00541009 19.25246034 4.2265625 18.16015625 C3.49179688 17.11730469 2.75703125 16.07445312 2 15 C0.34296476 12.83232736 -1.32786322 10.67640335 -3.00390625 8.5234375 C-4 7 -4 7 -4 5 C-5.24523437 5.27263672 -5.24523437 5.27263672 -6.515625 5.55078125 C-7.74796875 5.80214844 -8.9803125 6.05351563 -10.25 6.3125 C-10.93513672 6.45727783 -11.62027344 6.60205566 -12.32617188 6.7512207 C-17.2427136 7.70750699 -22.00802701 8.13131656 -27.015625 8.3046875 C-39.18626526 8.2064012 -39.18626526 8.2064012 -50.00878906 12.63476562 C-53.31348814 16.98792623 -54.67056021 21.76330422 -56 27 C-56.34506592 27.56493164 -56.69013184 28.12986328 -57.0456543 28.71191406 C-58.49685395 32.19122926 -58.26440059 35.68578364 -58.23046875 39.39453125 C-58.23001053 40.21894211 -58.22955231 41.04335297 -58.2290802 41.89274597 C-58.22606033 43.64197219 -58.21818193 45.39119578 -58.20581055 47.14038086 C-58.18782609 49.7649129 -58.1852993 52.38908529 -58.18554688 55.01367188 C-58.16636883 63.89853342 -57.89052851 72.68700891 -57.22485352 81.5480957 C-56.86351873 87.09523199 -56.85144124 92.63052642 -56.875 98.1875 C-56.87765869 99.3422583 -56.88031738 100.4970166 -56.88305664 101.68676758 C-56.95303292 114.50128368 -57.28716022 127.29044096 -59 140 C-59.33 140 -59.66 140 -60 140 C-61.07221985 133.70070836 -61.28852507 127.44199369 -61.5 121.0625 C-61.56962307 118.9699399 -61.64247405 116.8774844 -61.71875 114.78515625 C-61.74904297 113.86613525 -61.77933594 112.94711426 -61.81054688 112.00024414 C-61.95215857 109.7576331 -62.19403695 107.52095529 -62.48632812 105.29296875 C-63.12640829 100.38214996 -63.3127894 95.47308091 -63.5 90.52734375 C-63.5609082 89.02803062 -63.5609082 89.02803062 -63.62304688 87.49842834 C-63.75185326 84.31156941 -63.87607119 81.12455197 -64 77.9375 C-64.1244268 74.81783817 -64.24980282 71.69821878 -64.37638855 68.5786438 C-64.45885178 66.50137667 -64.53755179 64.42395676 -64.61250305 62.34640503 C-64.80587406 57.1156361 -65.0633017 51.90242777 -65.44995117 46.68212891 C-65.5175061 45.6596254 -65.58506104 44.63712189 -65.65466309 43.58363342 C-65.78369607 41.66491484 -65.93289851 39.74738799 -66.1072998 37.83226013 C-66.70895295 28.269243 -62.53559133 20.97684376 -57.38793945 13.17382812 C-56.00041884 11.12470781 -56.00041884 11.12470781 -55.2322998 9.24472046 C-54.30654955 7.26092897 -53.42763955 5.6636996 -52 4 C-49.009002 3.07156827 -46.91466396 2.67063908 -43.8671875 2.4765625 C-43.07531036 2.40005463 -42.28343323 2.32354675 -41.46755981 2.24472046 C-38.93837354 2.00740235 -36.40809849 1.81551293 -33.875 1.625 C-32.19504249 1.47566324 -30.51534688 1.32334846 -28.8359375 1.16796875 C-25.62856919 0.87532479 -22.42062339 0.60251803 -19.20996094 0.34863281 C-15.84134642 0.07940558 -12.48960466 -0.27200112 -9.1328125 -0.6640625 C-2.81081237 -1.25482695 -2.81081237 -1.25482695 0 0 Z " fill="#FDF4DE" transform="translate(82,28)"/>
<path d="M0 0 C1.65 0 3.3 0 5 0 C5.20147086 12.71000395 5.38502654 25.42013411 5.54658794 38.13071156 C5.62217594 44.03465274 5.70361143 49.93838507 5.79907227 55.84204102 C5.89121167 61.55427584 5.96712696 67.26652955 6.03244972 72.9791317 C6.05992272 75.14334667 6.09294737 77.30749954 6.13199425 79.47153664 C6.37146995 92.99104069 5.6131629 105.71921278 3 119 C-0.47325181 120.1577506 -3.36067448 120.06866652 -7 120 C-7 119.67 -7 119.34 -7 119 C-4.525 118.505 -4.525 118.505 -2 118 C-1.34 79.06 -0.68 40.12 0 0 Z " fill="#FECE67" transform="translate(191,60)"/>
<path d="M0 0 C1.85431641 0.01353516 1.85431641 0.01353516 3.74609375 0.02734375 C5.14021484 0.04474609 5.14021484 0.04474609 6.5625 0.0625 C6.5625 1.0525 6.5625 2.0425 6.5625 3.0625 C-4.12291877 5.1037088 -14.85093763 6.74686133 -25.625 8.25 C-26.88981201 8.42885742 -28.15462402 8.60771484 -29.45776367 8.79199219 C-30.66150635 8.95731445 -31.86524902 9.12263672 -33.10546875 9.29296875 C-34.18078857 9.44145264 -35.2561084 9.58993652 -36.36401367 9.74291992 C-39.41318984 10.05997224 -42.37436356 10.11907053 -45.4375 10.0625 C-44.7775 8.7425 -44.1175 7.4225 -43.4375 6.0625 C-41.7875 6.0625 -40.1375 6.0625 -38.4375 6.0625 C-38.4375 5.4025 -38.4375 4.7425 -38.4375 4.0625 C-37.4019397 3.93403687 -37.4019397 3.93403687 -36.34545898 3.80297852 C-33.1885569 3.41097952 -30.03177789 3.01799783 -26.875 2.625 C-25.24594727 2.42293945 -25.24594727 2.42293945 -23.58398438 2.21679688 C-22.52373047 2.08466797 -21.46347656 1.95253906 -20.37109375 1.81640625 C-19.33654053 1.68758057 -18.3019873 1.55875488 -17.23608398 1.42602539 C-15.0279581 1.13919826 -12.82515515 0.81139711 -10.625 0.46875 C-7.05173829 0.01333429 -3.60070154 -0.0342924 0 0 Z " fill="#FCF7E6" transform="translate(183.4375,38.9375)"/>
<path d="M0 0 C0.33 0 0.66 0 1 0 C1.04898437 1.08796875 1.09796875 2.1759375 1.1484375 3.296875 C1.22359666 4.78126836 1.29913845 6.26564237 1.375 7.75 C1.4059375 8.46027344 1.436875 9.17054687 1.46875 9.90234375 C1.693714 14.13916574 2.19774188 18.17728781 3.00390625 22.34375 C4.52889323 31.08053907 4.43050987 39.90584176 4.5625 48.75 C4.62155981 52.20322383 4.68597322 55.65631479 4.75390625 59.109375 C4.7698735 59.95129395 4.78584076 60.79321289 4.80229187 61.66064453 C4.91577924 66.94717062 5.15909028 72.20949012 5.5234375 77.484375 C5.98032855 84.1697228 6.12079005 90.80112761 6.0625 97.5 C6.05798828 98.52480469 6.05347656 99.54960937 6.04882812 100.60546875 C6.03730984 103.07038156 6.02105876 105.5351536 6 108 C5.67 108 5.34 108 5 108 C4.34204597 96.57666988 3.68970761 85.15303356 3.04424286 73.72899055 C2.74425378 68.4225223 2.44243948 63.11617186 2.13623047 57.81005859 C1.83996452 52.6750107 1.54878473 47.53969589 1.26091003 42.40417099 C1.15105215 40.45960365 1.03946076 38.51513333 0.92597961 36.57077408 C0.21498417 24.36457341 -0.14768373 12.22715804 0 0 Z " fill="#020200" transform="translate(10,76)"/>
<path d="M0 0 C0.33 0 0.66 0 1 0 C1.33 4.62 1.66 9.24 2 14 C2.66 14 3.32 14 4 14 C4.66 12.68 5.32 11.36 6 10 C6.10727823 19.20208823 6.01663355 28.36952718 5.5625 37.5625 C5.52326416 38.38202148 5.48402832 39.20154297 5.44360352 40.04589844 C5.17677934 45.07100166 4.67967958 50.01377919 4 55 C3.67 55 3.34 55 3 55 C1.92778015 48.70070836 1.71147493 42.44199369 1.5 36.0625 C1.2707985 27.89825708 1.2707985 27.89825708 0.47265625 19.77734375 C-0.04453221 15.64411039 -0.11253573 11.65681438 -0.0625 7.5 C-0.05798828 6.77296875 -0.05347656 6.0459375 -0.04882812 5.296875 C-0.03721193 3.53121319 -0.01928441 1.7655947 0 0 Z " fill="#FADC99" transform="translate(19,113)"/>
<path d="M0 0 C3.14045376 0 5.28736021 0.39149022 7.7109375 2.4609375 C12.43218018 7.69489432 16.88947412 13.66639631 20 20 C19.67 20.99 19.34 21.98 19 23 C17.68 23 16.36 23 15 23 C13.15091287 20.69089607 11.61054555 18.49885312 10.0625 16 C9.62373535 15.31607178 9.1849707 14.63214355 8.73291016 13.92749023 C7.47480528 11.95997865 6.23533167 9.98186304 5 8 C4.41863281 7.08347656 3.83726563 6.16695312 3.23828125 5.22265625 C2.14505208 3.49040487 1.06956751 1.74696027 0 0 Z " fill="#030200" transform="translate(84,21)"/>
<path d="M0 0 C0.33 0 0.66 0 1 0 C1 12.87 1 25.74 1 39 C1.66 39 2.32 39 3 39 C3 36.36 3 33.72 3 31 C3.66 31 4.32 31 5 31 C3.9360366 41.71886534 2.79319684 52.3743549 1 63 C0.67 63 0.34 63 0 63 C0 42.21 0 21.42 0 0 Z " fill="#FCF7B1" transform="translate(196,93)"/>
<path d="M0 0 C3.70741251 0.25277813 5.53709485 0.5746277 8.3125 3.125 C10.27563105 6.46959365 10.69889863 9.16095755 11 13 C8.36 13.33 5.72 13.66 3 14 C2.92652344 12.86111328 2.92652344 12.86111328 2.8515625 11.69921875 C2.77679688 10.70535156 2.70203125 9.71148437 2.625 8.6875 C2.55539063 7.70136719 2.48578125 6.71523438 2.4140625 5.69921875 C2.16134528 2.78471567 2.16134528 2.78471567 0 0 Z " fill="#040300" transform="translate(193,33)"/>
<path d="M0 0 C0.33 0 0.66 0 1 0 C1.04898437 1.08796875 1.09796875 2.1759375 1.1484375 3.296875 C1.59705578 13.01818278 1.59705578 13.01818278 3.0625 22.625 C4.88796299 32.22558312 4.16077202 42.26958252 4 52 C3.67 52 3.34 52 3 52 C3 46.72 3 41.44 3 36 C2.34 36 1.68 36 1 36 C0.20446163 23.98168818 -0.12812705 12.04394251 0 0 Z " fill="#594300" transform="translate(10,76)"/>
<path d="M0 0 C0.33 0 0.66 0 1 0 C1.06058594 0.75925781 1.12117188 1.51851563 1.18359375 2.30078125 C1.26738281 3.29464844 1.35117187 4.28851563 1.4375 5.3125 C1.51871094 6.29863281 1.59992187 7.28476563 1.68359375 8.30078125 C1.91812559 11.09375599 1.91812559 11.09375599 3 14 C3.06802967 15.72795352 3.08495645 17.45835365 3.0625 19.1875 C3.05347656 20.08855469 3.04445313 20.98960937 3.03515625 21.91796875 C3.02355469 22.60503906 3.01195312 23.29210937 3 24 C2.34 24 1.68 24 1 24 C-0.32915021 16.02509872 -0.08801359 8.05813281 0 0 Z " fill="#F0CF7E" transform="translate(19,113)"/>
<path d="M0 0 C0.33 0 0.66 0 1 0 C1.11269443 6.1105424 0.89604368 11.95170514 0 18 C-0.33 18 -0.66 18 -1 18 C-3.2 4.8 -3.2 4.8 0 0 Z " fill="#E9BF57" transform="translate(23,150)"/>
</svg>
